<ttFont>
<head>
    <!-- Most of this table will be recalculated by the compiler -->
    <tableVersion value="1.0"/>
    <fontRevision value="0.001"/>
    <checkSumAdjustment value="0xfabe8451"/>
    <magicNumber value="0x5f0f3cf5"/>
    <flags value="00000000 00001011"/>
    <unitsPerEm value="1000"/>
    <created value="Mon Dec  9 07:21:43 2024"/>
    <modified value="Sun Dec 15 17:35:12 2024"/>
    <xMin value="-288"/>
    <yMin value="-348"/>
    <xMax value="1361"/>
    <yMax value="1177"/>
    <macStyle value="00000000 00000000"/>
    <lowestRecPPEM value="8"/>
    <fontDirectionHint value="2"/>
    <indexToLocFormat value="0"/>
    <glyphDataFormat value="0"/>
  </head>
    <TTGlyph name=".notdef" xMin="243" yMin="0" xMax="733" yMax="794">
      <contour>
        <pt x="421" y="206" on="1"/>
        <pt x="497" y="206" on="1"/>
        <pt x="497" y="277" on="1"/>
        <pt x="421" y="277" on="1"/>
      </contour>
      <contour>
        <pt x="421" y="621" on="1"/>
        <pt x="421" y="544" on="1"/>
        <pt x="427" y="546" on="0"/>
        <pt x="434" y="546" on="1"/>
        <pt x="456" y="546" on="0"/>
        <pt x="488" y="515" on="0"/>
        <pt x="488" y="493" on="1"/>
        <pt x="488" y="470" on="0"/>
        <pt x="456" y="439" on="0"/>
        <pt x="434" y="439" on="1"/>
        <pt x="427" y="439" on="0"/>
        <pt x="421" y="441" on="1"/>
        <pt x="421" y="427" on="1"/>
        <pt x="421" y="364" on="1"/>
        <pt x="421" y="322" on="1"/>
        <pt x="497" y="322" on="1"/>
        <pt x="497" y="380" on="1"/>
        <pt x="527" y="397" on="0"/>
        <pt x="563" y="457" on="0"/>
        <pt x="563" y="493" on="1"/>
        <pt x="563" y="546" on="0"/>
        <pt x="488" y="621" on="0"/>
        <pt x="434" y="621" on="1"/>
        <pt x="426" y="621" on="0"/>
      </contour>
      <contour>
        <pt x="308" y="732" on="1"/>
        <pt x="670" y="732" on="1"/>
        <pt x="676" y="732" on="0"/>
        <pt x="685" y="723" on="0"/>
        <pt x="685" y="717" on="1"/>
        <pt x="685" y="81" on="1"/>
        <pt x="685" y="75" on="0"/>
        <pt x="676" y="66" on="0"/>
        <pt x="670" y="66" on="1"/>
        <pt x="308" y="66" on="1"/>
        <pt x="302" y="66" on="0"/>
        <pt x="293" y="75" on="0"/>
        <pt x="293" y="81" on="1"/>
        <pt x="293" y="717" on="1"/>
        <pt x="293" y="723" on="0"/>
        <pt x="302" y="732" on="0"/>
      </contour>
      <contour>
        <pt x="258" y="794" on="1"/>
        <pt x="252" y="794" on="0"/>
        <pt x="243" y="785" on="0"/>
        <pt x="243" y="779" on="1"/>
        <pt x="243" y="15" on="1"/>
        <pt x="243" y="9" on="0"/>
        <pt x="252" y="0" on="0"/>
        <pt x="258" y="0" on="1"/>
        <pt x="718" y="0" on="1"/>
        <pt x="724" y="0" on="0"/>
        <pt x="733" y="9" on="0"/>
        <pt x="733" y="15" on="1"/>
        <pt x="733" y="779" on="1"/>
        <pt x="733" y="785" on="0"/>
        <pt x="724" y="794" on="0"/>
        <pt x="718" y="794" on="1"/>
      </contour>
    </TTGlyph>
    <TTGlyph name="A" xMin="50" yMin="0" xMax="702" yMax="769">
      <contour>
        <pt x="550" y="0" on="1"/>
        <pt x="702" y="0" on="1"/>
        <pt x="402" y="769" on="1"/>
        <pt x="250" y="769" on="1"/>
        <pt x="50" y="0" on="1"/>
        <pt x="202" y="0" on="1"/>
        <pt x="261" y="227" on="1"/>
        <pt x="461" y="227" on="1"/>
        <pt x="461" y="228" on="1"/>
      </contour>
      <contour>
        <pt x="407" y="367" on="1"/>
        <pt x="297" y="367" on="1"/>
        <pt x="341" y="535" on="1"/>
      </contour>
    </TTGlyph>
    <TTGlyph name="A.0" xMin="60" yMin="0" xMax="712" yMax="769">
      <contour>
        <pt x="560" y="0" on="1"/>
        <pt x="471" y="228" on="1"/>
        <pt x="471" y="227" on="1"/>
        <pt x="271" y="227" on="1"/>
        <pt x="212" y="0" on="1"/>
        <pt x="60" y="0" on="1"/>
        <pt x="260" y="769" on="1"/>
        <pt x="412" y="769" on="1"/>
        <pt x="712" y="0" on="1"/>
      </contour>
      <contour>
        <pt x="417" y="367" on="1"/>
        <pt x="351" y="535" on="1"/>
        <pt x="307" y="367" on="1"/>
      </contour>
    </TTGlyph>
    <TTGlyph name="A.1" xMin="150" yMin="0" xMax="802" yMax="769">
      <component glyphName="A.0" x="90" y="0" flags="0x4"/>
    </TTGlyph>
    <TTGlyph name="A.2" xMin="150" yMin="0" xMax="802" yMax="769">
      <component glyphName="A.0" x="90" y="0" flags="0x4"/>
    </TTGlyph>
    <TTGlyph name="Aacute" xMin="50" yMin="0" xMax="702" yMax="1122">
      <component glyphName="acutecomb" x="363" y="317" flags="0x4"/>
      <component glyphName="A" x="0" y="0" flags="0x204"/>
    </TTGlyph>
    <TTGlyph name="Aacute.0" xMin="60" yMin="0" xMax="712" yMax="1122">
      <contour>
        <pt x="346" y="833" on="1"/>
        <pt x="238" y="940" on="1"/>
        <pt x="420" y="1122" on="1"/>
        <pt x="528" y="1015" on="1"/>
      </contour>
      <contour>
        <pt x="560" y="0" on="1"/>
        <pt x="471" y="228" on="1"/>
        <pt x="471" y="227" on="1"/>
        <pt x="271" y="227" on="1"/>
        <pt x="212" y="0" on="1"/>
        <pt x="60" y="0" on="1"/>
        <pt x="260" y="769" on="1"/>
        <pt x="412" y="769" on="1"/>
        <pt x="712" y="0" on="1"/>
      </contour>
      <contour>
        <pt x="417" y="367" on="1"/>
        <pt x="351" y="535" on="1"/>
        <pt x="307" y="367" on="1"/>
      </contour>
    </TTGlyph>
    <TTGlyph name="Aacute.1" xMin="150" yMin="0" xMax="802" yMax="1122">
      <contour>
        <pt x="526" y="833" on="1"/>
        <pt x="418" y="940" on="1"/>
        <pt x="600" y="1122" on="1"/>
        <pt x="708" y="1015" on="1"/>
      </contour>
      <contour>
        <pt x="650" y="0" on="1"/>
        <pt x="561" y="228" on="1"/>
        <pt x="561" y="227" on="1"/>
        <pt x="361" y="227" on="1"/>
        <pt x="302" y="0" on="1"/>
        <pt x="150" y="0" on="1"/>
        <pt x="350" y="769" on="1"/>
        <pt x="502" y="769" on="1"/>
        <pt x="802" y="0" on="1"/>
      </contour>
      <contour>
        <pt x="507" y="367" on="1"/>
        <pt x="441" y="535" on="1"/>
        <pt x="397" y="367" on="1"/>
      </contour>
    </TTGlyph>
    <TTGlyph name="Abreve" xMin="50" yMin="0" xMax="702" yMax="1060">
      <component glyphName="uni0306" x="326" y="25" flags="0x4"/>
      <component glyphName="A" x="0" y="0" flags="0x204"/>
    </TTGlyph>
    <TTGlyph name="Abreve.0" xMin="60" yMin="0" xMax="712" yMax="1060">
      <contour>
        <pt x="163" y="1024" on="1"/>
        <pt x="163" y="974" on="0"/>
        <pt x="219" y="930" on="1"/>
        <pt x="274" y="885" on="0"/>
        <pt x="346" y="885" on="1"/>
        <pt x="419" y="885" on="0"/>
        <pt x="475" y="930" on="1"/>
        <pt x="530" y="974" on="0"/>
        <pt x="530" y="1024" on="1"/>
        <pt x="539" y="1060" on="1"/>
        <pt x="542" y="1043" on="0"/>
        <pt x="542" y="1024" on="1"/>
        <pt x="542" y="945" on="0"/>
        <pt x="485" y="889" on="1"/>
        <pt x="427" y="833" on="0"/>
        <pt x="345" y="833" on="1"/>
        <pt x="264" y="833" on="0"/>
        <pt x="207" y="889" on="1"/>
        <pt x="149" y="945" on="0"/>
        <pt x="149" y="1024" on="1"/>
        <pt x="149" y="1043" on="0"/>
        <pt x="152" y="1060" on="1"/>
      </contour>
      <contour>
        <pt x="560" y="0" on="1"/>
        <pt x="471" y="228" on="1"/>
        <pt x="471" y="227" on="1"/>
        <pt x="271" y="227" on="1"/>
        <pt x="212" y="0" on="1"/>
        <pt x="60" y="0" on="1"/>
        <pt x="260" y="769" on="1"/>
        <pt x="412" y="769" on="1"/>
        <pt x="712" y="0" on="1"/>
      </contour>
      <contour>
        <pt x="417" y="367" on="1"/>
        <pt x="351" y="535" on="1"/>
        <pt x="307" y="367" on="1"/>
      </contour>
    </TTGlyph>
    <TTGlyph name="Abreve.1" xMin="150" yMin="0" xMax="802" yMax="1060">
      <contour>
        <pt x="343" y="1024" on="1"/>
        <pt x="343" y="974" on="0"/>
        <pt x="399" y="930" on="1"/>
        <pt x="454" y="885" on="0"/>
        <pt x="526" y="885" on="1"/>
        <pt x="599" y="885" on="0"/>
        <pt x="655" y="930" on="1"/>
        <pt x="710" y="974" on="0"/>
        <pt x="710" y="1024" on="1"/>
        <pt x="719" y="1060" on="1"/>
        <pt x="722" y="1043" on="0"/>
        <pt x="722" y="1024" on="1"/>
        <pt x="722" y="945" on="0"/>
        <pt x="665" y="889" on="1"/>
        <pt x="607" y="833" on="0"/>
        <pt x="525" y="833" on="1"/>
        <pt x="444" y="833" on="0"/>
        <pt x="387" y="889" on="1"/>
        <pt x="329" y="945" on="0"/>
        <pt x="329" y="1024" on="1"/>
        <pt x="329" y="1043" on="0"/>
        <pt x="332" y="1060" on="1"/>
      </contour>
      <contour>
        <pt x="650" y="0" on="1"/>
        <pt x="561" y="228" on="1"/>
        <pt x="561" y="227" on="1"/>
        <pt x="361" y="227" on="1"/>
        <pt x="302" y="0" on="1"/>
        <pt x="150" y="0" on="1"/>
        <pt x="350" y="769" on="1"/>
        <pt x="502" y="769" on="1"/>
        <pt x="802" y="0" on="1"/>
      </contour>
      <contour>
        <pt x="507" y="367" on="1"/>
        <pt x="441" y="535" on="1"/>
        <pt x="397" y="367" on="1"/>
      </contour>
    </TTGlyph>
    <TTGlyph name="Acircumflex" xMin="50" yMin="0" xMax="702" yMax="1000">
      <component glyphName="uni0302" x="326" y="66" flags="0x4"/>
      <component glyphName="A" x="0" y="0" flags="0x204"/>
    </TTGlyph>
    <TTGlyph name="Acircumflex.0" xMin="60" yMin="0" xMax="712" yMax="1000">
      <contour>
        <pt x="246" y="832" on="1"/>
        <pt x="317" y="1000" on="1"/>
        <pt x="318" y="1000" on="1"/>
        <pt x="393" y="1000" on="1"/>
        <pt x="394" y="1000" on="1"/>
        <pt x="446" y="832" on="1"/>
        <pt x="370" y="832" on="1"/>
        <pt x="350" y="940" on="1"/>
        <pt x="322" y="832" on="1"/>
      </contour>
      <contour>
        <pt x="560" y="0" on="1"/>
        <pt x="471" y="228" on="1"/>
        <pt x="471" y="227" on="1"/>
        <pt x="271" y="227" on="1"/>
        <pt x="212" y="0" on="1"/>
        <pt x="60" y="0" on="1"/>
        <pt x="260" y="769" on="1"/>
        <pt x="412" y="769" on="1"/>
        <pt x="712" y="0" on="1"/>
      </contour>
      <contour>
        <pt x="417" y="367" on="1"/>
        <pt x="351" y="535" on="1"/>
        <pt x="307" y="367" on="1"/>
      </contour>
    </TTGlyph>
    <TTGlyph name="Acircumflex.1" xMin="150" yMin="0" xMax="802" yMax="1000">
      <contour>
        <pt x="426" y="832" on="1"/>
        <pt x="497" y="1000" on="1"/>
        <pt x="498" y="1000" on="1"/>
        <pt x="573" y="1000" on="1"/>
        <pt x="574" y="1000" on="1"/>
        <pt x="626" y="832" on="1"/>
        <pt x="550" y="832" on="1"/>
        <pt x="530" y="940" on="1"/>
        <pt x="502" y="832" on="1"/>
      </contour>
      <contour>
        <pt x="650" y="0" on="1"/>
        <pt x="561" y="228" on="1"/>
        <pt x="561" y="227" on="1"/>
        <pt x="361" y="227" on="1"/>
        <pt x="302" y="0" on="1"/>
        <pt x="150" y="0" on="1"/>
        <pt x="350" y="769" on="1"/>
        <pt x="502" y="769" on="1"/>
        <pt x="802" y="0" on="1"/>
      </contour>
      <contour>
        <pt x="507" y="367" on="1"/>
        <pt x="441" y="535" on="1"/>
        <pt x="397" y="367" on="1"/>
      </contour>
    </TTGlyph>
    <TTGlyph name="Adieresis" xMin="50" yMin="0" xMax="702" yMax="975">
      <component glyphName="uni0308" x="326" y="335" flags="0x4"/>
      <component glyphName="A" x="0" y="0" flags="0x204"/>
    </TTGlyph>
    <TTGlyph name="Adieresis.0" xMin="60" yMin="0" xMax="712" yMax="975">
      <contour>
        <pt x="370" y="833" on="1"/>
        <pt x="370" y="975" on="1"/>
        <pt x="522" y="975" on="1"/>
        <pt x="522" y="833" on="1"/>
      </contour>
      <contour>
        <pt x="170" y="833" on="1"/>
        <pt x="170" y="975" on="1"/>
        <pt x="322" y="975" on="1"/>
        <pt x="322" y="833" on="1"/>
      </contour>
      <contour>
        <pt x="560" y="0" on="1"/>
        <pt x="471" y="228" on="1"/>
        <pt x="471" y="227" on="1"/>
        <pt x="271" y="227" on="1"/>
        <pt x="212" y="0" on="1"/>
        <pt x="60" y="0" on="1"/>
        <pt x="260" y="769" on="1"/>
        <pt x="412" y="769" on="1"/>
        <pt x="712" y="0" on="1"/>
      </contour>
      <contour>
        <pt x="417" y="367" on="1"/>
        <pt x="351" y="535" on="1"/>
        <pt x="307" y="367" on="1"/>
      </contour>
    </TTGlyph>
    <TTGlyph name="Adieresis.1" xMin="150" yMin="0" xMax="802" yMax="975">
      <contour>
        <pt x="550" y="833" on="1"/>
        <pt x="550" y="975" on="1"/>
        <pt x="702" y="975" on="1"/>
        <pt x="702" y="833" on="1"/>
      </contour>
      <contour>
        <pt x="350" y="833" on="1"/>
        <pt x="350" y="975" on="1"/>
        <pt x="502" y="975" on="1"/>
        <pt x="502" y="833" on="1"/>
      </contour>
      <contour>
        <pt x="650" y="0" on="1"/>
        <pt x="561" y="228" on="1"/>
        <pt x="561" y="227" on="1"/>
        <pt x="361" y="227" on="1"/>
        <pt x="302" y="0" on="1"/>
        <pt x="150" y="0" on="1"/>
        <pt x="350" y="769" on="1"/>
        <pt x="502" y="769" on="1"/>
        <pt x="802" y="0" on="1"/>
      </contour>
      <contour>
        <pt x="507" y="367" on="1"/>
        <pt x="441" y="535" on="1"/>
        <pt x="397" y="367" on="1"/>
      </contour>
    </TTGlyph>
    <TTGlyph name="Agrave" xMin="50" yMin="0" xMax="702" yMax="1122">
      <component glyphName="gravecomb" x="289" y="317" flags="0x4"/>
      <component glyphName="A" x="0" y="0" flags="0x204"/>
    </TTGlyph>
    <TTGlyph name="Agrave.0" xMin="60" yMin="0" xMax="712" yMax="1122">
      <contour>
        <pt x="346" y="833" on="1"/>
        <pt x="164" y="1015" on="1"/>
        <pt x="272" y="1122" on="1"/>
        <pt x="454" y="940" on="1"/>
      </contour>
      <contour>
        <pt x="560" y="0" on="1"/>
        <pt x="471" y="228" on="1"/>
        <pt x="471" y="227" on="1"/>
        <pt x="271" y="227" on="1"/>
        <pt x="212" y="0" on="1"/>
        <pt x="60" y="0" on="1"/>
        <pt x="260" y="769" on="1"/>
        <pt x="412" y="769" on="1"/>
        <pt x="712" y="0" on="1"/>
      </contour>
      <contour>
        <pt x="417" y="367" on="1"/>
        <pt x="351" y="535" on="1"/>
        <pt x="307" y="367" on="1"/>
      </contour>
    </TTGlyph>
    <TTGlyph name="Agrave.1" xMin="150" yMin="0" xMax="802" yMax="1122">
      <contour>
        <pt x="526" y="833" on="1"/>
        <pt x="344" y="1015" on="1"/>
        <pt x="452" y="1122" on="1"/>
        <pt x="634" y="940" on="1"/>
      </contour>
      <contour>
        <pt x="650" y="0" on="1"/>
        <pt x="561" y="228" on="1"/>
        <pt x="561" y="227" on="1"/>
        <pt x="361" y="227" on="1"/>
        <pt x="302" y="0" on="1"/>
        <pt x="150" y="0" on="1"/>
        <pt x="350" y="769" on="1"/>
        <pt x="502" y="769" on="1"/>
        <pt x="802" y="0" on="1"/>
      </contour>
      <contour>
        <pt x="507" y="367" on="1"/>
        <pt x="441" y="535" on="1"/>
        <pt x="397" y="367" on="1"/>
      </contour>
    </TTGlyph>
    <TTGlyph name="Amacron" xMin="50" yMin="0" xMax="702" yMax="909">
      <component glyphName="uni0304" x="326" y="51" flags="0x4"/>
      <component glyphName="A" x="0" y="0" flags="0x204"/>
    </TTGlyph>
    <TTGlyph name="Amacron.0" xMin="60" yMin="0" xMax="712" yMax="909">
      <contour>
        <pt x="482" y="909" on="1"/>
        <pt x="482" y="833" on="1"/>
        <pt x="210" y="833" on="1"/>
        <pt x="210" y="909" on="1"/>
      </contour>
      <contour>
        <pt x="560" y="0" on="1"/>
        <pt x="471" y="228" on="1"/>
        <pt x="471" y="227" on="1"/>
        <pt x="271" y="227" on="1"/>
        <pt x="212" y="0" on="1"/>
        <pt x="60" y="0" on="1"/>
        <pt x="260" y="769" on="1"/>
        <pt x="412" y="769" on="1"/>
        <pt x="712" y="0" on="1"/>
      </contour>
      <contour>
        <pt x="417" y="367" on="1"/>
        <pt x="351" y="535" on="1"/>
        <pt x="307" y="367" on="1"/>
      </contour>
    </TTGlyph>
    <TTGlyph name="Amacron.1" xMin="150" yMin="0" xMax="802" yMax="909">
      <contour>
        <pt x="662" y="909" on="1"/>
        <pt x="662" y="833" on="1"/>
        <pt x="390" y="833" on="1"/>
        <pt x="390" y="909" on="1"/>
      </contour>
      <contour>
        <pt x="650" y="0" on="1"/>
        <pt x="561" y="228" on="1"/>
        <pt x="561" y="227" on="1"/>
        <pt x="361" y="227" on="1"/>
        <pt x="302" y="0" on="1"/>
        <pt x="150" y="0" on="1"/>
        <pt x="350" y="769" on="1"/>
        <pt x="502" y="769" on="1"/>
        <pt x="802" y="0" on="1"/>
      </contour>
      <contour>
        <pt x="507" y="367" on="1"/>
        <pt x="441" y="535" on="1"/>
        <pt x="397" y="367" on="1"/>
      </contour>
    </TTGlyph>
    <TTGlyph name="Aogonek" xMin="50" yMin="-252" xMax="702" yMax="769">
      <component glyphName="uni0328" x="614" y="-184" flags="0x4"/>
      <component glyphName="A" x="0" y="0" flags="0x204"/>
    </TTGlyph>
    <TTGlyph name="Aogonek.0" xMin="60" yMin="-252" xMax="712" yMax="769">
      <contour>
        <pt x="705" y="-252" on="1"/>
        <pt x="705" y="-252" on="0"/>
        <pt x="692" y="-252" on="1"/>
        <pt x="638" y="-252" on="0"/>
        <pt x="601" y="-214" on="1"/>
        <pt x="563" y="-177" on="0"/>
        <pt x="563" y="-124" on="1"/>
        <pt x="563" y="-70" on="0"/>
        <pt x="601" y="-32" on="1"/>
        <pt x="638" y="5" on="0"/>
        <pt x="692" y="5" on="1"/>
        <pt x="705" y="5" on="1"/>
        <pt x="705" y="-72" on="1"/>
        <pt x="697" y="-70" on="0"/>
        <pt x="692" y="-70" on="1"/>
        <pt x="670" y="-70" on="0"/>
        <pt x="654" y="-86" on="1"/>
        <pt x="638" y="-102" on="0"/>
        <pt x="638" y="-124" on="1"/>
        <pt x="638" y="-146" on="0"/>
        <pt x="654" y="-161" on="1"/>
        <pt x="669" y="-177" on="0"/>
        <pt x="692" y="-177" on="1"/>
        <pt x="697" y="-177" on="0"/>
        <pt x="705" y="-175" on="1"/>
      </contour>
      <contour>
        <pt x="560" y="0" on="1"/>
        <pt x="471" y="228" on="1"/>
        <pt x="471" y="227" on="1"/>
        <pt x="271" y="227" on="1"/>
        <pt x="212" y="0" on="1"/>
        <pt x="60" y="0" on="1"/>
        <pt x="260" y="769" on="1"/>
        <pt x="412" y="769" on="1"/>
        <pt x="712" y="0" on="1"/>
      </contour>
      <contour>
        <pt x="417" y="367" on="1"/>
        <pt x="351" y="535" on="1"/>
        <pt x="307" y="367" on="1"/>
      </contour>
    </TTGlyph>
    <TTGlyph name="Aogonek.1" xMin="150" yMin="-252" xMax="885" yMax="769">
      <contour>
        <pt x="885" y="-252" on="1"/>
        <pt x="885" y="-252" on="0"/>
        <pt x="872" y="-252" on="1"/>
        <pt x="818" y="-252" on="0"/>
        <pt x="781" y="-214" on="1"/>
        <pt x="743" y="-177" on="0"/>
        <pt x="743" y="-124" on="1"/>
        <pt x="743" y="-70" on="0"/>
        <pt x="781" y="-32" on="1"/>
        <pt x="818" y="5" on="0"/>
        <pt x="872" y="5" on="1"/>
        <pt x="885" y="5" on="1"/>
        <pt x="885" y="-72" on="1"/>
        <pt x="877" y="-70" on="0"/>
        <pt x="872" y="-70" on="1"/>
        <pt x="850" y="-70" on="0"/>
        <pt x="834" y="-86" on="1"/>
        <pt x="818" y="-102" on="0"/>
        <pt x="818" y="-124" on="1"/>
        <pt x="818" y="-146" on="0"/>
        <pt x="834" y="-161" on="1"/>
        <pt x="849" y="-177" on="0"/>
        <pt x="872" y="-177" on="1"/>
        <pt x="877" y="-177" on="0"/>
        <pt x="885" y="-175" on="1"/>
      </contour>
      <contour>
        <pt x="650" y="0" on="1"/>
        <pt x="561" y="228" on="1"/>
        <pt x="561" y="227" on="1"/>
        <pt x="361" y="227" on="1"/>
        <pt x="302" y="0" on="1"/>
        <pt x="150" y="0" on="1"/>
        <pt x="350" y="769" on="1"/>
        <pt x="502" y="769" on="1"/>
        <pt x="802" y="0" on="1"/>
      </contour>
      <contour>
        <pt x="507" y="367" on="1"/>
        <pt x="441" y="535" on="1"/>
        <pt x="397" y="367" on="1"/>
      </contour>
    </TTGlyph>
    <TTGlyph name="Aring" xMin="50" yMin="0" xMax="702" yMax="1049">
      <component glyphName="uni030A" x="326" y="360" flags="0x4"/>
      <component glyphName="A" x="0" y="0" flags="0x204"/>
    </TTGlyph>
    <TTGlyph name="Aring.0" xMin="60" yMin="0" xMax="712" yMax="1049">
      <contour>
        <pt x="345" y="792" on="1"/>
        <pt x="345" y="792" on="0"/>
        <pt x="343" y="792" on="1"/>
        <pt x="343" y="792" on="0"/>
        <pt x="336" y="792" on="1"/>
        <pt x="285" y="796" on="0"/>
        <pt x="251" y="833" on="1"/>
        <pt x="216" y="869" on="0"/>
        <pt x="216" y="920" on="1"/>
        <pt x="216" y="971" on="0"/>
        <pt x="251" y="1008" on="1"/>
        <pt x="286" y="1045" on="0"/>
        <pt x="336" y="1049" on="1"/>
        <pt x="343" y="1049" on="1"/>
        <pt x="343" y="1049" on="0"/>
        <pt x="345" y="1049" on="1"/>
        <pt x="345" y="1049" on="0"/>
        <pt x="347" y="1049" on="1"/>
        <pt x="401" y="1049" on="0"/>
        <pt x="439" y="1012" on="1"/>
        <pt x="476" y="974" on="0"/>
        <pt x="476" y="920" on="1"/>
        <pt x="476" y="867" on="0"/>
        <pt x="439" y="830" on="1"/>
        <pt x="401" y="792" on="0"/>
        <pt x="347" y="792" on="1"/>
      </contour>
      <contour>
        <pt x="346" y="974" on="1"/>
        <pt x="342" y="974" on="0"/>
        <pt x="334" y="972" on="1"/>
        <pt x="334" y="973" on="1"/>
        <pt x="315" y="969" on="0"/>
        <pt x="304" y="955" on="1"/>
        <pt x="292" y="940" on="0"/>
        <pt x="292" y="920" on="1"/>
        <pt x="292" y="901" on="0"/>
        <pt x="304" y="887" on="1"/>
        <pt x="315" y="872" on="0"/>
        <pt x="334" y="868" on="1"/>
        <pt x="334" y="869" on="1"/>
        <pt x="342" y="867" on="0"/>
        <pt x="346" y="867" on="1"/>
        <pt x="350" y="867" on="0"/>
        <pt x="358" y="869" on="1"/>
        <pt x="358" y="868" on="1"/>
        <pt x="377" y="872" on="0"/>
        <pt x="389" y="887" on="1"/>
        <pt x="400" y="901" on="0"/>
        <pt x="400" y="920" on="1"/>
        <pt x="400" y="940" on="0"/>
        <pt x="389" y="955" on="1"/>
        <pt x="377" y="969" on="0"/>
        <pt x="358" y="973" on="1"/>
        <pt x="358" y="972" on="1"/>
        <pt x="350" y="974" on="0"/>
      </contour>
      <contour>
        <pt x="560" y="0" on="1"/>
        <pt x="471" y="228" on="1"/>
        <pt x="471" y="227" on="1"/>
        <pt x="271" y="227" on="1"/>
        <pt x="212" y="0" on="1"/>
        <pt x="60" y="0" on="1"/>
        <pt x="260" y="769" on="1"/>
        <pt x="412" y="769" on="1"/>
        <pt x="712" y="0" on="1"/>
      </contour>
      <contour>
        <pt x="417" y="367" on="1"/>
        <pt x="351" y="535" on="1"/>
        <pt x="307" y="367" on="1"/>
      </contour>
    </TTGlyph>
    <TTGlyph name="Aring.1" xMin="150" yMin="0" xMax="802" yMax="1049">
      <contour>
        <pt x="525" y="792" on="1"/>
        <pt x="525" y="792" on="0"/>
        <pt x="523" y="792" on="1"/>
        <pt x="523" y="792" on="0"/>
        <pt x="516" y="792" on="1"/>
        <pt x="465" y="796" on="0"/>
        <pt x="431" y="833" on="1"/>
        <pt x="396" y="869" on="0"/>
        <pt x="396" y="920" on="1"/>
        <pt x="396" y="971" on="0"/>
        <pt x="431" y="1008" on="1"/>
        <pt x="466" y="1045" on="0"/>
        <pt x="516" y="1049" on="1"/>
        <pt x="523" y="1049" on="1"/>
        <pt x="523" y="1049" on="0"/>
        <pt x="525" y="1049" on="1"/>
        <pt x="525" y="1049" on="0"/>
        <pt x="527" y="1049" on="1"/>
        <pt x="581" y="1049" on="0"/>
        <pt x="619" y="1012" on="1"/>
        <pt x="656" y="974" on="0"/>
        <pt x="656" y="920" on="1"/>
        <pt x="656" y="867" on="0"/>
        <pt x="619" y="830" on="1"/>
        <pt x="581" y="792" on="0"/>
        <pt x="527" y="792" on="1"/>
      </contour>
      <contour>
        <pt x="526" y="974" on="1"/>
        <pt x="522" y="974" on="0"/>
        <pt x="514" y="972" on="1"/>
        <pt x="514" y="973" on="1"/>
        <pt x="495" y="969" on="0"/>
        <pt x="484" y="955" on="1"/>
        <pt x="472" y="940" on="0"/>
        <pt x="472" y="920" on="1"/>
        <pt x="472" y="901" on="0"/>
        <pt x="484" y="887" on="1"/>
        <pt x="495" y="872" on="0"/>
        <pt x="514" y="868" on="1"/>
        <pt x="514" y="869" on="1"/>
        <pt x="522" y="867" on="0"/>
        <pt x="526" y="867" on="1"/>
        <pt x="530" y="867" on="0"/>
        <pt x="538" y="869" on="1"/>
        <pt x="538" y="868" on="1"/>
        <pt x="557" y="872" on="0"/>
        <pt x="569" y="887" on="1"/>
        <pt x="580" y="901" on="0"/>
        <pt x="580" y="920" on="1"/>
        <pt x="580" y="940" on="0"/>
        <pt x="569" y="955" on="1"/>
        <pt x="557" y="969" on="0"/>
        <pt x="538" y="973" on="1"/>
        <pt x="538" y="972" on="1"/>
        <pt x="530" y="974" on="0"/>
      </contour>
      <contour>
        <pt x="650" y="0" on="1"/>
        <pt x="561" y="228" on="1"/>
        <pt x="561" y="227" on="1"/>
        <pt x="361" y="227" on="1"/>
        <pt x="302" y="0" on="1"/>
        <pt x="150" y="0" on="1"/>
        <pt x="350" y="769" on="1"/>
        <pt x="502" y="769" on="1"/>
        <pt x="802" y="0" on="1"/>
      </contour>
      <contour>
        <pt x="507" y="367" on="1"/>
        <pt x="441" y="535" on="1"/>
        <pt x="397" y="367" on="1"/>
      </contour>
    </TTGlyph>
    <TTGlyph name="Atilde" xMin="50" yMin="0" xMax="702" yMax="950">
      <component glyphName="tildecomb" x="326" y="31" flags="0x4"/>
      <component glyphName="A" x="0" y="0" flags="0x204"/>
    </TTGlyph>
    <TTGlyph name="Atilde.0" xMin="60" yMin="0" xMax="712" yMax="950">
      <contour>
        <pt x="471" y="950" on="1"/>
        <pt x="471" y="874" on="1"/>
        <pt x="470" y="872" on="0"/>
        <pt x="463" y="863" on="1"/>
        <pt x="455" y="854" on="0"/>
        <pt x="439" y="844" on="1"/>
        <pt x="423" y="833" on="0"/>
        <pt x="407" y="833" on="1"/>
        <pt x="357" y="833" on="1"/>
        <pt x="341" y="833" on="0"/>
        <pt x="319" y="847" on="1"/>
        <pt x="296" y="861" on="0"/>
        <pt x="280" y="861" on="1"/>
        <pt x="269" y="861" on="0"/>
        <pt x="254" y="854" on="1"/>
        <pt x="239" y="847" on="0"/>
        <pt x="230" y="840" on="1"/>
        <pt x="221" y="833" on="1"/>
        <pt x="221" y="909" on="1"/>
        <pt x="253" y="937" on="0"/>
        <pt x="278" y="937" on="1"/>
        <pt x="295" y="937" on="0"/>
        <pt x="319" y="924" on="1"/>
        <pt x="342" y="910" on="0"/>
        <pt x="358" y="910" on="1"/>
        <pt x="381" y="910" on="0"/>
        <pt x="403" y="910" on="1"/>
        <pt x="418" y="910" on="0"/>
        <pt x="435" y="920" on="1"/>
        <pt x="452" y="930" on="0"/>
        <pt x="461" y="940" on="1"/>
      </contour>
      <contour>
        <pt x="560" y="0" on="1"/>
        <pt x="471" y="228" on="1"/>
        <pt x="471" y="227" on="1"/>
        <pt x="271" y="227" on="1"/>
        <pt x="212" y="0" on="1"/>
        <pt x="60" y="0" on="1"/>
        <pt x="260" y="769" on="1"/>
        <pt x="412" y="769" on="1"/>
        <pt x="712" y="0" on="1"/>
      </contour>
      <contour>
        <pt x="417" y="367" on="1"/>
        <pt x="351" y="535" on="1"/>
        <pt x="307" y="367" on="1"/>
      </contour>
    </TTGlyph>
    <TTGlyph name="Atilde.1" xMin="150" yMin="0" xMax="802" yMax="950">
      <contour>
        <pt x="651" y="950" on="1"/>
        <pt x="651" y="874" on="1"/>
        <pt x="650" y="872" on="0"/>
        <pt x="643" y="863" on="1"/>
        <pt x="635" y="854" on="0"/>
        <pt x="619" y="844" on="1"/>
        <pt x="603" y="833" on="0"/>
        <pt x="587" y="833" on="1"/>
        <pt x="537" y="833" on="1"/>
        <pt x="521" y="833" on="0"/>
        <pt x="499" y="847" on="1"/>
        <pt x="476" y="861" on="0"/>
        <pt x="460" y="861" on="1"/>
        <pt x="449" y="861" on="0"/>
        <pt x="434" y="854" on="1"/>
        <pt x="419" y="847" on="0"/>
        <pt x="410" y="840" on="1"/>
        <pt x="401" y="833" on="1"/>
        <pt x="401" y="909" on="1"/>
        <pt x="433" y="937" on="0"/>
        <pt x="458" y="937" on="1"/>
        <pt x="475" y="937" on="0"/>
        <pt x="499" y="924" on="1"/>
        <pt x="522" y="910" on="0"/>
        <pt x="538" y="910" on="1"/>
        <pt x="561" y="910" on="0"/>
        <pt x="583" y="910" on="1"/>
        <pt x="598" y="910" on="0"/>
        <pt x="615" y="920" on="1"/>
        <pt x="632" y="930" on="0"/>
        <pt x="641" y="940" on="1"/>
      </contour>
      <contour>
        <pt x="650" y="0" on="1"/>
        <pt x="561" y="228" on="1"/>
        <pt x="561" y="227" on="1"/>
        <pt x="361" y="227" on="1"/>
        <pt x="302" y="0" on="1"/>
        <pt x="150" y="0" on="1"/>
        <pt x="350" y="769" on="1"/>
        <pt x="502" y="769" on="1"/>
        <pt x="802" y="0" on="1"/>
      </contour>
      <contour>
        <pt x="507" y="367" on="1"/>
        <pt x="441" y="535" on="1"/>
        <pt x="397" y="367" on="1"/>
      </contour>
    </TTGlyph>
    <TTGlyph name="B" xMin="50" yMin="3" xMax="484" yMax="780">
      <contour>
        <pt x="202" y="780" on="1"/>
        <pt x="50" y="780" on="1"/>
        <pt x="50" y="4" on="1"/>
        <pt x="202" y="4" on="1"/>
        <pt x="210" y="3" on="0"/>
        <pt x="226" y="3" on="1"/>
        <pt x="333" y="3" on="0"/>
        <pt x="484" y="153" on="0"/>
        <pt x="484" y="260" on="1"/>
        <pt x="484" y="285" on="0"/>
        <pt x="458" y="330" on="0"/>
        <pt x="397" y="394" on="0"/>
        <pt x="395" y="396" on="1"/>
        <pt x="401" y="403" on="0"/>
        <pt x="450" y="455" on="0"/>
        <pt x="478" y="499" on="0"/>
        <pt x="478" y="522" on="1"/>
        <pt x="478" y="629" on="0"/>
        <pt x="327" y="780" on="0"/>
        <pt x="220" y="780" on="1"/>
        <pt x="208" y="780" on="0"/>
      </contour>
      <contour>
        <pt x="202" y="136" on="1"/>
        <pt x="202" y="343" on="1"/>
        <pt x="214" y="346" on="0"/>
        <pt x="226" y="346" on="1"/>
        <pt x="271" y="346" on="0"/>
        <pt x="333" y="284" on="0"/>
        <pt x="333" y="239" on="1"/>
        <pt x="333" y="195" on="0"/>
        <pt x="271" y="133" on="0"/>
        <pt x="226" y="133" on="1"/>
        <pt x="214" y="133" on="0"/>
      </contour>
      <contour>
        <pt x="202" y="454" on="1"/>
        <pt x="202" y="661" on="1"/>
        <pt x="214" y="664" on="0"/>
        <pt x="226" y="664" on="1"/>
        <pt x="271" y="664" on="0"/>
        <pt x="333" y="602" on="0"/>
        <pt x="333" y="557" on="1"/>
        <pt x="333" y="513" on="0"/>
        <pt x="271" y="451" on="0"/>
        <pt x="226" y="451" on="1"/>
        <pt x="214" y="451" on="0"/>
      </contour>
    </TTGlyph>
    <TTGlyph name="B.0" xMin="60" yMin="3" xMax="494" yMax="780">
      <contour>
        <pt x="212" y="780" on="1"/>
        <pt x="218" y="780" on="0"/>
        <pt x="230" y="780" on="1"/>
        <pt x="337" y="780" on="0"/>
        <pt x="413" y="705" on="1"/>
        <pt x="488" y="629" on="0"/>
        <pt x="488" y="522" on="1"/>
        <pt x="488" y="499" on="0"/>
        <pt x="474" y="477" on="1"/>
        <pt x="460" y="455" on="0"/>
        <pt x="436" y="429" on="1"/>
        <pt x="411" y="403" on="0"/>
        <pt x="405" y="396" on="1"/>
        <pt x="407" y="394" on="0"/>
        <pt x="438" y="362" on="1"/>
        <pt x="468" y="330" on="0"/>
        <pt x="481" y="308" on="1"/>
        <pt x="494" y="285" on="0"/>
        <pt x="494" y="260" on="1"/>
        <pt x="494" y="153" on="0"/>
        <pt x="419" y="78" on="1"/>
        <pt x="343" y="3" on="0"/>
        <pt x="236" y="3" on="1"/>
        <pt x="220" y="3" on="0"/>
        <pt x="212" y="4" on="1"/>
        <pt x="60" y="4" on="1"/>
        <pt x="60" y="780" on="1"/>
      </contour>
      <contour>
        <pt x="212" y="136" on="1"/>
        <pt x="224" y="133" on="0"/>
        <pt x="236" y="133" on="1"/>
        <pt x="281" y="133" on="0"/>
        <pt x="312" y="164" on="1"/>
        <pt x="343" y="195" on="0"/>
        <pt x="343" y="239" on="1"/>
        <pt x="343" y="284" on="0"/>
        <pt x="312" y="315" on="1"/>
        <pt x="281" y="346" on="0"/>
        <pt x="236" y="346" on="1"/>
        <pt x="224" y="346" on="0"/>
        <pt x="212" y="343" on="1"/>
      </contour>
      <contour>
        <pt x="212" y="454" on="1"/>
        <pt x="224" y="451" on="0"/>
        <pt x="236" y="451" on="1"/>
        <pt x="281" y="451" on="0"/>
        <pt x="312" y="482" on="1"/>
        <pt x="343" y="513" on="0"/>
        <pt x="343" y="557" on="1"/>
        <pt x="343" y="602" on="0"/>
        <pt x="312" y="633" on="1"/>
        <pt x="281" y="664" on="0"/>
        <pt x="236" y="664" on="1"/>
        <pt x="224" y="664" on="0"/>
        <pt x="212" y="661" on="1"/>
      </contour>
    </TTGlyph>
    <TTGlyph name="B.1" xMin="150" yMin="3" xMax="584" yMax="780">
      <component glyphName="B.0" x="90" y="0" flags="0x4"/>
    </TTGlyph>
    <TTGlyph name="B.2" xMin="150" yMin="3" xMax="584" yMax="780">
      <component glyphName="B.0" x="90" y="0" flags="0x4"/>
    </TTGlyph>
    <TTGlyph name="C" xMin="50" yMin="-14" xMax="505" yMax="773">
      <contour>
        <pt x="432" y="612" on="1"/>
        <pt x="470" y="612" on="0"/>
        <pt x="505" y="600" on="1"/>
        <pt x="505" y="766" on="1"/>
        <pt x="469" y="773" on="0"/>
        <pt x="432" y="773" on="1"/>
        <pt x="274" y="773" on="0"/>
        <pt x="50" y="543" on="0"/>
        <pt x="50" y="217" on="0"/>
        <pt x="274" y="-14" on="0"/>
        <pt x="432" y="-14" on="1"/>
        <pt x="469" y="-14" on="0"/>
        <pt x="505" y="-7" on="1"/>
        <pt x="505" y="155" on="1"/>
        <pt x="470" y="143" on="0"/>
        <pt x="432" y="143" on="1"/>
        <pt x="337" y="143" on="0"/>
        <pt x="203" y="280" on="0"/>
        <pt x="203" y="378" on="1"/>
        <pt x="203" y="475" on="0"/>
        <pt x="337" y="612" on="0"/>
      </contour>
    </TTGlyph>
    <TTGlyph name="C.0" xMin="60" yMin="-14" xMax="515" yMax="773">
      <contour>
        <pt x="442" y="612" on="1"/>
        <pt x="347" y="612" on="0"/>
        <pt x="280" y="544" on="1"/>
        <pt x="213" y="475" on="0"/>
        <pt x="213" y="378" on="1"/>
        <pt x="213" y="280" on="0"/>
        <pt x="280" y="212" on="1"/>
        <pt x="347" y="143" on="0"/>
        <pt x="442" y="143" on="1"/>
        <pt x="480" y="143" on="0"/>
        <pt x="515" y="155" on="1"/>
        <pt x="515" y="-7" on="1"/>
        <pt x="479" y="-14" on="0"/>
        <pt x="442" y="-14" on="1"/>
        <pt x="284" y="-14" on="0"/>
        <pt x="172" y="102" on="1"/>
        <pt x="60" y="217" on="0"/>
        <pt x="60" y="380" on="1"/>
        <pt x="60" y="543" on="0"/>
        <pt x="172" y="658" on="1"/>
        <pt x="284" y="773" on="0"/>
        <pt x="442" y="773" on="1"/>
        <pt x="479" y="773" on="0"/>
        <pt x="515" y="766" on="1"/>
        <pt x="515" y="600" on="1"/>
        <pt x="480" y="612" on="0"/>
      </contour>
    </TTGlyph>
    <TTGlyph name="C.1" xMin="150" yMin="-14" xMax="605" yMax="773">
      <component glyphName="C.0" x="90" y="0" flags="0x4"/>
    </TTGlyph>
    <TTGlyph name="C.2" xMin="150" yMin="-14" xMax="605" yMax="773">
      <component glyphName="C.0" x="90" y="0" flags="0x4"/>
    </TTGlyph>
    <TTGlyph name="Cacute" xMin="50" yMin="-14" xMax="614" yMax="1122">
      <component glyphName="acutecomb" x="469" y="317" flags="0x4"/>
      <component glyphName="C" x="0" y="0" flags="0x204"/>
    </TTGlyph>
    <TTGlyph name="Cacute.0" xMin="60" yMin="-14" xMax="634" yMax="1122">
      <contour>
        <pt x="452" y="833" on="1"/>
        <pt x="344" y="940" on="1"/>
        <pt x="526" y="1122" on="1"/>
        <pt x="634" y="1015" on="1"/>
      </contour>
      <contour>
        <pt x="442" y="612" on="1"/>
        <pt x="347" y="612" on="0"/>
        <pt x="280" y="544" on="1"/>
        <pt x="213" y="475" on="0"/>
        <pt x="213" y="378" on="1"/>
        <pt x="213" y="280" on="0"/>
        <pt x="280" y="212" on="1"/>
        <pt x="347" y="143" on="0"/>
        <pt x="442" y="143" on="1"/>
        <pt x="480" y="143" on="0"/>
        <pt x="515" y="155" on="1"/>
        <pt x="515" y="-7" on="1"/>
        <pt x="479" y="-14" on="0"/>
        <pt x="442" y="-14" on="1"/>
        <pt x="284" y="-14" on="0"/>
        <pt x="172" y="102" on="1"/>
        <pt x="60" y="217" on="0"/>
        <pt x="60" y="380" on="1"/>
        <pt x="60" y="543" on="0"/>
        <pt x="172" y="658" on="1"/>
        <pt x="284" y="773" on="0"/>
        <pt x="442" y="773" on="1"/>
        <pt x="479" y="773" on="0"/>
        <pt x="515" y="766" on="1"/>
        <pt x="515" y="600" on="1"/>
        <pt x="480" y="612" on="0"/>
      </contour>
    </TTGlyph>
    <TTGlyph name="Cacute.1" xMin="150" yMin="-14" xMax="814" yMax="1122">
      <contour>
        <pt x="632" y="833" on="1"/>
        <pt x="524" y="940" on="1"/>
        <pt x="706" y="1122" on="1"/>
        <pt x="814" y="1015" on="1"/>
      </contour>
      <contour>
        <pt x="532" y="612" on="1"/>
        <pt x="437" y="612" on="0"/>
        <pt x="370" y="544" on="1"/>
        <pt x="303" y="475" on="0"/>
        <pt x="303" y="378" on="1"/>
        <pt x="303" y="280" on="0"/>
        <pt x="370" y="212" on="1"/>
        <pt x="437" y="143" on="0"/>
        <pt x="532" y="143" on="1"/>
        <pt x="570" y="143" on="0"/>
        <pt x="605" y="155" on="1"/>
        <pt x="605" y="-7" on="1"/>
        <pt x="569" y="-14" on="0"/>
        <pt x="532" y="-14" on="1"/>
        <pt x="374" y="-14" on="0"/>
        <pt x="262" y="102" on="1"/>
        <pt x="150" y="217" on="0"/>
        <pt x="150" y="380" on="1"/>
        <pt x="150" y="543" on="0"/>
        <pt x="262" y="658" on="1"/>
        <pt x="374" y="773" on="0"/>
        <pt x="532" y="773" on="1"/>
        <pt x="569" y="773" on="0"/>
        <pt x="605" y="766" on="1"/>
        <pt x="605" y="600" on="1"/>
        <pt x="570" y="612" on="0"/>
      </contour>
    </TTGlyph>
    <TTGlyph name="Ccaron" xMin="50" yMin="-14" xMax="532" yMax="1001">
      <component glyphName="uni030C" x="432" y="67" flags="0x4"/>
      <component glyphName="C" x="0" y="0" flags="0x204"/>
    </TTGlyph>
    <TTGlyph name="Ccaron.0" xMin="60" yMin="-14" xMax="552" yMax="1001">
      <contour>
        <pt x="352" y="1001" on="1"/>
        <pt x="428" y="1001" on="1"/>
        <pt x="456" y="893" on="1"/>
        <pt x="476" y="1001" on="1"/>
        <pt x="552" y="1001" on="1"/>
        <pt x="500" y="833" on="1"/>
        <pt x="499" y="833" on="1"/>
        <pt x="424" y="833" on="1"/>
        <pt x="423" y="833" on="1"/>
      </contour>
      <contour>
        <pt x="442" y="612" on="1"/>
        <pt x="347" y="612" on="0"/>
        <pt x="280" y="544" on="1"/>
        <pt x="213" y="475" on="0"/>
        <pt x="213" y="378" on="1"/>
        <pt x="213" y="280" on="0"/>
        <pt x="280" y="212" on="1"/>
        <pt x="347" y="143" on="0"/>
        <pt x="442" y="143" on="1"/>
        <pt x="480" y="143" on="0"/>
        <pt x="515" y="155" on="1"/>
        <pt x="515" y="-7" on="1"/>
        <pt x="479" y="-14" on="0"/>
        <pt x="442" y="-14" on="1"/>
        <pt x="284" y="-14" on="0"/>
        <pt x="172" y="102" on="1"/>
        <pt x="60" y="217" on="0"/>
        <pt x="60" y="380" on="1"/>
        <pt x="60" y="543" on="0"/>
        <pt x="172" y="658" on="1"/>
        <pt x="284" y="773" on="0"/>
        <pt x="442" y="773" on="1"/>
        <pt x="479" y="773" on="0"/>
        <pt x="515" y="766" on="1"/>
        <pt x="515" y="600" on="1"/>
        <pt x="480" y="612" on="0"/>
      </contour>
    </TTGlyph>
    <TTGlyph name="Ccaron.1" xMin="150" yMin="-14" xMax="732" yMax="1001">
      <contour>
        <pt x="532" y="1001" on="1"/>
        <pt x="608" y="1001" on="1"/>
        <pt x="636" y="893" on="1"/>
        <pt x="656" y="1001" on="1"/>
        <pt x="732" y="1001" on="1"/>
        <pt x="680" y="833" on="1"/>
        <pt x="679" y="833" on="1"/>
        <pt x="604" y="833" on="1"/>
        <pt x="603" y="833" on="1"/>
      </contour>
      <contour>
        <pt x="532" y="612" on="1"/>
        <pt x="437" y="612" on="0"/>
        <pt x="370" y="544" on="1"/>
        <pt x="303" y="475" on="0"/>
        <pt x="303" y="378" on="1"/>
        <pt x="303" y="280" on="0"/>
        <pt x="370" y="212" on="1"/>
        <pt x="437" y="143" on="0"/>
        <pt x="532" y="143" on="1"/>
        <pt x="570" y="143" on="0"/>
        <pt x="605" y="155" on="1"/>
        <pt x="605" y="-7" on="1"/>
        <pt x="569" y="-14" on="0"/>
        <pt x="532" y="-14" on="1"/>
        <pt x="374" y="-14" on="0"/>
        <pt x="262" y="102" on="1"/>
        <pt x="150" y="217" on="0"/>
        <pt x="150" y="380" on="1"/>
        <pt x="150" y="543" on="0"/>
        <pt x="262" y="658" on="1"/>
        <pt x="374" y="773" on="0"/>
        <pt x="532" y="773" on="1"/>
        <pt x="569" y="773" on="0"/>
        <pt x="605" y="766" on="1"/>
        <pt x="605" y="600" on="1"/>
        <pt x="570" y="612" on="0"/>
      </contour>
    </TTGlyph>
    <TTGlyph name="Ccedilla" xMin="50" yMin="-262" xMax="567" yMax="773">
      <component glyphName="uni0327" x="496" y="-194" flags="0x4"/>
      <component glyphName="C" x="0" y="0" flags="0x204"/>
    </TTGlyph>
    <TTGlyph name="Ccedilla.0" xMin="60" yMin="-262" xMax="587" yMax="773">
      <contour>
        <pt x="445" y="-262" on="1"/>
        <pt x="445" y="-185" on="1"/>
        <pt x="453" y="-187" on="0"/>
        <pt x="458" y="-187" on="1"/>
        <pt x="481" y="-187" on="0"/>
        <pt x="497" y="-171" on="1"/>
        <pt x="512" y="-156" on="0"/>
        <pt x="512" y="-134" on="1"/>
        <pt x="512" y="-112" on="0"/>
        <pt x="496" y="-96" on="1"/>
        <pt x="480" y="-80" on="0"/>
        <pt x="458" y="-80" on="1"/>
        <pt x="453" y="-80" on="0"/>
        <pt x="445" y="-82" on="1"/>
        <pt x="445" y="-5" on="1"/>
        <pt x="458" y="-5" on="1"/>
        <pt x="512" y="-5" on="0"/>
        <pt x="550" y="-42" on="1"/>
        <pt x="587" y="-80" on="0"/>
        <pt x="587" y="-134" on="1"/>
        <pt x="587" y="-187" on="0"/>
        <pt x="550" y="-224" on="1"/>
        <pt x="512" y="-262" on="0"/>
        <pt x="458" y="-262" on="1"/>
      </contour>
      <contour>
        <pt x="442" y="612" on="1"/>
        <pt x="347" y="612" on="0"/>
        <pt x="280" y="544" on="1"/>
        <pt x="213" y="475" on="0"/>
        <pt x="213" y="378" on="1"/>
        <pt x="213" y="280" on="0"/>
        <pt x="280" y="212" on="1"/>
        <pt x="347" y="143" on="0"/>
        <pt x="442" y="143" on="1"/>
        <pt x="480" y="143" on="0"/>
        <pt x="515" y="155" on="1"/>
        <pt x="515" y="-7" on="1"/>
        <pt x="479" y="-14" on="0"/>
        <pt x="442" y="-14" on="1"/>
        <pt x="284" y="-14" on="0"/>
        <pt x="172" y="102" on="1"/>
        <pt x="60" y="217" on="0"/>
        <pt x="60" y="380" on="1"/>
        <pt x="60" y="543" on="0"/>
        <pt x="172" y="658" on="1"/>
        <pt x="284" y="773" on="0"/>
        <pt x="442" y="773" on="1"/>
        <pt x="479" y="773" on="0"/>
        <pt x="515" y="766" on="1"/>
        <pt x="515" y="600" on="1"/>
        <pt x="480" y="612" on="0"/>
      </contour>
    </TTGlyph>
    <TTGlyph name="Ccedilla.1" xMin="150" yMin="-262" xMax="767" yMax="773">
      <contour>
        <pt x="625" y="-262" on="1"/>
        <pt x="625" y="-185" on="1"/>
        <pt x="633" y="-187" on="0"/>
        <pt x="638" y="-187" on="1"/>
        <pt x="661" y="-187" on="0"/>
        <pt x="677" y="-171" on="1"/>
        <pt x="692" y="-156" on="0"/>
        <pt x="692" y="-134" on="1"/>
        <pt x="692" y="-112" on="0"/>
        <pt x="676" y="-96" on="1"/>
        <pt x="660" y="-80" on="0"/>
        <pt x="638" y="-80" on="1"/>
        <pt x="633" y="-80" on="0"/>
        <pt x="625" y="-82" on="1"/>
        <pt x="625" y="-5" on="1"/>
        <pt x="638" y="-5" on="1"/>
        <pt x="692" y="-5" on="0"/>
        <pt x="730" y="-42" on="1"/>
        <pt x="767" y="-80" on="0"/>
        <pt x="767" y="-134" on="1"/>
        <pt x="767" y="-187" on="0"/>
        <pt x="730" y="-224" on="1"/>
        <pt x="692" y="-262" on="0"/>
        <pt x="638" y="-262" on="1"/>
      </contour>
      <contour>
        <pt x="532" y="612" on="1"/>
        <pt x="437" y="612" on="0"/>
        <pt x="370" y="544" on="1"/>
        <pt x="303" y="475" on="0"/>
        <pt x="303" y="378" on="1"/>
        <pt x="303" y="280" on="0"/>
        <pt x="370" y="212" on="1"/>
        <pt x="437" y="143" on="0"/>
        <pt x="532" y="143" on="1"/>
        <pt x="570" y="143" on="0"/>
        <pt x="605" y="155" on="1"/>
        <pt x="605" y="-7" on="1"/>
        <pt x="569" y="-14" on="0"/>
        <pt x="532" y="-14" on="1"/>
        <pt x="374" y="-14" on="0"/>
        <pt x="262" y="102" on="1"/>
        <pt x="150" y="217" on="0"/>
        <pt x="150" y="380" on="1"/>
        <pt x="150" y="543" on="0"/>
        <pt x="262" y="658" on="1"/>
        <pt x="374" y="773" on="0"/>
        <pt x="532" y="773" on="1"/>
        <pt x="569" y="773" on="0"/>
        <pt x="605" y="766" on="1"/>
        <pt x="605" y="600" on="1"/>
        <pt x="570" y="612" on="0"/>
      </contour>
    </TTGlyph>
    <TTGlyph name="Ccircumflex" xMin="50" yMin="-14" xMax="532" yMax="1000">
      <component glyphName="uni0302" x="432" y="66" flags="0x4"/>
      <component glyphName="C" x="0" y="0" flags="0x204"/>
    </TTGlyph>
    <TTGlyph name="Ccircumflex.0" xMin="60" yMin="-14" xMax="552" yMax="1000">
      <contour>
        <pt x="352" y="832" on="1"/>
        <pt x="423" y="1000" on="1"/>
        <pt x="424" y="1000" on="1"/>
        <pt x="499" y="1000" on="1"/>
        <pt x="500" y="1000" on="1"/>
        <pt x="552" y="832" on="1"/>
        <pt x="476" y="832" on="1"/>
        <pt x="456" y="940" on="1"/>
        <pt x="428" y="832" on="1"/>
      </contour>
      <contour>
        <pt x="442" y="612" on="1"/>
        <pt x="347" y="612" on="0"/>
        <pt x="280" y="544" on="1"/>
        <pt x="213" y="475" on="0"/>
        <pt x="213" y="378" on="1"/>
        <pt x="213" y="280" on="0"/>
        <pt x="280" y="212" on="1"/>
        <pt x="347" y="143" on="0"/>
        <pt x="442" y="143" on="1"/>
        <pt x="480" y="143" on="0"/>
        <pt x="515" y="155" on="1"/>
        <pt x="515" y="-7" on="1"/>
        <pt x="479" y="-14" on="0"/>
        <pt x="442" y="-14" on="1"/>
        <pt x="284" y="-14" on="0"/>
        <pt x="172" y="102" on="1"/>
        <pt x="60" y="217" on="0"/>
        <pt x="60" y="380" on="1"/>
        <pt x="60" y="543" on="0"/>
        <pt x="172" y="658" on="1"/>
        <pt x="284" y="773" on="0"/>
        <pt x="442" y="773" on="1"/>
        <pt x="479" y="773" on="0"/>
        <pt x="515" y="766" on="1"/>
        <pt x="515" y="600" on="1"/>
        <pt x="480" y="612" on="0"/>
      </contour>
    </TTGlyph>
    <TTGlyph name="Ccircumflex.1" xMin="150" yMin="-14" xMax="732" yMax="1000">
      <contour>
        <pt x="532" y="832" on="1"/>
        <pt x="603" y="1000" on="1"/>
        <pt x="604" y="1000" on="1"/>
        <pt x="679" y="1000" on="1"/>
        <pt x="680" y="1000" on="1"/>
        <pt x="732" y="832" on="1"/>
        <pt x="656" y="832" on="1"/>
        <pt x="636" y="940" on="1"/>
        <pt x="608" y="832" on="1"/>
      </contour>
      <contour>
        <pt x="532" y="612" on="1"/>
        <pt x="437" y="612" on="0"/>
        <pt x="370" y="544" on="1"/>
        <pt x="303" y="475" on="0"/>
        <pt x="303" y="378" on="1"/>
        <pt x="303" y="280" on="0"/>
        <pt x="370" y="212" on="1"/>
        <pt x="437" y="143" on="0"/>
        <pt x="532" y="143" on="1"/>
        <pt x="570" y="143" on="0"/>
        <pt x="605" y="155" on="1"/>
        <pt x="605" y="-7" on="1"/>
        <pt x="569" y="-14" on="0"/>
        <pt x="532" y="-14" on="1"/>
        <pt x="374" y="-14" on="0"/>
        <pt x="262" y="102" on="1"/>
        <pt x="150" y="217" on="0"/>
        <pt x="150" y="380" on="1"/>
        <pt x="150" y="543" on="0"/>
        <pt x="262" y="658" on="1"/>
        <pt x="374" y="773" on="0"/>
        <pt x="532" y="773" on="1"/>
        <pt x="569" y="773" on="0"/>
        <pt x="605" y="766" on="1"/>
        <pt x="605" y="600" on="1"/>
        <pt x="570" y="612" on="0"/>
      </contour>
    </TTGlyph>
    <TTGlyph name="Cdotaccent" xMin="50" yMin="-14" xMax="508" yMax="975">
      <component glyphName="uni0307" x="432" y="335" flags="0x4"/>
      <component glyphName="C" x="0" y="0" flags="0x204"/>
    </TTGlyph>
    <TTGlyph name="Cdotaccent.0" xMin="60" yMin="-14" xMax="528" yMax="975">
      <contour>
        <pt x="376" y="833" on="1"/>
        <pt x="376" y="975" on="1"/>
        <pt x="528" y="975" on="1"/>
        <pt x="528" y="833" on="1"/>
      </contour>
      <contour>
        <pt x="442" y="612" on="1"/>
        <pt x="347" y="612" on="0"/>
        <pt x="280" y="544" on="1"/>
        <pt x="213" y="475" on="0"/>
        <pt x="213" y="378" on="1"/>
        <pt x="213" y="280" on="0"/>
        <pt x="280" y="212" on="1"/>
        <pt x="347" y="143" on="0"/>
        <pt x="442" y="143" on="1"/>
        <pt x="480" y="143" on="0"/>
        <pt x="515" y="155" on="1"/>
        <pt x="515" y="-7" on="1"/>
        <pt x="479" y="-14" on="0"/>
        <pt x="442" y="-14" on="1"/>
        <pt x="284" y="-14" on="0"/>
        <pt x="172" y="102" on="1"/>
        <pt x="60" y="217" on="0"/>
        <pt x="60" y="380" on="1"/>
        <pt x="60" y="543" on="0"/>
        <pt x="172" y="658" on="1"/>
        <pt x="284" y="773" on="0"/>
        <pt x="442" y="773" on="1"/>
        <pt x="479" y="773" on="0"/>
        <pt x="515" y="766" on="1"/>
        <pt x="515" y="600" on="1"/>
        <pt x="480" y="612" on="0"/>
      </contour>
    </TTGlyph>
    <TTGlyph name="Cdotaccent.1" xMin="150" yMin="-14" xMax="708" yMax="975">
      <contour>
        <pt x="556" y="833" on="1"/>
        <pt x="556" y="975" on="1"/>
        <pt x="708" y="975" on="1"/>
        <pt x="708" y="833" on="1"/>
      </contour>
      <contour>
        <pt x="532" y="612" on="1"/>
        <pt x="437" y="612" on="0"/>
        <pt x="370" y="544" on="1"/>
        <pt x="303" y="475" on="0"/>
        <pt x="303" y="378" on="1"/>
        <pt x="303" y="280" on="0"/>
        <pt x="370" y="212" on="1"/>
        <pt x="437" y="143" on="0"/>
        <pt x="532" y="143" on="1"/>
        <pt x="570" y="143" on="0"/>
        <pt x="605" y="155" on="1"/>
        <pt x="605" y="-7" on="1"/>
        <pt x="569" y="-14" on="0"/>
        <pt x="532" y="-14" on="1"/>
        <pt x="374" y="-14" on="0"/>
        <pt x="262" y="102" on="1"/>
        <pt x="150" y="217" on="0"/>
        <pt x="150" y="380" on="1"/>
        <pt x="150" y="543" on="0"/>
        <pt x="262" y="658" on="1"/>
        <pt x="374" y="773" on="0"/>
        <pt x="532" y="773" on="1"/>
        <pt x="569" y="773" on="0"/>
        <pt x="605" y="766" on="1"/>
        <pt x="605" y="600" on="1"/>
        <pt x="570" y="612" on="0"/>
      </contour>
    </TTGlyph>
    <TTGlyph name="D" xMin="50" yMin="-14" xMax="580" yMax="773">
      <contour>
        <pt x="50" y="768" on="1"/>
        <pt x="50" y="-14" on="1"/>
        <pt x="202" y="-14" on="1"/>
        <pt x="305" y="-13" on="0"/>
        <pt x="479" y="93" on="0"/>
        <pt x="580" y="273" on="0"/>
        <pt x="580" y="380" on="1"/>
        <pt x="580" y="543" on="0"/>
        <pt x="356" y="773" on="0"/>
        <pt x="198" y="773" on="1"/>
        <pt x="183" y="773" on="0"/>
        <pt x="65" y="763" on="0"/>
      </contour>
      <contour>
        <pt x="202" y="143" on="1"/>
        <pt x="202" y="612" on="1"/>
        <pt x="296" y="610" on="0"/>
        <pt x="427" y="474" on="0"/>
        <pt x="427" y="378" on="1"/>
        <pt x="427" y="282" on="0"/>
        <pt x="296" y="145" on="0"/>
      </contour>
    </TTGlyph>
    <TTGlyph name="D.0" xMin="60" yMin="-14" xMax="590" yMax="773">
      <contour>
        <pt x="60" y="768" on="1"/>
        <pt x="75" y="763" on="0"/>
        <pt x="134" y="768" on="1"/>
        <pt x="193" y="773" on="0"/>
        <pt x="208" y="773" on="1"/>
        <pt x="366" y="773" on="0"/>
        <pt x="478" y="658" on="1"/>
        <pt x="590" y="543" on="0"/>
        <pt x="590" y="380" on="1"/>
        <pt x="590" y="273" on="0"/>
        <pt x="540" y="183" on="1"/>
        <pt x="489" y="93" on="0"/>
        <pt x="402" y="40" on="1"/>
        <pt x="315" y="-13" on="0"/>
        <pt x="212" y="-14" on="1"/>
        <pt x="60" y="-14" on="1"/>
      </contour>
      <contour>
        <pt x="212" y="143" on="1"/>
        <pt x="306" y="145" on="0"/>
        <pt x="372" y="214" on="1"/>
        <pt x="437" y="282" on="0"/>
        <pt x="437" y="378" on="1"/>
        <pt x="437" y="474" on="0"/>
        <pt x="372" y="542" on="1"/>
        <pt x="306" y="610" on="0"/>
        <pt x="212" y="612" on="1"/>
      </contour>
    </TTGlyph>
    <TTGlyph name="D.1" xMin="150" yMin="-14" xMax="680" yMax="773">
      <component glyphName="D.0" x="90" y="0" flags="0x4"/>
    </TTGlyph>
    <TTGlyph name="D.2" xMin="150" yMin="-14" xMax="680" yMax="773">
      <component glyphName="D.0" x="90" y="0" flags="0x4"/>
    </TTGlyph>
    <TTGlyph name="Dcaron" xMin="50" yMin="-14" xMax="580" yMax="1001">
      <component glyphName="uni030C" x="315" y="67" flags="0x4"/>
      <component glyphName="D" x="0" y="0" flags="0x204"/>
    </TTGlyph>
    <TTGlyph name="Dcaron.0" xMin="60" yMin="-14" xMax="590" yMax="1001">
      <contour>
        <pt x="235" y="1001" on="1"/>
        <pt x="311" y="1001" on="1"/>
        <pt x="339" y="893" on="1"/>
        <pt x="359" y="1001" on="1"/>
        <pt x="435" y="1001" on="1"/>
        <pt x="383" y="833" on="1"/>
        <pt x="382" y="833" on="1"/>
        <pt x="307" y="833" on="1"/>
        <pt x="306" y="833" on="1"/>
      </contour>
      <contour>
        <pt x="60" y="768" on="1"/>
        <pt x="75" y="763" on="0"/>
        <pt x="134" y="768" on="1"/>
        <pt x="193" y="773" on="0"/>
        <pt x="208" y="773" on="1"/>
        <pt x="366" y="773" on="0"/>
        <pt x="478" y="658" on="1"/>
        <pt x="590" y="543" on="0"/>
        <pt x="590" y="380" on="1"/>
        <pt x="590" y="273" on="0"/>
        <pt x="540" y="183" on="1"/>
        <pt x="489" y="93" on="0"/>
        <pt x="402" y="40" on="1"/>
        <pt x="315" y="-13" on="0"/>
        <pt x="212" y="-14" on="1"/>
        <pt x="60" y="-14" on="1"/>
      </contour>
      <contour>
        <pt x="212" y="143" on="1"/>
        <pt x="306" y="145" on="0"/>
        <pt x="372" y="214" on="1"/>
        <pt x="437" y="282" on="0"/>
        <pt x="437" y="378" on="1"/>
        <pt x="437" y="474" on="0"/>
        <pt x="372" y="542" on="1"/>
        <pt x="306" y="610" on="0"/>
        <pt x="212" y="612" on="1"/>
      </contour>
    </TTGlyph>
    <TTGlyph name="Dcaron.1" xMin="150" yMin="-14" xMax="680" yMax="1001">
      <contour>
        <pt x="415" y="1001" on="1"/>
        <pt x="491" y="1001" on="1"/>
        <pt x="519" y="893" on="1"/>
        <pt x="539" y="1001" on="1"/>
        <pt x="615" y="1001" on="1"/>
        <pt x="563" y="833" on="1"/>
        <pt x="562" y="833" on="1"/>
        <pt x="487" y="833" on="1"/>
        <pt x="486" y="833" on="1"/>
      </contour>
      <contour>
        <pt x="150" y="768" on="1"/>
        <pt x="165" y="763" on="0"/>
        <pt x="224" y="768" on="1"/>
        <pt x="283" y="773" on="0"/>
        <pt x="298" y="773" on="1"/>
        <pt x="456" y="773" on="0"/>
        <pt x="568" y="658" on="1"/>
        <pt x="680" y="543" on="0"/>
        <pt x="680" y="380" on="1"/>
        <pt x="680" y="273" on="0"/>
        <pt x="630" y="183" on="1"/>
        <pt x="579" y="93" on="0"/>
        <pt x="492" y="40" on="1"/>
        <pt x="405" y="-13" on="0"/>
        <pt x="302" y="-14" on="1"/>
        <pt x="150" y="-14" on="1"/>
      </contour>
      <contour>
        <pt x="302" y="143" on="1"/>
        <pt x="396" y="145" on="0"/>
        <pt x="462" y="214" on="1"/>
        <pt x="527" y="282" on="0"/>
        <pt x="527" y="378" on="1"/>
        <pt x="527" y="474" on="0"/>
        <pt x="462" y="542" on="1"/>
        <pt x="396" y="610" on="0"/>
        <pt x="302" y="612" on="1"/>
      </contour>
    </TTGlyph>
    <TTGlyph name="E" xMin="50" yMin="-3" xMax="618" yMax="778">
      <contour>
        <pt x="509" y="485" on="1"/>
        <pt x="202" y="485" on="1"/>
        <pt x="202" y="626" on="1"/>
        <pt x="618" y="626" on="1"/>
        <pt x="617" y="778" on="1"/>
        <pt x="50" y="778" on="1"/>
        <pt x="50" y="774" on="1"/>
        <pt x="50" y="-2" on="1"/>
        <pt x="51" y="-2" on="1"/>
        <pt x="51" y="-3" on="1"/>
        <pt x="618" y="-3" on="1"/>
        <pt x="617" y="149" on="1"/>
        <pt x="202" y="149" on="1"/>
        <pt x="202" y="333" on="1"/>
        <pt x="510" y="333" on="1"/>
      </contour>
    </TTGlyph>
    <TTGlyph name="E.0" xMin="60" yMin="-3" xMax="628" yMax="778">
      <contour>
        <pt x="519" y="485" on="1"/>
        <pt x="520" y="333" on="1"/>
        <pt x="212" y="333" on="1"/>
        <pt x="212" y="149" on="1"/>
        <pt x="627" y="149" on="1"/>
        <pt x="628" y="-3" on="1"/>
        <pt x="61" y="-3" on="1"/>
        <pt x="61" y="-2" on="1"/>
        <pt x="60" y="-2" on="1"/>
        <pt x="60" y="774" on="1"/>
        <pt x="60" y="778" on="1"/>
        <pt x="627" y="778" on="1"/>
        <pt x="628" y="626" on="1"/>
        <pt x="212" y="626" on="1"/>
        <pt x="212" y="485" on="1"/>
      </contour>
    </TTGlyph>
    <TTGlyph name="E.1" xMin="150" yMin="-3" xMax="718" yMax="778">
      <component glyphName="E.0" x="90" y="0" flags="0x4"/>
    </TTGlyph>
    <TTGlyph name="E.2" xMin="150" yMin="-3" xMax="718" yMax="778">
      <component glyphName="E.0" x="90" y="0" flags="0x4"/>
    </TTGlyph>
    <TTGlyph name="Eacute" xMin="50" yMin="-3" xMax="618" yMax="1127">
      <component glyphName="acutecomb" x="370" y="322" flags="0x4"/>
      <component glyphName="E" x="0" y="0" flags="0x204"/>
    </TTGlyph>
    <TTGlyph name="Eacute.0" xMin="60" yMin="-3" xMax="628" yMax="1127">
      <contour>
        <pt x="353" y="838" on="1"/>
        <pt x="245" y="945" on="1"/>
        <pt x="427" y="1127" on="1"/>
        <pt x="535" y="1020" on="1"/>
      </contour>
      <contour>
        <pt x="519" y="485" on="1"/>
        <pt x="520" y="333" on="1"/>
        <pt x="212" y="333" on="1"/>
        <pt x="212" y="149" on="1"/>
        <pt x="627" y="149" on="1"/>
        <pt x="628" y="-3" on="1"/>
        <pt x="61" y="-3" on="1"/>
        <pt x="61" y="-2" on="1"/>
        <pt x="60" y="-2" on="1"/>
        <pt x="60" y="774" on="1"/>
        <pt x="60" y="778" on="1"/>
        <pt x="627" y="778" on="1"/>
        <pt x="628" y="626" on="1"/>
        <pt x="212" y="626" on="1"/>
        <pt x="212" y="485" on="1"/>
      </contour>
    </TTGlyph>
    <TTGlyph name="Eacute.1" xMin="150" yMin="-3" xMax="718" yMax="1127">
      <contour>
        <pt x="533" y="838" on="1"/>
        <pt x="425" y="945" on="1"/>
        <pt x="607" y="1127" on="1"/>
        <pt x="715" y="1020" on="1"/>
      </contour>
      <contour>
        <pt x="609" y="485" on="1"/>
        <pt x="610" y="333" on="1"/>
        <pt x="302" y="333" on="1"/>
        <pt x="302" y="149" on="1"/>
        <pt x="717" y="149" on="1"/>
        <pt x="718" y="-3" on="1"/>
        <pt x="151" y="-3" on="1"/>
        <pt x="151" y="-2" on="1"/>
        <pt x="150" y="-2" on="1"/>
        <pt x="150" y="774" on="1"/>
        <pt x="150" y="778" on="1"/>
        <pt x="717" y="778" on="1"/>
        <pt x="718" y="626" on="1"/>
        <pt x="302" y="626" on="1"/>
        <pt x="302" y="485" on="1"/>
      </contour>
    </TTGlyph>
    <TTGlyph name="Ebreve" xMin="50" yMin="-3" xMax="618" yMax="1065">
      <component glyphName="uni0306" x="334" y="30" flags="0x4"/>
      <component glyphName="E" x="0" y="0" flags="0x204"/>
    </TTGlyph>
    <TTGlyph name="Ebreve.0" xMin="60" yMin="-3" xMax="628" yMax="1065">
      <contour>
        <pt x="171" y="1029" on="1"/>
        <pt x="171" y="979" on="0"/>
        <pt x="227" y="935" on="1"/>
        <pt x="282" y="890" on="0"/>
        <pt x="354" y="890" on="1"/>
        <pt x="427" y="890" on="0"/>
        <pt x="483" y="935" on="1"/>
        <pt x="538" y="979" on="0"/>
        <pt x="538" y="1029" on="1"/>
        <pt x="547" y="1065" on="1"/>
        <pt x="550" y="1048" on="0"/>
        <pt x="550" y="1029" on="1"/>
        <pt x="550" y="950" on="0"/>
        <pt x="493" y="894" on="1"/>
        <pt x="435" y="838" on="0"/>
        <pt x="353" y="838" on="1"/>
        <pt x="272" y="838" on="0"/>
        <pt x="215" y="894" on="1"/>
        <pt x="157" y="950" on="0"/>
        <pt x="157" y="1029" on="1"/>
        <pt x="157" y="1048" on="0"/>
        <pt x="160" y="1065" on="1"/>
      </contour>
      <contour>
        <pt x="519" y="485" on="1"/>
        <pt x="520" y="333" on="1"/>
        <pt x="212" y="333" on="1"/>
        <pt x="212" y="149" on="1"/>
        <pt x="627" y="149" on="1"/>
        <pt x="628" y="-3" on="1"/>
        <pt x="61" y="-3" on="1"/>
        <pt x="61" y="-2" on="1"/>
        <pt x="60" y="-2" on="1"/>
        <pt x="60" y="774" on="1"/>
        <pt x="60" y="778" on="1"/>
        <pt x="627" y="778" on="1"/>
        <pt x="628" y="626" on="1"/>
        <pt x="212" y="626" on="1"/>
        <pt x="212" y="485" on="1"/>
      </contour>
    </TTGlyph>
    <TTGlyph name="Ebreve.1" xMin="150" yMin="-3" xMax="730" yMax="1065">
      <contour>
        <pt x="351" y="1029" on="1"/>
        <pt x="351" y="979" on="0"/>
        <pt x="407" y="935" on="1"/>
        <pt x="462" y="890" on="0"/>
        <pt x="534" y="890" on="1"/>
        <pt x="607" y="890" on="0"/>
        <pt x="663" y="935" on="1"/>
        <pt x="718" y="979" on="0"/>
        <pt x="718" y="1029" on="1"/>
        <pt x="727" y="1065" on="1"/>
        <pt x="730" y="1048" on="0"/>
        <pt x="730" y="1029" on="1"/>
        <pt x="730" y="950" on="0"/>
        <pt x="673" y="894" on="1"/>
        <pt x="615" y="838" on="0"/>
        <pt x="533" y="838" on="1"/>
        <pt x="452" y="838" on="0"/>
        <pt x="395" y="894" on="1"/>
        <pt x="337" y="950" on="0"/>
        <pt x="337" y="1029" on="1"/>
        <pt x="337" y="1048" on="0"/>
        <pt x="340" y="1065" on="1"/>
      </contour>
      <contour>
        <pt x="609" y="485" on="1"/>
        <pt x="610" y="333" on="1"/>
        <pt x="302" y="333" on="1"/>
        <pt x="302" y="149" on="1"/>
        <pt x="717" y="149" on="1"/>
        <pt x="718" y="-3" on="1"/>
        <pt x="151" y="-3" on="1"/>
        <pt x="151" y="-2" on="1"/>
        <pt x="150" y="-2" on="1"/>
        <pt x="150" y="774" on="1"/>
        <pt x="150" y="778" on="1"/>
        <pt x="717" y="778" on="1"/>
        <pt x="718" y="626" on="1"/>
        <pt x="302" y="626" on="1"/>
        <pt x="302" y="485" on="1"/>
      </contour>
    </TTGlyph>
    <TTGlyph name="Ecaron" xMin="50" yMin="-3" xMax="618" yMax="1006">
      <component glyphName="uni030C" x="334" y="72" flags="0x4"/>
      <component glyphName="E" x="0" y="0" flags="0x204"/>
    </TTGlyph>
    <TTGlyph name="Ecaron.0" xMin="60" yMin="-3" xMax="628" yMax="1006">
      <contour>
        <pt x="254" y="1006" on="1"/>
        <pt x="330" y="1006" on="1"/>
        <pt x="358" y="898" on="1"/>
        <pt x="378" y="1006" on="1"/>
        <pt x="454" y="1006" on="1"/>
        <pt x="402" y="838" on="1"/>
        <pt x="401" y="838" on="1"/>
        <pt x="326" y="838" on="1"/>
        <pt x="325" y="838" on="1"/>
      </contour>
      <contour>
        <pt x="519" y="485" on="1"/>
        <pt x="520" y="333" on="1"/>
        <pt x="212" y="333" on="1"/>
        <pt x="212" y="149" on="1"/>
        <pt x="627" y="149" on="1"/>
        <pt x="628" y="-3" on="1"/>
        <pt x="61" y="-3" on="1"/>
        <pt x="61" y="-2" on="1"/>
        <pt x="60" y="-2" on="1"/>
        <pt x="60" y="774" on="1"/>
        <pt x="60" y="778" on="1"/>
        <pt x="627" y="778" on="1"/>
        <pt x="628" y="626" on="1"/>
        <pt x="212" y="626" on="1"/>
        <pt x="212" y="485" on="1"/>
      </contour>
    </TTGlyph>
    <TTGlyph name="Ecaron.1" xMin="150" yMin="-3" xMax="718" yMax="1006">
      <contour>
        <pt x="434" y="1006" on="1"/>
        <pt x="510" y="1006" on="1"/>
        <pt x="538" y="898" on="1"/>
        <pt x="558" y="1006" on="1"/>
        <pt x="634" y="1006" on="1"/>
        <pt x="582" y="838" on="1"/>
        <pt x="581" y="838" on="1"/>
        <pt x="506" y="838" on="1"/>
        <pt x="505" y="838" on="1"/>
      </contour>
      <contour>
        <pt x="609" y="485" on="1"/>
        <pt x="610" y="333" on="1"/>
        <pt x="302" y="333" on="1"/>
        <pt x="302" y="149" on="1"/>
        <pt x="717" y="149" on="1"/>
        <pt x="718" y="-3" on="1"/>
        <pt x="151" y="-3" on="1"/>
        <pt x="151" y="-2" on="1"/>
        <pt x="150" y="-2" on="1"/>
        <pt x="150" y="774" on="1"/>
        <pt x="150" y="778" on="1"/>
        <pt x="717" y="778" on="1"/>
        <pt x="718" y="626" on="1"/>
        <pt x="302" y="626" on="1"/>
        <pt x="302" y="485" on="1"/>
      </contour>
    </TTGlyph>
    <TTGlyph name="Ecircumflex" xMin="50" yMin="-3" xMax="618" yMax="1006">
      <component glyphName="uni0302" x="334" y="72" flags="0x4"/>
      <component glyphName="E" x="0" y="0" flags="0x204"/>
    </TTGlyph>
    <TTGlyph name="Ecircumflex.0" xMin="60" yMin="-3" xMax="628" yMax="1006">
      <contour>
        <pt x="254" y="838" on="1"/>
        <pt x="325" y="1006" on="1"/>
        <pt x="326" y="1006" on="1"/>
        <pt x="401" y="1006" on="1"/>
        <pt x="402" y="1006" on="1"/>
        <pt x="454" y="838" on="1"/>
        <pt x="378" y="838" on="1"/>
        <pt x="358" y="946" on="1"/>
        <pt x="330" y="838" on="1"/>
      </contour>
      <contour>
        <pt x="519" y="485" on="1"/>
        <pt x="520" y="333" on="1"/>
        <pt x="212" y="333" on="1"/>
        <pt x="212" y="149" on="1"/>
        <pt x="627" y="149" on="1"/>
        <pt x="628" y="-3" on="1"/>
        <pt x="61" y="-3" on="1"/>
        <pt x="61" y="-2" on="1"/>
        <pt x="60" y="-2" on="1"/>
        <pt x="60" y="774" on="1"/>
        <pt x="60" y="778" on="1"/>
        <pt x="627" y="778" on="1"/>
        <pt x="628" y="626" on="1"/>
        <pt x="212" y="626" on="1"/>
        <pt x="212" y="485" on="1"/>
      </contour>
    </TTGlyph>
    <TTGlyph name="Ecircumflex.1" xMin="150" yMin="-3" xMax="718" yMax="1006">
      <contour>
        <pt x="434" y="838" on="1"/>
        <pt x="505" y="1006" on="1"/>
        <pt x="506" y="1006" on="1"/>
        <pt x="581" y="1006" on="1"/>
        <pt x="582" y="1006" on="1"/>
        <pt x="634" y="838" on="1"/>
        <pt x="558" y="838" on="1"/>
        <pt x="538" y="946" on="1"/>
        <pt x="510" y="838" on="1"/>
      </contour>
      <contour>
        <pt x="609" y="485" on="1"/>
        <pt x="610" y="333" on="1"/>
        <pt x="302" y="333" on="1"/>
        <pt x="302" y="149" on="1"/>
        <pt x="717" y="149" on="1"/>
        <pt x="718" y="-3" on="1"/>
        <pt x="151" y="-3" on="1"/>
        <pt x="151" y="-2" on="1"/>
        <pt x="150" y="-2" on="1"/>
        <pt x="150" y="774" on="1"/>
        <pt x="150" y="778" on="1"/>
        <pt x="717" y="778" on="1"/>
        <pt x="718" y="626" on="1"/>
        <pt x="302" y="626" on="1"/>
        <pt x="302" y="485" on="1"/>
      </contour>
    </TTGlyph>
    <TTGlyph name="Edieresis" xMin="50" yMin="-3" xMax="618" yMax="980">
      <component glyphName="uni0308" x="334" y="340" flags="0x4"/>
      <component glyphName="E" x="0" y="0" flags="0x204"/>
    </TTGlyph>
    <TTGlyph name="Edieresis.0" xMin="60" yMin="-3" xMax="628" yMax="980">
      <contour>
        <pt x="378" y="838" on="1"/>
        <pt x="378" y="980" on="1"/>
        <pt x="530" y="980" on="1"/>
        <pt x="530" y="838" on="1"/>
      </contour>
      <contour>
        <pt x="178" y="838" on="1"/>
        <pt x="178" y="980" on="1"/>
        <pt x="330" y="980" on="1"/>
        <pt x="330" y="838" on="1"/>
      </contour>
      <contour>
        <pt x="519" y="485" on="1"/>
        <pt x="520" y="333" on="1"/>
        <pt x="212" y="333" on="1"/>
        <pt x="212" y="149" on="1"/>
        <pt x="627" y="149" on="1"/>
        <pt x="628" y="-3" on="1"/>
        <pt x="61" y="-3" on="1"/>
        <pt x="61" y="-2" on="1"/>
        <pt x="60" y="-2" on="1"/>
        <pt x="60" y="774" on="1"/>
        <pt x="60" y="778" on="1"/>
        <pt x="627" y="778" on="1"/>
        <pt x="628" y="626" on="1"/>
        <pt x="212" y="626" on="1"/>
        <pt x="212" y="485" on="1"/>
      </contour>
    </TTGlyph>
    <TTGlyph name="Edieresis.1" xMin="150" yMin="-3" xMax="718" yMax="980">
      <contour>
        <pt x="558" y="838" on="1"/>
        <pt x="558" y="980" on="1"/>
        <pt x="710" y="980" on="1"/>
        <pt x="710" y="838" on="1"/>
      </contour>
      <contour>
        <pt x="358" y="838" on="1"/>
        <pt x="358" y="980" on="1"/>
        <pt x="510" y="980" on="1"/>
        <pt x="510" y="838" on="1"/>
      </contour>
      <contour>
        <pt x="609" y="485" on="1"/>
        <pt x="610" y="333" on="1"/>
        <pt x="302" y="333" on="1"/>
        <pt x="302" y="149" on="1"/>
        <pt x="717" y="149" on="1"/>
        <pt x="718" y="-3" on="1"/>
        <pt x="151" y="-3" on="1"/>
        <pt x="151" y="-2" on="1"/>
        <pt x="150" y="-2" on="1"/>
        <pt x="150" y="774" on="1"/>
        <pt x="150" y="778" on="1"/>
        <pt x="717" y="778" on="1"/>
        <pt x="718" y="626" on="1"/>
        <pt x="302" y="626" on="1"/>
        <pt x="302" y="485" on="1"/>
      </contour>
    </TTGlyph>
    <TTGlyph name="Edotaccent" xMin="50" yMin="-3" xMax="618" yMax="980">
      <component glyphName="uni0307" x="334" y="340" flags="0x4"/>
      <component glyphName="E" x="0" y="0" flags="0x204"/>
    </TTGlyph>
    <TTGlyph name="Edotaccent.0" xMin="60" yMin="-3" xMax="628" yMax="980">
      <contour>
        <pt x="278" y="838" on="1"/>
        <pt x="278" y="980" on="1"/>
        <pt x="430" y="980" on="1"/>
        <pt x="430" y="838" on="1"/>
      </contour>
      <contour>
        <pt x="519" y="485" on="1"/>
        <pt x="520" y="333" on="1"/>
        <pt x="212" y="333" on="1"/>
        <pt x="212" y="149" on="1"/>
        <pt x="627" y="149" on="1"/>
        <pt x="628" y="-3" on="1"/>
        <pt x="61" y="-3" on="1"/>
        <pt x="61" y="-2" on="1"/>
        <pt x="60" y="-2" on="1"/>
        <pt x="60" y="774" on="1"/>
        <pt x="60" y="778" on="1"/>
        <pt x="627" y="778" on="1"/>
        <pt x="628" y="626" on="1"/>
        <pt x="212" y="626" on="1"/>
        <pt x="212" y="485" on="1"/>
      </contour>
    </TTGlyph>
    <TTGlyph name="Edotaccent.1" xMin="150" yMin="-3" xMax="718" yMax="980">
      <contour>
        <pt x="458" y="838" on="1"/>
        <pt x="458" y="980" on="1"/>
        <pt x="610" y="980" on="1"/>
        <pt x="610" y="838" on="1"/>
      </contour>
      <contour>
        <pt x="609" y="485" on="1"/>
        <pt x="610" y="333" on="1"/>
        <pt x="302" y="333" on="1"/>
        <pt x="302" y="149" on="1"/>
        <pt x="717" y="149" on="1"/>
        <pt x="718" y="-3" on="1"/>
        <pt x="151" y="-3" on="1"/>
        <pt x="151" y="-2" on="1"/>
        <pt x="150" y="-2" on="1"/>
        <pt x="150" y="774" on="1"/>
        <pt x="150" y="778" on="1"/>
        <pt x="717" y="778" on="1"/>
        <pt x="718" y="626" on="1"/>
        <pt x="302" y="626" on="1"/>
        <pt x="302" y="485" on="1"/>
      </contour>
    </TTGlyph>
    <TTGlyph name="Egrave" xMin="50" yMin="-3" xMax="618" yMax="1127">
      <component glyphName="gravecomb" x="296" y="322" flags="0x4"/>
      <component glyphName="E" x="0" y="0" flags="0x204"/>
    </TTGlyph>
    <TTGlyph name="Egrave.0" xMin="60" yMin="-3" xMax="628" yMax="1127">
      <contour>
        <pt x="353" y="838" on="1"/>
        <pt x="171" y="1020" on="1"/>
        <pt x="279" y="1127" on="1"/>
        <pt x="461" y="945" on="1"/>
      </contour>
      <contour>
        <pt x="519" y="485" on="1"/>
        <pt x="520" y="333" on="1"/>
        <pt x="212" y="333" on="1"/>
        <pt x="212" y="149" on="1"/>
        <pt x="627" y="149" on="1"/>
        <pt x="628" y="-3" on="1"/>
        <pt x="61" y="-3" on="1"/>
        <pt x="61" y="-2" on="1"/>
        <pt x="60" y="-2" on="1"/>
        <pt x="60" y="774" on="1"/>
        <pt x="60" y="778" on="1"/>
        <pt x="627" y="778" on="1"/>
        <pt x="628" y="626" on="1"/>
        <pt x="212" y="626" on="1"/>
        <pt x="212" y="485" on="1"/>
      </contour>
    </TTGlyph>
    <TTGlyph name="Egrave.1" xMin="150" yMin="-3" xMax="718" yMax="1127">
      <contour>
        <pt x="533" y="838" on="1"/>
        <pt x="351" y="1020" on="1"/>
        <pt x="459" y="1127" on="1"/>
        <pt x="641" y="945" on="1"/>
      </contour>
      <contour>
        <pt x="609" y="485" on="1"/>
        <pt x="610" y="333" on="1"/>
        <pt x="302" y="333" on="1"/>
        <pt x="302" y="149" on="1"/>
        <pt x="717" y="149" on="1"/>
        <pt x="718" y="-3" on="1"/>
        <pt x="151" y="-3" on="1"/>
        <pt x="151" y="-2" on="1"/>
        <pt x="150" y="-2" on="1"/>
        <pt x="150" y="774" on="1"/>
        <pt x="150" y="778" on="1"/>
        <pt x="717" y="778" on="1"/>
        <pt x="718" y="626" on="1"/>
        <pt x="302" y="626" on="1"/>
        <pt x="302" y="485" on="1"/>
      </contour>
    </TTGlyph>
    <TTGlyph name="Emacron" xMin="50" yMin="-3" xMax="618" yMax="914">
      <component glyphName="uni0304" x="334" y="56" flags="0x4"/>
      <component glyphName="E" x="0" y="0" flags="0x204"/>
    </TTGlyph>
    <TTGlyph name="Emacron.0" xMin="60" yMin="-3" xMax="628" yMax="914">
      <contour>
        <pt x="490" y="914" on="1"/>
        <pt x="490" y="838" on="1"/>
        <pt x="218" y="838" on="1"/>
        <pt x="218" y="914" on="1"/>
      </contour>
      <contour>
        <pt x="519" y="485" on="1"/>
        <pt x="520" y="333" on="1"/>
        <pt x="212" y="333" on="1"/>
        <pt x="212" y="149" on="1"/>
        <pt x="627" y="149" on="1"/>
        <pt x="628" y="-3" on="1"/>
        <pt x="61" y="-3" on="1"/>
        <pt x="61" y="-2" on="1"/>
        <pt x="60" y="-2" on="1"/>
        <pt x="60" y="774" on="1"/>
        <pt x="60" y="778" on="1"/>
        <pt x="627" y="778" on="1"/>
        <pt x="628" y="626" on="1"/>
        <pt x="212" y="626" on="1"/>
        <pt x="212" y="485" on="1"/>
      </contour>
    </TTGlyph>
    <TTGlyph name="Emacron.1" xMin="150" yMin="-3" xMax="718" yMax="914">
      <contour>
        <pt x="670" y="914" on="1"/>
        <pt x="670" y="838" on="1"/>
        <pt x="398" y="838" on="1"/>
        <pt x="398" y="914" on="1"/>
      </contour>
      <contour>
        <pt x="609" y="485" on="1"/>
        <pt x="610" y="333" on="1"/>
        <pt x="302" y="333" on="1"/>
        <pt x="302" y="149" on="1"/>
        <pt x="717" y="149" on="1"/>
        <pt x="718" y="-3" on="1"/>
        <pt x="151" y="-3" on="1"/>
        <pt x="151" y="-2" on="1"/>
        <pt x="150" y="-2" on="1"/>
        <pt x="150" y="774" on="1"/>
        <pt x="150" y="778" on="1"/>
        <pt x="717" y="778" on="1"/>
        <pt x="718" y="626" on="1"/>
        <pt x="302" y="626" on="1"/>
        <pt x="302" y="485" on="1"/>
      </contour>
    </TTGlyph>
    <TTGlyph name="Eogonek" xMin="50" yMin="-263" xMax="619" yMax="778">
      <component glyphName="uni0328" x="548" y="-195" flags="0x4"/>
      <component glyphName="E" x="0" y="0" flags="0x204"/>
    </TTGlyph>
    <TTGlyph name="Eogonek.0" xMin="60" yMin="-263" xMax="639" yMax="778">
      <contour>
        <pt x="639" y="-263" on="1"/>
        <pt x="639" y="-263" on="0"/>
        <pt x="626" y="-263" on="1"/>
        <pt x="572" y="-263" on="0"/>
        <pt x="535" y="-225" on="1"/>
        <pt x="497" y="-188" on="0"/>
        <pt x="497" y="-135" on="1"/>
        <pt x="497" y="-81" on="0"/>
        <pt x="535" y="-43" on="1"/>
        <pt x="572" y="-6" on="0"/>
        <pt x="626" y="-6" on="1"/>
        <pt x="639" y="-6" on="1"/>
        <pt x="639" y="-83" on="1"/>
        <pt x="631" y="-81" on="0"/>
        <pt x="626" y="-81" on="1"/>
        <pt x="604" y="-81" on="0"/>
        <pt x="588" y="-97" on="1"/>
        <pt x="572" y="-113" on="0"/>
        <pt x="572" y="-135" on="1"/>
        <pt x="572" y="-157" on="0"/>
        <pt x="588" y="-172" on="1"/>
        <pt x="603" y="-188" on="0"/>
        <pt x="626" y="-188" on="1"/>
        <pt x="631" y="-188" on="0"/>
        <pt x="639" y="-186" on="1"/>
      </contour>
      <contour>
        <pt x="519" y="485" on="1"/>
        <pt x="520" y="333" on="1"/>
        <pt x="212" y="333" on="1"/>
        <pt x="212" y="149" on="1"/>
        <pt x="627" y="149" on="1"/>
        <pt x="628" y="-3" on="1"/>
        <pt x="61" y="-3" on="1"/>
        <pt x="61" y="-2" on="1"/>
        <pt x="60" y="-2" on="1"/>
        <pt x="60" y="774" on="1"/>
        <pt x="60" y="778" on="1"/>
        <pt x="627" y="778" on="1"/>
        <pt x="628" y="626" on="1"/>
        <pt x="212" y="626" on="1"/>
        <pt x="212" y="485" on="1"/>
      </contour>
    </TTGlyph>
    <TTGlyph name="Eogonek.1" xMin="150" yMin="-263" xMax="819" yMax="778">
      <contour>
        <pt x="819" y="-263" on="1"/>
        <pt x="819" y="-263" on="0"/>
        <pt x="806" y="-263" on="1"/>
        <pt x="752" y="-263" on="0"/>
        <pt x="715" y="-225" on="1"/>
        <pt x="677" y="-188" on="0"/>
        <pt x="677" y="-135" on="1"/>
        <pt x="677" y="-81" on="0"/>
        <pt x="715" y="-43" on="1"/>
        <pt x="752" y="-6" on="0"/>
        <pt x="806" y="-6" on="1"/>
        <pt x="819" y="-6" on="1"/>
        <pt x="819" y="-83" on="1"/>
        <pt x="811" y="-81" on="0"/>
        <pt x="806" y="-81" on="1"/>
        <pt x="784" y="-81" on="0"/>
        <pt x="768" y="-97" on="1"/>
        <pt x="752" y="-113" on="0"/>
        <pt x="752" y="-135" on="1"/>
        <pt x="752" y="-157" on="0"/>
        <pt x="768" y="-172" on="1"/>
        <pt x="783" y="-188" on="0"/>
        <pt x="806" y="-188" on="1"/>
        <pt x="811" y="-188" on="0"/>
        <pt x="819" y="-186" on="1"/>
      </contour>
      <contour>
        <pt x="609" y="485" on="1"/>
        <pt x="610" y="333" on="1"/>
        <pt x="302" y="333" on="1"/>
        <pt x="302" y="149" on="1"/>
        <pt x="717" y="149" on="1"/>
        <pt x="718" y="-3" on="1"/>
        <pt x="151" y="-3" on="1"/>
        <pt x="151" y="-2" on="1"/>
        <pt x="150" y="-2" on="1"/>
        <pt x="150" y="774" on="1"/>
        <pt x="150" y="778" on="1"/>
        <pt x="717" y="778" on="1"/>
        <pt x="718" y="626" on="1"/>
        <pt x="302" y="626" on="1"/>
        <pt x="302" y="485" on="1"/>
      </contour>
    </TTGlyph>
    <TTGlyph name="F" xMin="50" yMin="-2" xMax="618" yMax="778">
      <contour>
        <pt x="509" y="485" on="1"/>
        <pt x="202" y="485" on="1"/>
        <pt x="202" y="626" on="1"/>
        <pt x="618" y="626" on="1"/>
        <pt x="617" y="778" on="1"/>
        <pt x="50" y="778" on="1"/>
        <pt x="50" y="774" on="1"/>
        <pt x="50" y="-2" on="1"/>
        <pt x="202" y="-2" on="1"/>
        <pt x="202" y="333" on="1"/>
        <pt x="510" y="333" on="1"/>
      </contour>
    </TTGlyph>
    <TTGlyph name="F.0" xMin="60" yMin="-2" xMax="628" yMax="778">
      <contour>
        <pt x="519" y="485" on="1"/>
        <pt x="520" y="333" on="1"/>
        <pt x="212" y="333" on="1"/>
        <pt x="212" y="-2" on="1"/>
        <pt x="60" y="-2" on="1"/>
        <pt x="60" y="774" on="1"/>
        <pt x="60" y="778" on="1"/>
        <pt x="627" y="778" on="1"/>
        <pt x="628" y="626" on="1"/>
        <pt x="212" y="626" on="1"/>
        <pt x="212" y="485" on="1"/>
      </contour>
    </TTGlyph>
    <TTGlyph name="F.1" xMin="150" yMin="-2" xMax="718" yMax="778">
      <component glyphName="F.0" x="90" y="0" flags="0x4"/>
    </TTGlyph>
    <TTGlyph name="F.2" xMin="150" yMin="-2" xMax="718" yMax="778">
      <component glyphName="F.0" x="90" y="0" flags="0x4"/>
    </TTGlyph>
    <TTGlyph name="G" xMin="50" yMin="-14" xMax="601" yMax="773">
      <contour>
        <pt x="432" y="612" on="1"/>
        <pt x="470" y="612" on="0"/>
        <pt x="505" y="600" on="1"/>
        <pt x="505" y="766" on="1"/>
        <pt x="469" y="773" on="0"/>
        <pt x="432" y="773" on="1"/>
        <pt x="274" y="773" on="0"/>
        <pt x="50" y="543" on="0"/>
        <pt x="50" y="217" on="0"/>
        <pt x="274" y="-14" on="0"/>
        <pt x="432" y="-14" on="1"/>
        <pt x="441" y="-14" on="0"/>
        <pt x="449" y="-14" on="1"/>
        <pt x="601" y="-14" on="1"/>
        <pt x="601" y="313" on="1"/>
        <pt x="449" y="313" on="1"/>
        <pt x="449" y="144" on="1"/>
        <pt x="441" y="143" on="0"/>
        <pt x="432" y="143" on="1"/>
        <pt x="337" y="143" on="0"/>
        <pt x="203" y="280" on="0"/>
        <pt x="203" y="378" on="1"/>
        <pt x="203" y="475" on="0"/>
        <pt x="337" y="612" on="0"/>
      </contour>
    </TTGlyph>
    <TTGlyph name="G.0" xMin="60" yMin="-14" xMax="611" yMax="773">
      <contour>
        <pt x="442" y="612" on="1"/>
        <pt x="347" y="612" on="0"/>
        <pt x="280" y="544" on="1"/>
        <pt x="213" y="475" on="0"/>
        <pt x="213" y="378" on="1"/>
        <pt x="213" y="280" on="0"/>
        <pt x="280" y="212" on="1"/>
        <pt x="347" y="143" on="0"/>
        <pt x="442" y="143" on="1"/>
        <pt x="451" y="143" on="0"/>
        <pt x="459" y="144" on="1"/>
        <pt x="459" y="313" on="1"/>
        <pt x="611" y="313" on="1"/>
        <pt x="611" y="-14" on="1"/>
        <pt x="459" y="-14" on="1"/>
        <pt x="451" y="-14" on="0"/>
        <pt x="442" y="-14" on="1"/>
        <pt x="284" y="-14" on="0"/>
        <pt x="172" y="102" on="1"/>
        <pt x="60" y="217" on="0"/>
        <pt x="60" y="380" on="1"/>
        <pt x="60" y="543" on="0"/>
        <pt x="172" y="658" on="1"/>
        <pt x="284" y="773" on="0"/>
        <pt x="442" y="773" on="1"/>
        <pt x="479" y="773" on="0"/>
        <pt x="515" y="766" on="1"/>
        <pt x="515" y="600" on="1"/>
        <pt x="480" y="612" on="0"/>
      </contour>
    </TTGlyph>
    <TTGlyph name="G.1" xMin="150" yMin="-14" xMax="701" yMax="773">
      <component glyphName="G.0" x="90" y="0" flags="0x4"/>
    </TTGlyph>
    <TTGlyph name="G.2" xMin="150" yMin="-14" xMax="701" yMax="773">
      <component glyphName="G.0" x="90" y="0" flags="0x4"/>
    </TTGlyph>
    <TTGlyph name="Gbreve" xMin="50" yMin="-14" xMax="628" yMax="1060">
      <component glyphName="uni0306" x="432" y="25" flags="0x4"/>
      <component glyphName="G" x="0" y="0" flags="0x204"/>
    </TTGlyph>
    <TTGlyph name="Gbreve.0" xMin="60" yMin="-14" xMax="648" yMax="1060">
      <contour>
        <pt x="269" y="1024" on="1"/>
        <pt x="269" y="974" on="0"/>
        <pt x="325" y="930" on="1"/>
        <pt x="380" y="885" on="0"/>
        <pt x="452" y="885" on="1"/>
        <pt x="525" y="885" on="0"/>
        <pt x="581" y="930" on="1"/>
        <pt x="636" y="974" on="0"/>
        <pt x="636" y="1024" on="1"/>
        <pt x="645" y="1060" on="1"/>
        <pt x="648" y="1043" on="0"/>
        <pt x="648" y="1024" on="1"/>
        <pt x="648" y="945" on="0"/>
        <pt x="591" y="889" on="1"/>
        <pt x="533" y="833" on="0"/>
        <pt x="451" y="833" on="1"/>
        <pt x="370" y="833" on="0"/>
        <pt x="313" y="889" on="1"/>
        <pt x="255" y="945" on="0"/>
        <pt x="255" y="1024" on="1"/>
        <pt x="255" y="1043" on="0"/>
        <pt x="258" y="1060" on="1"/>
      </contour>
      <contour>
        <pt x="442" y="612" on="1"/>
        <pt x="347" y="612" on="0"/>
        <pt x="280" y="544" on="1"/>
        <pt x="213" y="475" on="0"/>
        <pt x="213" y="378" on="1"/>
        <pt x="213" y="280" on="0"/>
        <pt x="280" y="212" on="1"/>
        <pt x="347" y="143" on="0"/>
        <pt x="442" y="143" on="1"/>
        <pt x="451" y="143" on="0"/>
        <pt x="459" y="144" on="1"/>
        <pt x="459" y="313" on="1"/>
        <pt x="611" y="313" on="1"/>
        <pt x="611" y="-14" on="1"/>
        <pt x="459" y="-14" on="1"/>
        <pt x="451" y="-14" on="0"/>
        <pt x="442" y="-14" on="1"/>
        <pt x="284" y="-14" on="0"/>
        <pt x="172" y="102" on="1"/>
        <pt x="60" y="217" on="0"/>
        <pt x="60" y="380" on="1"/>
        <pt x="60" y="543" on="0"/>
        <pt x="172" y="658" on="1"/>
        <pt x="284" y="773" on="0"/>
        <pt x="442" y="773" on="1"/>
        <pt x="479" y="773" on="0"/>
        <pt x="515" y="766" on="1"/>
        <pt x="515" y="600" on="1"/>
        <pt x="480" y="612" on="0"/>
      </contour>
    </TTGlyph>
    <TTGlyph name="Gbreve.1" xMin="150" yMin="-14" xMax="828" yMax="1060">
      <contour>
        <pt x="449" y="1024" on="1"/>
        <pt x="449" y="974" on="0"/>
        <pt x="505" y="930" on="1"/>
        <pt x="560" y="885" on="0"/>
        <pt x="632" y="885" on="1"/>
        <pt x="705" y="885" on="0"/>
        <pt x="761" y="930" on="1"/>
        <pt x="816" y="974" on="0"/>
        <pt x="816" y="1024" on="1"/>
        <pt x="825" y="1060" on="1"/>
        <pt x="828" y="1043" on="0"/>
        <pt x="828" y="1024" on="1"/>
        <pt x="828" y="945" on="0"/>
        <pt x="771" y="889" on="1"/>
        <pt x="713" y="833" on="0"/>
        <pt x="631" y="833" on="1"/>
        <pt x="550" y="833" on="0"/>
        <pt x="493" y="889" on="1"/>
        <pt x="435" y="945" on="0"/>
        <pt x="435" y="1024" on="1"/>
        <pt x="435" y="1043" on="0"/>
        <pt x="438" y="1060" on="1"/>
      </contour>
      <contour>
        <pt x="532" y="612" on="1"/>
        <pt x="437" y="612" on="0"/>
        <pt x="370" y="544" on="1"/>
        <pt x="303" y="475" on="0"/>
        <pt x="303" y="378" on="1"/>
        <pt x="303" y="280" on="0"/>
        <pt x="370" y="212" on="1"/>
        <pt x="437" y="143" on="0"/>
        <pt x="532" y="143" on="1"/>
        <pt x="541" y="143" on="0"/>
        <pt x="549" y="144" on="1"/>
        <pt x="549" y="313" on="1"/>
        <pt x="701" y="313" on="1"/>
        <pt x="701" y="-14" on="1"/>
        <pt x="549" y="-14" on="1"/>
        <pt x="541" y="-14" on="0"/>
        <pt x="532" y="-14" on="1"/>
        <pt x="374" y="-14" on="0"/>
        <pt x="262" y="102" on="1"/>
        <pt x="150" y="217" on="0"/>
        <pt x="150" y="380" on="1"/>
        <pt x="150" y="543" on="0"/>
        <pt x="262" y="658" on="1"/>
        <pt x="374" y="773" on="0"/>
        <pt x="532" y="773" on="1"/>
        <pt x="569" y="773" on="0"/>
        <pt x="605" y="766" on="1"/>
        <pt x="605" y="600" on="1"/>
        <pt x="570" y="612" on="0"/>
      </contour>
    </TTGlyph>
    <TTGlyph name="Gcircumflex" xMin="50" yMin="-14" xMax="601" yMax="1000">
      <component glyphName="uni0302" x="432" y="66" flags="0x4"/>
      <component glyphName="G" x="0" y="0" flags="0x204"/>
    </TTGlyph>
    <TTGlyph name="Gcircumflex.0" xMin="60" yMin="-14" xMax="611" yMax="1000">
      <contour>
        <pt x="352" y="832" on="1"/>
        <pt x="423" y="1000" on="1"/>
        <pt x="424" y="1000" on="1"/>
        <pt x="499" y="1000" on="1"/>
        <pt x="500" y="1000" on="1"/>
        <pt x="552" y="832" on="1"/>
        <pt x="476" y="832" on="1"/>
        <pt x="456" y="940" on="1"/>
        <pt x="428" y="832" on="1"/>
      </contour>
      <contour>
        <pt x="442" y="612" on="1"/>
        <pt x="347" y="612" on="0"/>
        <pt x="280" y="544" on="1"/>
        <pt x="213" y="475" on="0"/>
        <pt x="213" y="378" on="1"/>
        <pt x="213" y="280" on="0"/>
        <pt x="280" y="212" on="1"/>
        <pt x="347" y="143" on="0"/>
        <pt x="442" y="143" on="1"/>
        <pt x="451" y="143" on="0"/>
        <pt x="459" y="144" on="1"/>
        <pt x="459" y="313" on="1"/>
        <pt x="611" y="313" on="1"/>
        <pt x="611" y="-14" on="1"/>
        <pt x="459" y="-14" on="1"/>
        <pt x="451" y="-14" on="0"/>
        <pt x="442" y="-14" on="1"/>
        <pt x="284" y="-14" on="0"/>
        <pt x="172" y="102" on="1"/>
        <pt x="60" y="217" on="0"/>
        <pt x="60" y="380" on="1"/>
        <pt x="60" y="543" on="0"/>
        <pt x="172" y="658" on="1"/>
        <pt x="284" y="773" on="0"/>
        <pt x="442" y="773" on="1"/>
        <pt x="479" y="773" on="0"/>
        <pt x="515" y="766" on="1"/>
        <pt x="515" y="600" on="1"/>
        <pt x="480" y="612" on="0"/>
      </contour>
    </TTGlyph>
    <TTGlyph name="Gcircumflex.1" xMin="150" yMin="-14" xMax="732" yMax="1000">
      <contour>
        <pt x="532" y="832" on="1"/>
        <pt x="603" y="1000" on="1"/>
        <pt x="604" y="1000" on="1"/>
        <pt x="679" y="1000" on="1"/>
        <pt x="680" y="1000" on="1"/>
        <pt x="732" y="832" on="1"/>
        <pt x="656" y="832" on="1"/>
        <pt x="636" y="940" on="1"/>
        <pt x="608" y="832" on="1"/>
      </contour>
      <contour>
        <pt x="532" y="612" on="1"/>
        <pt x="437" y="612" on="0"/>
        <pt x="370" y="544" on="1"/>
        <pt x="303" y="475" on="0"/>
        <pt x="303" y="378" on="1"/>
        <pt x="303" y="280" on="0"/>
        <pt x="370" y="212" on="1"/>
        <pt x="437" y="143" on="0"/>
        <pt x="532" y="143" on="1"/>
        <pt x="541" y="143" on="0"/>
        <pt x="549" y="144" on="1"/>
        <pt x="549" y="313" on="1"/>
        <pt x="701" y="313" on="1"/>
        <pt x="701" y="-14" on="1"/>
        <pt x="549" y="-14" on="1"/>
        <pt x="541" y="-14" on="0"/>
        <pt x="532" y="-14" on="1"/>
        <pt x="374" y="-14" on="0"/>
        <pt x="262" y="102" on="1"/>
        <pt x="150" y="217" on="0"/>
        <pt x="150" y="380" on="1"/>
        <pt x="150" y="543" on="0"/>
        <pt x="262" y="658" on="1"/>
        <pt x="374" y="773" on="0"/>
        <pt x="532" y="773" on="1"/>
        <pt x="569" y="773" on="0"/>
        <pt x="605" y="766" on="1"/>
        <pt x="605" y="600" on="1"/>
        <pt x="570" y="612" on="0"/>
      </contour>
    </TTGlyph>
    <TTGlyph name="Gdotaccent" xMin="50" yMin="-14" xMax="601" yMax="975">
      <component glyphName="uni0307" x="432" y="335" flags="0x4"/>
      <component glyphName="G" x="0" y="0" flags="0x204"/>
    </TTGlyph>
    <TTGlyph name="Gdotaccent.0" xMin="60" yMin="-14" xMax="611" yMax="975">
      <contour>
        <pt x="376" y="833" on="1"/>
        <pt x="376" y="975" on="1"/>
        <pt x="528" y="975" on="1"/>
        <pt x="528" y="833" on="1"/>
      </contour>
      <contour>
        <pt x="442" y="612" on="1"/>
        <pt x="347" y="612" on="0"/>
        <pt x="280" y="544" on="1"/>
        <pt x="213" y="475" on="0"/>
        <pt x="213" y="378" on="1"/>
        <pt x="213" y="280" on="0"/>
        <pt x="280" y="212" on="1"/>
        <pt x="347" y="143" on="0"/>
        <pt x="442" y="143" on="1"/>
        <pt x="451" y="143" on="0"/>
        <pt x="459" y="144" on="1"/>
        <pt x="459" y="313" on="1"/>
        <pt x="611" y="313" on="1"/>
        <pt x="611" y="-14" on="1"/>
        <pt x="459" y="-14" on="1"/>
        <pt x="451" y="-14" on="0"/>
        <pt x="442" y="-14" on="1"/>
        <pt x="284" y="-14" on="0"/>
        <pt x="172" y="102" on="1"/>
        <pt x="60" y="217" on="0"/>
        <pt x="60" y="380" on="1"/>
        <pt x="60" y="543" on="0"/>
        <pt x="172" y="658" on="1"/>
        <pt x="284" y="773" on="0"/>
        <pt x="442" y="773" on="1"/>
        <pt x="479" y="773" on="0"/>
        <pt x="515" y="766" on="1"/>
        <pt x="515" y="600" on="1"/>
        <pt x="480" y="612" on="0"/>
      </contour>
    </TTGlyph>
    <TTGlyph name="Gdotaccent.1" xMin="150" yMin="-14" xMax="708" yMax="975">
      <contour>
        <pt x="556" y="833" on="1"/>
        <pt x="556" y="975" on="1"/>
        <pt x="708" y="975" on="1"/>
        <pt x="708" y="833" on="1"/>
      </contour>
      <contour>
        <pt x="532" y="612" on="1"/>
        <pt x="437" y="612" on="0"/>
        <pt x="370" y="544" on="1"/>
        <pt x="303" y="475" on="0"/>
        <pt x="303" y="378" on="1"/>
        <pt x="303" y="280" on="0"/>
        <pt x="370" y="212" on="1"/>
        <pt x="437" y="143" on="0"/>
        <pt x="532" y="143" on="1"/>
        <pt x="541" y="143" on="0"/>
        <pt x="549" y="144" on="1"/>
        <pt x="549" y="313" on="1"/>
        <pt x="701" y="313" on="1"/>
        <pt x="701" y="-14" on="1"/>
        <pt x="549" y="-14" on="1"/>
        <pt x="541" y="-14" on="0"/>
        <pt x="532" y="-14" on="1"/>
        <pt x="374" y="-14" on="0"/>
        <pt x="262" y="102" on="1"/>
        <pt x="150" y="217" on="0"/>
        <pt x="150" y="380" on="1"/>
        <pt x="150" y="543" on="0"/>
        <pt x="262" y="658" on="1"/>
        <pt x="374" y="773" on="0"/>
        <pt x="532" y="773" on="1"/>
        <pt x="569" y="773" on="0"/>
        <pt x="605" y="766" on="1"/>
        <pt x="605" y="600" on="1"/>
        <pt x="570" y="612" on="0"/>
      </contour>
    </TTGlyph>
    <TTGlyph name="H" xMin="50" yMin="-2" xMax="602" yMax="774">
      <contour>
        <pt x="450" y="774" on="1"/>
        <pt x="450" y="485" on="1"/>
        <pt x="202" y="485" on="1"/>
        <pt x="202" y="774" on="1"/>
        <pt x="50" y="774" on="1"/>
        <pt x="50" y="-2" on="1"/>
        <pt x="202" y="-2" on="1"/>
        <pt x="202" y="333" on="1"/>
        <pt x="450" y="333" on="1"/>
        <pt x="450" y="-2" on="1"/>
        <pt x="602" y="-2" on="1"/>
        <pt x="602" y="774" on="1"/>
      </contour>
    </TTGlyph>
    <TTGlyph name="H.0" xMin="60" yMin="-2" xMax="612" yMax="774">
      <contour>
        <pt x="460" y="774" on="1"/>
        <pt x="612" y="774" on="1"/>
        <pt x="612" y="-2" on="1"/>
        <pt x="460" y="-2" on="1"/>
        <pt x="460" y="333" on="1"/>
        <pt x="212" y="333" on="1"/>
        <pt x="212" y="-2" on="1"/>
        <pt x="60" y="-2" on="1"/>
        <pt x="60" y="774" on="1"/>
        <pt x="212" y="774" on="1"/>
        <pt x="212" y="485" on="1"/>
        <pt x="460" y="485" on="1"/>
      </contour>
    </TTGlyph>
    <TTGlyph name="H.1" xMin="150" yMin="-2" xMax="702" yMax="774">
      <component glyphName="H.0" x="90" y="0" flags="0x4"/>
    </TTGlyph>
    <TTGlyph name="H.2" xMin="150" yMin="-2" xMax="702" yMax="774">
      <component glyphName="H.0" x="90" y="0" flags="0x4"/>
    </TTGlyph>
    <TTGlyph name="Hcircumflex" xMin="50" yMin="-2" xMax="602" yMax="1002">
      <component glyphName="uni0302" x="326" y="68" flags="0x4"/>
      <component glyphName="H" x="0" y="0" flags="0x204"/>
    </TTGlyph>
    <TTGlyph name="Hcircumflex.0" xMin="60" yMin="-2" xMax="612" yMax="1002">
      <contour>
        <pt x="246" y="834" on="1"/>
        <pt x="317" y="1002" on="1"/>
        <pt x="318" y="1002" on="1"/>
        <pt x="393" y="1002" on="1"/>
        <pt x="394" y="1002" on="1"/>
        <pt x="446" y="834" on="1"/>
        <pt x="370" y="834" on="1"/>
        <pt x="350" y="942" on="1"/>
        <pt x="322" y="834" on="1"/>
      </contour>
      <contour>
        <pt x="460" y="774" on="1"/>
        <pt x="612" y="774" on="1"/>
        <pt x="612" y="-2" on="1"/>
        <pt x="460" y="-2" on="1"/>
        <pt x="460" y="333" on="1"/>
        <pt x="212" y="333" on="1"/>
        <pt x="212" y="-2" on="1"/>
        <pt x="60" y="-2" on="1"/>
        <pt x="60" y="774" on="1"/>
        <pt x="212" y="774" on="1"/>
        <pt x="212" y="485" on="1"/>
        <pt x="460" y="485" on="1"/>
      </contour>
    </TTGlyph>
    <TTGlyph name="Hcircumflex.1" xMin="150" yMin="-2" xMax="702" yMax="1002">
      <contour>
        <pt x="426" y="834" on="1"/>
        <pt x="497" y="1002" on="1"/>
        <pt x="498" y="1002" on="1"/>
        <pt x="573" y="1002" on="1"/>
        <pt x="574" y="1002" on="1"/>
        <pt x="626" y="834" on="1"/>
        <pt x="550" y="834" on="1"/>
        <pt x="530" y="942" on="1"/>
        <pt x="502" y="834" on="1"/>
      </contour>
      <contour>
        <pt x="550" y="774" on="1"/>
        <pt x="702" y="774" on="1"/>
        <pt x="702" y="-2" on="1"/>
        <pt x="550" y="-2" on="1"/>
        <pt x="550" y="333" on="1"/>
        <pt x="302" y="333" on="1"/>
        <pt x="302" y="-2" on="1"/>
        <pt x="150" y="-2" on="1"/>
        <pt x="150" y="774" on="1"/>
        <pt x="302" y="774" on="1"/>
        <pt x="302" y="485" on="1"/>
        <pt x="550" y="485" on="1"/>
      </contour>
    </TTGlyph>
    <TTGlyph name="I" xMin="50" yMin="-2" xMax="202" yMax="774">
      <contour>
        <pt x="50" y="774" on="1"/>
        <pt x="50" y="-2" on="1"/>
        <pt x="202" y="-2" on="1"/>
        <pt x="202" y="774" on="1"/>
      </contour>
    </TTGlyph>
    <TTGlyph name="I.0" xMin="60" yMin="-2" xMax="212" yMax="774">
      <contour>
        <pt x="60" y="774" on="1"/>
        <pt x="212" y="774" on="1"/>
        <pt x="212" y="-2" on="1"/>
        <pt x="60" y="-2" on="1"/>
      </contour>
    </TTGlyph>
    <TTGlyph name="I.1" xMin="150" yMin="-2" xMax="302" yMax="774">
      <contour>
        <pt x="150" y="774" on="1"/>
        <pt x="302" y="774" on="1"/>
        <pt x="302" y="-2" on="1"/>
        <pt x="150" y="-2" on="1"/>
      </contour>
    </TTGlyph>
    <TTGlyph name="I.2" xMin="150" yMin="-2" xMax="302" yMax="774">
      <contour>
        <pt x="150" y="774" on="1"/>
        <pt x="302" y="774" on="1"/>
        <pt x="302" y="-2" on="1"/>
        <pt x="150" y="-2" on="1"/>
      </contour>
    </TTGlyph>
    <TTGlyph name="Iacute" xMin="18" yMin="-2" xMax="308" yMax="1123">
      <component glyphName="acutecomb" x="163" y="318" flags="0x4"/>
      <component glyphName="I" x="0" y="0" flags="0x204"/>
    </TTGlyph>
    <TTGlyph name="Iacute.0" xMin="38" yMin="-2" xMax="328" yMax="1123">
      <contour>
        <pt x="146" y="834" on="1"/>
        <pt x="38" y="941" on="1"/>
        <pt x="220" y="1123" on="1"/>
        <pt x="328" y="1016" on="1"/>
      </contour>
      <contour>
        <pt x="60" y="774" on="1"/>
        <pt x="212" y="774" on="1"/>
        <pt x="212" y="-2" on="1"/>
        <pt x="60" y="-2" on="1"/>
      </contour>
    </TTGlyph>
    <TTGlyph name="Iacute.1" xMin="150" yMin="-2" xMax="508" yMax="1123">
      <contour>
        <pt x="326" y="834" on="1"/>
        <pt x="218" y="941" on="1"/>
        <pt x="400" y="1123" on="1"/>
        <pt x="508" y="1016" on="1"/>
      </contour>
      <contour>
        <pt x="150" y="774" on="1"/>
        <pt x="302" y="774" on="1"/>
        <pt x="302" y="-2" on="1"/>
        <pt x="150" y="-2" on="1"/>
      </contour>
    </TTGlyph>
    <TTGlyph name="Ibreve" xMin="-71" yMin="-2" xMax="322" yMax="1061">
      <component glyphName="uni0306" x="126" y="26" flags="0x4"/>
      <component glyphName="I" x="0" y="0" flags="0x204"/>
    </TTGlyph>
    <TTGlyph name="Ibreve.0" xMin="-51" yMin="-2" xMax="342" yMax="1061">
      <contour>
        <pt x="-37" y="1025" on="1"/>
        <pt x="-37" y="975" on="0"/>
        <pt x="19" y="931" on="1"/>
        <pt x="74" y="886" on="0"/>
        <pt x="146" y="886" on="1"/>
        <pt x="219" y="886" on="0"/>
        <pt x="275" y="931" on="1"/>
        <pt x="330" y="975" on="0"/>
        <pt x="330" y="1025" on="1"/>
        <pt x="339" y="1061" on="1"/>
        <pt x="342" y="1044" on="0"/>
        <pt x="342" y="1025" on="1"/>
        <pt x="342" y="946" on="0"/>
        <pt x="285" y="890" on="1"/>
        <pt x="227" y="834" on="0"/>
        <pt x="145" y="834" on="1"/>
        <pt x="64" y="834" on="0"/>
        <pt x="7" y="890" on="1"/>
        <pt x="-51" y="946" on="0"/>
        <pt x="-51" y="1025" on="1"/>
        <pt x="-51" y="1044" on="0"/>
        <pt x="-48" y="1061" on="1"/>
      </contour>
      <contour>
        <pt x="60" y="774" on="1"/>
        <pt x="212" y="774" on="1"/>
        <pt x="212" y="-2" on="1"/>
        <pt x="60" y="-2" on="1"/>
      </contour>
    </TTGlyph>
    <TTGlyph name="Ibreve.1" xMin="129" yMin="-2" xMax="522" yMax="1061">
      <contour>
        <pt x="143" y="1025" on="1"/>
        <pt x="143" y="975" on="0"/>
        <pt x="199" y="931" on="1"/>
        <pt x="254" y="886" on="0"/>
        <pt x="326" y="886" on="1"/>
        <pt x="399" y="886" on="0"/>
        <pt x="455" y="931" on="1"/>
        <pt x="510" y="975" on="0"/>
        <pt x="510" y="1025" on="1"/>
        <pt x="519" y="1061" on="1"/>
        <pt x="522" y="1044" on="0"/>
        <pt x="522" y="1025" on="1"/>
        <pt x="522" y="946" on="0"/>
        <pt x="465" y="890" on="1"/>
        <pt x="407" y="834" on="0"/>
        <pt x="325" y="834" on="1"/>
        <pt x="244" y="834" on="0"/>
        <pt x="187" y="890" on="1"/>
        <pt x="129" y="946" on="0"/>
        <pt x="129" y="1025" on="1"/>
        <pt x="129" y="1044" on="0"/>
        <pt x="132" y="1061" on="1"/>
      </contour>
      <contour>
        <pt x="150" y="774" on="1"/>
        <pt x="302" y="774" on="1"/>
        <pt x="302" y="-2" on="1"/>
        <pt x="150" y="-2" on="1"/>
      </contour>
    </TTGlyph>
    <TTGlyph name="Icircumflex" xMin="26" yMin="-2" xMax="226" yMax="1002">
      <component glyphName="uni0302" x="126" y="68" flags="0x4"/>
      <component glyphName="I" x="0" y="0" flags="0x204"/>
    </TTGlyph>
    <TTGlyph name="Icircumflex.0" xMin="46" yMin="-2" xMax="246" yMax="1002">
      <contour>
        <pt x="46" y="834" on="1"/>
        <pt x="117" y="1002" on="1"/>
        <pt x="118" y="1002" on="1"/>
        <pt x="193" y="1002" on="1"/>
        <pt x="194" y="1002" on="1"/>
        <pt x="246" y="834" on="1"/>
        <pt x="170" y="834" on="1"/>
        <pt x="150" y="942" on="1"/>
        <pt x="122" y="834" on="1"/>
      </contour>
      <contour>
        <pt x="60" y="774" on="1"/>
        <pt x="212" y="774" on="1"/>
        <pt x="212" y="-2" on="1"/>
        <pt x="60" y="-2" on="1"/>
      </contour>
    </TTGlyph>
    <TTGlyph name="Icircumflex.1" xMin="150" yMin="-2" xMax="426" yMax="1002">
      <contour>
        <pt x="226" y="834" on="1"/>
        <pt x="297" y="1002" on="1"/>
        <pt x="298" y="1002" on="1"/>
        <pt x="373" y="1002" on="1"/>
        <pt x="374" y="1002" on="1"/>
        <pt x="426" y="834" on="1"/>
        <pt x="350" y="834" on="1"/>
        <pt x="330" y="942" on="1"/>
        <pt x="302" y="834" on="1"/>
      </contour>
      <contour>
        <pt x="150" y="774" on="1"/>
        <pt x="302" y="774" on="1"/>
        <pt x="302" y="-2" on="1"/>
        <pt x="150" y="-2" on="1"/>
      </contour>
    </TTGlyph>
    <TTGlyph name="Idieresis" xMin="-50" yMin="-2" xMax="302" yMax="976">
      <component glyphName="uni0308" x="126" y="336" flags="0x4"/>
      <component glyphName="I" x="0" y="0" flags="0x204"/>
    </TTGlyph>
    <TTGlyph name="Idieresis.0" xMin="-30" yMin="-2" xMax="322" yMax="976">
      <contour>
        <pt x="170" y="834" on="1"/>
        <pt x="170" y="976" on="1"/>
        <pt x="322" y="976" on="1"/>
        <pt x="322" y="834" on="1"/>
      </contour>
      <contour>
        <pt x="-30" y="834" on="1"/>
        <pt x="-30" y="976" on="1"/>
        <pt x="122" y="976" on="1"/>
        <pt x="122" y="834" on="1"/>
      </contour>
      <contour>
        <pt x="60" y="774" on="1"/>
        <pt x="212" y="774" on="1"/>
        <pt x="212" y="-2" on="1"/>
        <pt x="60" y="-2" on="1"/>
      </contour>
    </TTGlyph>
    <TTGlyph name="Idieresis.1" xMin="150" yMin="-2" xMax="502" yMax="976">
      <contour>
        <pt x="350" y="834" on="1"/>
        <pt x="350" y="976" on="1"/>
        <pt x="502" y="976" on="1"/>
        <pt x="502" y="834" on="1"/>
      </contour>
      <contour>
        <pt x="150" y="834" on="1"/>
        <pt x="150" y="976" on="1"/>
        <pt x="302" y="976" on="1"/>
        <pt x="302" y="834" on="1"/>
      </contour>
      <contour>
        <pt x="150" y="774" on="1"/>
        <pt x="302" y="774" on="1"/>
        <pt x="302" y="-2" on="1"/>
        <pt x="150" y="-2" on="1"/>
      </contour>
    </TTGlyph>
    <TTGlyph name="Idotaccent" xMin="50" yMin="-2" xMax="202" yMax="976">
      <component glyphName="uni0307" x="126" y="336" flags="0x4"/>
      <component glyphName="I" x="0" y="0" flags="0x204"/>
    </TTGlyph>
    <TTGlyph name="Idotaccent.0" xMin="60" yMin="-2" xMax="222" yMax="976">
      <contour>
        <pt x="70" y="834" on="1"/>
        <pt x="70" y="976" on="1"/>
        <pt x="222" y="976" on="1"/>
        <pt x="222" y="834" on="1"/>
      </contour>
      <contour>
        <pt x="60" y="774" on="1"/>
        <pt x="212" y="774" on="1"/>
        <pt x="212" y="-2" on="1"/>
        <pt x="60" y="-2" on="1"/>
      </contour>
    </TTGlyph>
    <TTGlyph name="Idotaccent.1" xMin="150" yMin="-2" xMax="402" yMax="976">
      <contour>
        <pt x="250" y="834" on="1"/>
        <pt x="250" y="976" on="1"/>
        <pt x="402" y="976" on="1"/>
        <pt x="402" y="834" on="1"/>
      </contour>
      <contour>
        <pt x="150" y="774" on="1"/>
        <pt x="302" y="774" on="1"/>
        <pt x="302" y="-2" on="1"/>
        <pt x="150" y="-2" on="1"/>
      </contour>
    </TTGlyph>
    <TTGlyph name="Igrave" xMin="-56" yMin="-2" xMax="234" yMax="1123">
      <component glyphName="gravecomb" x="89" y="318" flags="0x4"/>
      <component glyphName="I" x="0" y="0" flags="0x204"/>
    </TTGlyph>
    <TTGlyph name="Igrave.0" xMin="-36" yMin="-2" xMax="254" yMax="1123">
      <contour>
        <pt x="146" y="834" on="1"/>
        <pt x="-36" y="1016" on="1"/>
        <pt x="72" y="1123" on="1"/>
        <pt x="254" y="941" on="1"/>
      </contour>
      <contour>
        <pt x="60" y="774" on="1"/>
        <pt x="212" y="774" on="1"/>
        <pt x="212" y="-2" on="1"/>
        <pt x="60" y="-2" on="1"/>
      </contour>
    </TTGlyph>
    <TTGlyph name="Igrave.1" xMin="144" yMin="-2" xMax="434" yMax="1123">
      <contour>
        <pt x="326" y="834" on="1"/>
        <pt x="144" y="1016" on="1"/>
        <pt x="252" y="1123" on="1"/>
        <pt x="434" y="941" on="1"/>
      </contour>
      <contour>
        <pt x="150" y="774" on="1"/>
        <pt x="302" y="774" on="1"/>
        <pt x="302" y="-2" on="1"/>
        <pt x="150" y="-2" on="1"/>
      </contour>
    </TTGlyph>
    <TTGlyph name="Imacron" xMin="-10" yMin="-2" xMax="262" yMax="910">
      <component glyphName="uni0304" x="126" y="52" flags="0x4"/>
      <component glyphName="I" x="0" y="0" flags="0x204"/>
    </TTGlyph>
    <TTGlyph name="Imacron.0" xMin="10" yMin="-2" xMax="282" yMax="910">
      <contour>
        <pt x="282" y="910" on="1"/>
        <pt x="282" y="834" on="1"/>
        <pt x="10" y="834" on="1"/>
        <pt x="10" y="910" on="1"/>
      </contour>
      <contour>
        <pt x="60" y="774" on="1"/>
        <pt x="212" y="774" on="1"/>
        <pt x="212" y="-2" on="1"/>
        <pt x="60" y="-2" on="1"/>
      </contour>
    </TTGlyph>
    <TTGlyph name="Imacron.1" xMin="150" yMin="-2" xMax="462" yMax="910">
      <contour>
        <pt x="462" y="910" on="1"/>
        <pt x="462" y="834" on="1"/>
        <pt x="190" y="834" on="1"/>
        <pt x="190" y="910" on="1"/>
      </contour>
      <contour>
        <pt x="150" y="774" on="1"/>
        <pt x="302" y="774" on="1"/>
        <pt x="302" y="-2" on="1"/>
        <pt x="150" y="-2" on="1"/>
      </contour>
    </TTGlyph>
    <TTGlyph name="Iogonek" xMin="-9" yMin="-250" xMax="202" yMax="774">
      <component glyphName="uni0328" x="62" y="-182" flags="0x4"/>
      <component glyphName="I" x="0" y="0" flags="0x204"/>
    </TTGlyph>
    <TTGlyph name="Iogonek.0" xMin="11" yMin="-250" xMax="212" yMax="774">
      <contour>
        <pt x="153" y="-250" on="1"/>
        <pt x="153" y="-250" on="0"/>
        <pt x="140" y="-250" on="1"/>
        <pt x="86" y="-250" on="0"/>
        <pt x="49" y="-212" on="1"/>
        <pt x="11" y="-175" on="0"/>
        <pt x="11" y="-122" on="1"/>
        <pt x="11" y="-68" on="0"/>
        <pt x="49" y="-30" on="1"/>
        <pt x="86" y="7" on="0"/>
        <pt x="140" y="7" on="1"/>
        <pt x="153" y="7" on="1"/>
        <pt x="153" y="-70" on="1"/>
        <pt x="145" y="-68" on="0"/>
        <pt x="140" y="-68" on="1"/>
        <pt x="118" y="-68" on="0"/>
        <pt x="102" y="-84" on="1"/>
        <pt x="86" y="-100" on="0"/>
        <pt x="86" y="-122" on="1"/>
        <pt x="86" y="-144" on="0"/>
        <pt x="102" y="-159" on="1"/>
        <pt x="117" y="-175" on="0"/>
        <pt x="140" y="-175" on="1"/>
        <pt x="145" y="-175" on="0"/>
        <pt x="153" y="-173" on="1"/>
      </contour>
      <contour>
        <pt x="60" y="774" on="1"/>
        <pt x="212" y="774" on="1"/>
        <pt x="212" y="-2" on="1"/>
        <pt x="60" y="-2" on="1"/>
      </contour>
    </TTGlyph>
    <TTGlyph name="Iogonek.1" xMin="150" yMin="-250" xMax="333" yMax="774">
      <contour>
        <pt x="333" y="-250" on="1"/>
        <pt x="333" y="-250" on="0"/>
        <pt x="320" y="-250" on="1"/>
        <pt x="266" y="-250" on="0"/>
        <pt x="229" y="-212" on="1"/>
        <pt x="191" y="-175" on="0"/>
        <pt x="191" y="-122" on="1"/>
        <pt x="191" y="-68" on="0"/>
        <pt x="229" y="-30" on="1"/>
        <pt x="266" y="7" on="0"/>
        <pt x="320" y="7" on="1"/>
        <pt x="333" y="7" on="1"/>
        <pt x="333" y="-70" on="1"/>
        <pt x="325" y="-68" on="0"/>
        <pt x="320" y="-68" on="1"/>
        <pt x="298" y="-68" on="0"/>
        <pt x="282" y="-84" on="1"/>
        <pt x="266" y="-100" on="0"/>
        <pt x="266" y="-122" on="1"/>
        <pt x="266" y="-144" on="0"/>
        <pt x="282" y="-159" on="1"/>
        <pt x="297" y="-175" on="0"/>
        <pt x="320" y="-175" on="1"/>
        <pt x="325" y="-175" on="0"/>
        <pt x="333" y="-173" on="1"/>
      </contour>
      <contour>
        <pt x="150" y="774" on="1"/>
        <pt x="302" y="774" on="1"/>
        <pt x="302" y="-2" on="1"/>
        <pt x="150" y="-2" on="1"/>
      </contour>
    </TTGlyph>
    <TTGlyph name="Itilde" xMin="2" yMin="-2" xMax="252" yMax="951">
      <component glyphName="tildecomb" x="126" y="32" flags="0x4"/>
      <component glyphName="I" x="0" y="0" flags="0x204"/>
    </TTGlyph>
    <TTGlyph name="Itilde.0" xMin="21" yMin="-2" xMax="271" yMax="951">
      <contour>
        <pt x="271" y="951" on="1"/>
        <pt x="271" y="875" on="1"/>
        <pt x="270" y="873" on="0"/>
        <pt x="263" y="864" on="1"/>
        <pt x="255" y="855" on="0"/>
        <pt x="239" y="845" on="1"/>
        <pt x="223" y="834" on="0"/>
        <pt x="207" y="834" on="1"/>
        <pt x="157" y="834" on="1"/>
        <pt x="141" y="834" on="0"/>
        <pt x="119" y="848" on="1"/>
        <pt x="96" y="862" on="0"/>
        <pt x="80" y="862" on="1"/>
        <pt x="69" y="862" on="0"/>
        <pt x="54" y="855" on="1"/>
        <pt x="39" y="848" on="0"/>
        <pt x="30" y="841" on="1"/>
        <pt x="21" y="834" on="1"/>
        <pt x="21" y="910" on="1"/>
        <pt x="53" y="938" on="0"/>
        <pt x="78" y="938" on="1"/>
        <pt x="95" y="938" on="0"/>
        <pt x="119" y="925" on="1"/>
        <pt x="142" y="911" on="0"/>
        <pt x="158" y="911" on="1"/>
        <pt x="181" y="911" on="0"/>
        <pt x="203" y="911" on="1"/>
        <pt x="218" y="911" on="0"/>
        <pt x="235" y="921" on="1"/>
        <pt x="252" y="931" on="0"/>
        <pt x="261" y="941" on="1"/>
      </contour>
      <contour>
        <pt x="60" y="774" on="1"/>
        <pt x="212" y="774" on="1"/>
        <pt x="212" y="-2" on="1"/>
        <pt x="60" y="-2" on="1"/>
      </contour>
    </TTGlyph>
    <TTGlyph name="Itilde.1" xMin="150" yMin="-2" xMax="451" yMax="951">
      <contour>
        <pt x="451" y="951" on="1"/>
        <pt x="451" y="875" on="1"/>
        <pt x="450" y="873" on="0"/>
        <pt x="443" y="864" on="1"/>
        <pt x="435" y="855" on="0"/>
        <pt x="419" y="845" on="1"/>
        <pt x="403" y="834" on="0"/>
        <pt x="387" y="834" on="1"/>
        <pt x="337" y="834" on="1"/>
        <pt x="321" y="834" on="0"/>
        <pt x="299" y="848" on="1"/>
        <pt x="276" y="862" on="0"/>
        <pt x="260" y="862" on="1"/>
        <pt x="249" y="862" on="0"/>
        <pt x="234" y="855" on="1"/>
        <pt x="219" y="848" on="0"/>
        <pt x="210" y="841" on="1"/>
        <pt x="201" y="834" on="1"/>
        <pt x="201" y="910" on="1"/>
        <pt x="233" y="938" on="0"/>
        <pt x="258" y="938" on="1"/>
        <pt x="275" y="938" on="0"/>
        <pt x="299" y="925" on="1"/>
        <pt x="322" y="911" on="0"/>
        <pt x="338" y="911" on="1"/>
        <pt x="361" y="911" on="0"/>
        <pt x="383" y="911" on="1"/>
        <pt x="398" y="911" on="0"/>
        <pt x="415" y="921" on="1"/>
        <pt x="432" y="931" on="0"/>
        <pt x="441" y="941" on="1"/>
      </contour>
      <contour>
        <pt x="150" y="774" on="1"/>
        <pt x="302" y="774" on="1"/>
        <pt x="302" y="-2" on="1"/>
        <pt x="150" y="-2" on="1"/>
      </contour>
    </TTGlyph>
    <TTGlyph name="J" xMin="50" yMin="-3" xMax="369" yMax="761">
      <contour>
        <pt x="50" y="6" on="1"/>
        <pt x="84" y="-3" on="0"/>
        <pt x="121" y="-3" on="1"/>
        <pt x="208" y="-3" on="0"/>
        <pt x="342" y="101" on="0"/>
        <pt x="366" y="184" on="1"/>
        <pt x="369" y="761" on="1"/>
        <pt x="202" y="761" on="1"/>
        <pt x="202" y="185" on="1"/>
        <pt x="170" y="148" on="0"/>
        <pt x="121" y="148" on="1"/>
        <pt x="81" y="148" on="0"/>
        <pt x="50" y="174" on="1"/>
      </contour>
    </TTGlyph>
    <TTGlyph name="J.0" xMin="60" yMin="-3" xMax="379" yMax="761">
      <contour>
        <pt x="60" y="6" on="1"/>
        <pt x="60" y="174" on="1"/>
        <pt x="91" y="148" on="0"/>
        <pt x="131" y="148" on="1"/>
        <pt x="180" y="148" on="0"/>
        <pt x="212" y="185" on="1"/>
        <pt x="212" y="761" on="1"/>
        <pt x="379" y="761" on="1"/>
        <pt x="376" y="184" on="1"/>
        <pt x="352" y="101" on="0"/>
        <pt x="285" y="49" on="1"/>
        <pt x="218" y="-3" on="0"/>
        <pt x="131" y="-3" on="1"/>
        <pt x="94" y="-3" on="0"/>
      </contour>
    </TTGlyph>
    <TTGlyph name="J.1" xMin="150" yMin="-3" xMax="469" yMax="761">
      <component glyphName="J.0" x="90" y="0" flags="0x4"/>
    </TTGlyph>
    <TTGlyph name="J.2" xMin="150" yMin="-3" xMax="469" yMax="761">
      <component glyphName="J.0" x="90" y="0" flags="0x4"/>
    </TTGlyph>
    <TTGlyph name="Jcircumflex" xMin="50" yMin="-3" xMax="386" yMax="1000">
      <component glyphName="uni0302" x="286" y="66" flags="0x4"/>
      <component glyphName="J" x="0" y="0" flags="0x204"/>
    </TTGlyph>
    <TTGlyph name="Jcircumflex.0" xMin="60" yMin="-3" xMax="406" yMax="1000">
      <contour>
        <pt x="206" y="832" on="1"/>
        <pt x="277" y="1000" on="1"/>
        <pt x="278" y="1000" on="1"/>
        <pt x="353" y="1000" on="1"/>
        <pt x="354" y="1000" on="1"/>
        <pt x="406" y="832" on="1"/>
        <pt x="330" y="832" on="1"/>
        <pt x="310" y="940" on="1"/>
        <pt x="282" y="832" on="1"/>
      </contour>
      <contour>
        <pt x="60" y="6" on="1"/>
        <pt x="60" y="174" on="1"/>
        <pt x="91" y="148" on="0"/>
        <pt x="131" y="148" on="1"/>
        <pt x="180" y="148" on="0"/>
        <pt x="212" y="185" on="1"/>
        <pt x="212" y="761" on="1"/>
        <pt x="379" y="761" on="1"/>
        <pt x="376" y="184" on="1"/>
        <pt x="352" y="101" on="0"/>
        <pt x="285" y="49" on="1"/>
        <pt x="218" y="-3" on="0"/>
        <pt x="131" y="-3" on="1"/>
        <pt x="94" y="-3" on="0"/>
      </contour>
    </TTGlyph>
    <TTGlyph name="Jcircumflex.1" xMin="150" yMin="-3" xMax="586" yMax="1000">
      <contour>
        <pt x="386" y="832" on="1"/>
        <pt x="457" y="1000" on="1"/>
        <pt x="458" y="1000" on="1"/>
        <pt x="533" y="1000" on="1"/>
        <pt x="534" y="1000" on="1"/>
        <pt x="586" y="832" on="1"/>
        <pt x="510" y="832" on="1"/>
        <pt x="490" y="940" on="1"/>
        <pt x="462" y="832" on="1"/>
      </contour>
      <contour>
        <pt x="150" y="6" on="1"/>
        <pt x="150" y="174" on="1"/>
        <pt x="181" y="148" on="0"/>
        <pt x="221" y="148" on="1"/>
        <pt x="270" y="148" on="0"/>
        <pt x="302" y="185" on="1"/>
        <pt x="302" y="761" on="1"/>
        <pt x="469" y="761" on="1"/>
        <pt x="466" y="184" on="1"/>
        <pt x="442" y="101" on="0"/>
        <pt x="375" y="49" on="1"/>
        <pt x="308" y="-3" on="0"/>
        <pt x="221" y="-3" on="1"/>
        <pt x="184" y="-3" on="0"/>
      </contour>
    </TTGlyph>
    <TTGlyph name="K" xMin="50" yMin="-3" xMax="703" yMax="774">
      <contour>
        <pt x="50" y="774" on="1"/>
        <pt x="50" y="-2" on="1"/>
        <pt x="202" y="-2" on="1"/>
        <pt x="202" y="219" on="1"/>
        <pt x="259" y="302" on="1"/>
        <pt x="511" y="-2" on="1"/>
        <pt x="703" y="-3" on="1"/>
        <pt x="372" y="387" on="1"/>
        <pt x="633" y="768" on="1"/>
        <pt x="447" y="770" on="1"/>
        <pt x="202" y="433" on="1"/>
        <pt x="202" y="774" on="1"/>
      </contour>
    </TTGlyph>
    <TTGlyph name="K.0" xMin="60" yMin="-3" xMax="713" yMax="774">
      <contour>
        <pt x="60" y="774" on="1"/>
        <pt x="212" y="774" on="1"/>
        <pt x="212" y="433" on="1"/>
        <pt x="457" y="770" on="1"/>
        <pt x="643" y="768" on="1"/>
        <pt x="382" y="387" on="1"/>
        <pt x="713" y="-3" on="1"/>
        <pt x="521" y="-2" on="1"/>
        <pt x="269" y="302" on="1"/>
        <pt x="212" y="219" on="1"/>
        <pt x="212" y="-2" on="1"/>
        <pt x="60" y="-2" on="1"/>
      </contour>
    </TTGlyph>
    <TTGlyph name="K.1" xMin="150" yMin="-3" xMax="803" yMax="774">
      <component glyphName="K.0" x="90" y="0" flags="0x4"/>
    </TTGlyph>
    <TTGlyph name="K.2" xMin="150" yMin="-3" xMax="803" yMax="774">
      <component glyphName="K.0" x="90" y="0" flags="0x4"/>
    </TTGlyph>
    <TTGlyph name="L" xMin="50" yMin="-3" xMax="668" yMax="774">
      <contour>
        <pt x="50" y="774" on="1"/>
        <pt x="50" y="-2" on="1"/>
        <pt x="51" y="-2" on="1"/>
        <pt x="51" y="-3" on="1"/>
        <pt x="668" y="-3" on="1"/>
        <pt x="667" y="149" on="1"/>
        <pt x="202" y="149" on="1"/>
        <pt x="202" y="774" on="1"/>
      </contour>
    </TTGlyph>
    <TTGlyph name="L.0" xMin="60" yMin="-3" xMax="678" yMax="774">
      <contour>
        <pt x="60" y="774" on="1"/>
        <pt x="212" y="774" on="1"/>
        <pt x="212" y="149" on="1"/>
        <pt x="677" y="149" on="1"/>
        <pt x="678" y="-3" on="1"/>
        <pt x="61" y="-3" on="1"/>
        <pt x="61" y="-2" on="1"/>
        <pt x="60" y="-2" on="1"/>
      </contour>
    </TTGlyph>
    <TTGlyph name="L.1" xMin="150" yMin="-3" xMax="768" yMax="774">
      <component glyphName="L.0" x="90" y="0" flags="0x4"/>
    </TTGlyph>
    <TTGlyph name="L.2" xMin="150" yMin="-3" xMax="768" yMax="774">
      <component glyphName="L.0" x="90" y="0" flags="0x4"/>
    </TTGlyph>
    <TTGlyph name="Lacute" xMin="18" yMin="-3" xMax="668" yMax="1123">
      <component glyphName="acutecomb" x="163" y="318" flags="0x4"/>
      <component glyphName="L" x="0" y="0" flags="0x204"/>
    </TTGlyph>
    <TTGlyph name="Lacute.0" xMin="38" yMin="-3" xMax="678" yMax="1123">
      <contour>
        <pt x="146" y="834" on="1"/>
        <pt x="38" y="941" on="1"/>
        <pt x="220" y="1123" on="1"/>
        <pt x="328" y="1016" on="1"/>
      </contour>
      <contour>
        <pt x="60" y="774" on="1"/>
        <pt x="212" y="774" on="1"/>
        <pt x="212" y="149" on="1"/>
        <pt x="677" y="149" on="1"/>
        <pt x="678" y="-3" on="1"/>
        <pt x="61" y="-3" on="1"/>
        <pt x="61" y="-2" on="1"/>
        <pt x="60" y="-2" on="1"/>
      </contour>
    </TTGlyph>
    <TTGlyph name="Lacute.1" xMin="150" yMin="-3" xMax="768" yMax="1123">
      <contour>
        <pt x="326" y="834" on="1"/>
        <pt x="218" y="941" on="1"/>
        <pt x="400" y="1123" on="1"/>
        <pt x="508" y="1016" on="1"/>
      </contour>
      <contour>
        <pt x="150" y="774" on="1"/>
        <pt x="302" y="774" on="1"/>
        <pt x="302" y="149" on="1"/>
        <pt x="767" y="149" on="1"/>
        <pt x="768" y="-3" on="1"/>
        <pt x="151" y="-3" on="1"/>
        <pt x="151" y="-2" on="1"/>
        <pt x="150" y="-2" on="1"/>
      </contour>
    </TTGlyph>
    <TTGlyph name="M" xMin="50" yMin="-2" xMax="1002" yMax="768">
      <contour>
        <pt x="50" y="768" on="1"/>
        <pt x="50" y="-2" on="1"/>
        <pt x="202" y="-2" on="1"/>
        <pt x="202" y="476" on="1"/>
        <pt x="450" y="0" on="1"/>
        <pt x="602" y="0" on="1"/>
        <pt x="850" y="476" on="1"/>
        <pt x="850" y="-2" on="1"/>
        <pt x="1002" y="-2" on="1"/>
        <pt x="1002" y="768" on="1"/>
        <pt x="850" y="768" on="1"/>
        <pt x="526" y="146" on="1"/>
        <pt x="202" y="768" on="1"/>
      </contour>
    </TTGlyph>
    <TTGlyph name="M.0" xMin="60" yMin="-2" xMax="1012" yMax="768">
      <contour>
        <pt x="60" y="768" on="1"/>
        <pt x="212" y="768" on="1"/>
        <pt x="536" y="146" on="1"/>
        <pt x="860" y="768" on="1"/>
        <pt x="1012" y="768" on="1"/>
        <pt x="1012" y="-2" on="1"/>
        <pt x="860" y="-2" on="1"/>
        <pt x="860" y="476" on="1"/>
        <pt x="612" y="0" on="1"/>
        <pt x="460" y="0" on="1"/>
        <pt x="212" y="476" on="1"/>
        <pt x="212" y="-2" on="1"/>
        <pt x="60" y="-2" on="1"/>
      </contour>
    </TTGlyph>
    <TTGlyph name="M.1" xMin="150" yMin="-2" xMax="1102" yMax="768">
      <component glyphName="M.0" x="90" y="0" flags="0x4"/>
    </TTGlyph>
    <TTGlyph name="M.2" xMin="150" yMin="-2" xMax="1102" yMax="768">
      <component glyphName="M.0" x="90" y="0" flags="0x4"/>
    </TTGlyph>
    <TTGlyph name="N" xMin="50" yMin="-2" xMax="802" yMax="774">
      <contour>
        <pt x="50" y="774" on="1"/>
        <pt x="50" y="-2" on="1"/>
        <pt x="202" y="-2" on="1"/>
        <pt x="202" y="523" on="1"/>
        <pt x="650" y="-2" on="1"/>
        <pt x="802" y="-2" on="1"/>
        <pt x="802" y="774" on="1"/>
        <pt x="650" y="774" on="1"/>
        <pt x="650" y="251" on="1"/>
        <pt x="202" y="774" on="1"/>
      </contour>
    </TTGlyph>
    <TTGlyph name="N.0" xMin="60" yMin="-2" xMax="812" yMax="774">
      <contour>
        <pt x="60" y="774" on="1"/>
        <pt x="212" y="774" on="1"/>
        <pt x="660" y="251" on="1"/>
        <pt x="660" y="774" on="1"/>
        <pt x="812" y="774" on="1"/>
        <pt x="812" y="-2" on="1"/>
        <pt x="660" y="-2" on="1"/>
        <pt x="212" y="523" on="1"/>
        <pt x="212" y="-2" on="1"/>
        <pt x="60" y="-2" on="1"/>
      </contour>
    </TTGlyph>
    <TTGlyph name="N.1" xMin="150" yMin="-2" xMax="902" yMax="774">
      <component glyphName="N.0" x="90" y="0" flags="0x4"/>
    </TTGlyph>
    <TTGlyph name="N.2" xMin="150" yMin="-2" xMax="902" yMax="774">
      <component glyphName="N.0" x="90" y="0" flags="0x4"/>
    </TTGlyph>
    <TTGlyph name="Nacute" xMin="50" yMin="-2" xMax="802" yMax="1123">
      <component glyphName="acutecomb" x="463" y="318" flags="0x4"/>
      <component glyphName="N" x="0" y="0" flags="0x204"/>
    </TTGlyph>
    <TTGlyph name="Nacute.0" xMin="60" yMin="-2" xMax="812" yMax="1123">
      <contour>
        <pt x="446" y="834" on="1"/>
        <pt x="338" y="941" on="1"/>
        <pt x="520" y="1123" on="1"/>
        <pt x="628" y="1016" on="1"/>
      </contour>
      <contour>
        <pt x="60" y="774" on="1"/>
        <pt x="212" y="774" on="1"/>
        <pt x="660" y="251" on="1"/>
        <pt x="660" y="774" on="1"/>
        <pt x="812" y="774" on="1"/>
        <pt x="812" y="-2" on="1"/>
        <pt x="660" y="-2" on="1"/>
        <pt x="212" y="523" on="1"/>
        <pt x="212" y="-2" on="1"/>
        <pt x="60" y="-2" on="1"/>
      </contour>
    </TTGlyph>
    <TTGlyph name="Nacute.1" xMin="150" yMin="-2" xMax="902" yMax="1123">
      <contour>
        <pt x="626" y="834" on="1"/>
        <pt x="518" y="941" on="1"/>
        <pt x="700" y="1123" on="1"/>
        <pt x="808" y="1016" on="1"/>
      </contour>
      <contour>
        <pt x="150" y="774" on="1"/>
        <pt x="302" y="774" on="1"/>
        <pt x="750" y="251" on="1"/>
        <pt x="750" y="774" on="1"/>
        <pt x="902" y="774" on="1"/>
        <pt x="902" y="-2" on="1"/>
        <pt x="750" y="-2" on="1"/>
        <pt x="302" y="523" on="1"/>
        <pt x="302" y="-2" on="1"/>
        <pt x="150" y="-2" on="1"/>
      </contour>
    </TTGlyph>
    <TTGlyph name="Ncaron" xMin="50" yMin="-2" xMax="802" yMax="1002">
      <component glyphName="uni030C" x="426" y="68" flags="0x4"/>
      <component glyphName="N" x="0" y="0" flags="0x204"/>
    </TTGlyph>
    <TTGlyph name="Ncaron.0" xMin="60" yMin="-2" xMax="812" yMax="1002">
      <contour>
        <pt x="346" y="1002" on="1"/>
        <pt x="422" y="1002" on="1"/>
        <pt x="450" y="894" on="1"/>
        <pt x="470" y="1002" on="1"/>
        <pt x="546" y="1002" on="1"/>
        <pt x="494" y="834" on="1"/>
        <pt x="493" y="834" on="1"/>
        <pt x="418" y="834" on="1"/>
        <pt x="417" y="834" on="1"/>
      </contour>
      <contour>
        <pt x="60" y="774" on="1"/>
        <pt x="212" y="774" on="1"/>
        <pt x="660" y="251" on="1"/>
        <pt x="660" y="774" on="1"/>
        <pt x="812" y="774" on="1"/>
        <pt x="812" y="-2" on="1"/>
        <pt x="660" y="-2" on="1"/>
        <pt x="212" y="523" on="1"/>
        <pt x="212" y="-2" on="1"/>
        <pt x="60" y="-2" on="1"/>
      </contour>
    </TTGlyph>
    <TTGlyph name="Ncaron.1" xMin="150" yMin="-2" xMax="902" yMax="1002">
      <contour>
        <pt x="526" y="1002" on="1"/>
        <pt x="602" y="1002" on="1"/>
        <pt x="630" y="894" on="1"/>
        <pt x="650" y="1002" on="1"/>
        <pt x="726" y="1002" on="1"/>
        <pt x="674" y="834" on="1"/>
        <pt x="673" y="834" on="1"/>
        <pt x="598" y="834" on="1"/>
        <pt x="597" y="834" on="1"/>
      </contour>
      <contour>
        <pt x="150" y="774" on="1"/>
        <pt x="302" y="774" on="1"/>
        <pt x="750" y="251" on="1"/>
        <pt x="750" y="774" on="1"/>
        <pt x="902" y="774" on="1"/>
        <pt x="902" y="-2" on="1"/>
        <pt x="750" y="-2" on="1"/>
        <pt x="302" y="523" on="1"/>
        <pt x="302" y="-2" on="1"/>
        <pt x="150" y="-2" on="1"/>
      </contour>
    </TTGlyph>
    <TTGlyph name="Ntilde" xMin="50" yMin="-2" xMax="802" yMax="951">
      <component glyphName="tildecomb" x="426" y="32" flags="0x4"/>
      <component glyphName="N" x="0" y="0" flags="0x204"/>
    </TTGlyph>
    <TTGlyph name="Ntilde.0" xMin="60" yMin="-2" xMax="812" yMax="951">
      <contour>
        <pt x="571" y="951" on="1"/>
        <pt x="571" y="875" on="1"/>
        <pt x="570" y="873" on="0"/>
        <pt x="563" y="864" on="1"/>
        <pt x="555" y="855" on="0"/>
        <pt x="539" y="845" on="1"/>
        <pt x="523" y="834" on="0"/>
        <pt x="507" y="834" on="1"/>
        <pt x="457" y="834" on="1"/>
        <pt x="441" y="834" on="0"/>
        <pt x="419" y="848" on="1"/>
        <pt x="396" y="862" on="0"/>
        <pt x="380" y="862" on="1"/>
        <pt x="369" y="862" on="0"/>
        <pt x="354" y="855" on="1"/>
        <pt x="339" y="848" on="0"/>
        <pt x="330" y="841" on="1"/>
        <pt x="321" y="834" on="1"/>
        <pt x="321" y="910" on="1"/>
        <pt x="353" y="938" on="0"/>
        <pt x="378" y="938" on="1"/>
        <pt x="395" y="938" on="0"/>
        <pt x="419" y="925" on="1"/>
        <pt x="442" y="911" on="0"/>
        <pt x="458" y="911" on="1"/>
        <pt x="481" y="911" on="0"/>
        <pt x="503" y="911" on="1"/>
        <pt x="518" y="911" on="0"/>
        <pt x="535" y="921" on="1"/>
        <pt x="552" y="931" on="0"/>
        <pt x="561" y="941" on="1"/>
      </contour>
      <contour>
        <pt x="60" y="774" on="1"/>
        <pt x="212" y="774" on="1"/>
        <pt x="660" y="251" on="1"/>
        <pt x="660" y="774" on="1"/>
        <pt x="812" y="774" on="1"/>
        <pt x="812" y="-2" on="1"/>
        <pt x="660" y="-2" on="1"/>
        <pt x="212" y="523" on="1"/>
        <pt x="212" y="-2" on="1"/>
        <pt x="60" y="-2" on="1"/>
      </contour>
    </TTGlyph>
    <TTGlyph name="Ntilde.1" xMin="150" yMin="-2" xMax="902" yMax="951">
      <contour>
        <pt x="751" y="951" on="1"/>
        <pt x="751" y="875" on="1"/>
        <pt x="750" y="873" on="0"/>
        <pt x="743" y="864" on="1"/>
        <pt x="735" y="855" on="0"/>
        <pt x="719" y="845" on="1"/>
        <pt x="703" y="834" on="0"/>
        <pt x="687" y="834" on="1"/>
        <pt x="637" y="834" on="1"/>
        <pt x="621" y="834" on="0"/>
        <pt x="599" y="848" on="1"/>
        <pt x="576" y="862" on="0"/>
        <pt x="560" y="862" on="1"/>
        <pt x="549" y="862" on="0"/>
        <pt x="534" y="855" on="1"/>
        <pt x="519" y="848" on="0"/>
        <pt x="510" y="841" on="1"/>
        <pt x="501" y="834" on="1"/>
        <pt x="501" y="910" on="1"/>
        <pt x="533" y="938" on="0"/>
        <pt x="558" y="938" on="1"/>
        <pt x="575" y="938" on="0"/>
        <pt x="599" y="925" on="1"/>
        <pt x="622" y="911" on="0"/>
        <pt x="638" y="911" on="1"/>
        <pt x="661" y="911" on="0"/>
        <pt x="683" y="911" on="1"/>
        <pt x="698" y="911" on="0"/>
        <pt x="715" y="921" on="1"/>
        <pt x="732" y="931" on="0"/>
        <pt x="741" y="941" on="1"/>
      </contour>
      <contour>
        <pt x="150" y="774" on="1"/>
        <pt x="302" y="774" on="1"/>
        <pt x="750" y="251" on="1"/>
        <pt x="750" y="774" on="1"/>
        <pt x="902" y="774" on="1"/>
        <pt x="902" y="-2" on="1"/>
        <pt x="750" y="-2" on="1"/>
        <pt x="302" y="523" on="1"/>
        <pt x="302" y="-2" on="1"/>
        <pt x="150" y="-2" on="1"/>
      </contour>
    </TTGlyph>
    <TTGlyph name="O" xMin="50" yMin="-14" xMax="814" yMax="773">
      <contour>
        <pt x="814" y="380" on="1"/>
        <pt x="814" y="543" on="0"/>
        <pt x="590" y="773" on="0"/>
        <pt x="274" y="773" on="0"/>
        <pt x="50" y="543" on="0"/>
        <pt x="50" y="217" on="0"/>
        <pt x="274" y="-14" on="0"/>
        <pt x="590" y="-14" on="0"/>
        <pt x="814" y="217" on="0"/>
      </contour>
      <contour>
        <pt x="661" y="378" on="1"/>
        <pt x="661" y="280" on="0"/>
        <pt x="527" y="143" on="0"/>
        <pt x="337" y="143" on="0"/>
        <pt x="203" y="280" on="0"/>
        <pt x="203" y="378" on="1"/>
        <pt x="203" y="475" on="0"/>
        <pt x="337" y="612" on="0"/>
        <pt x="527" y="612" on="0"/>
        <pt x="661" y="475" on="0"/>
      </contour>
    </TTGlyph>
    <TTGlyph name="O.0" xMin="60" yMin="-14" xMax="824" yMax="773">
      <contour>
        <pt x="824" y="380" on="1"/>
        <pt x="824" y="217" on="0"/>
        <pt x="712" y="102" on="1"/>
        <pt x="600" y="-14" on="0"/>
        <pt x="442" y="-14" on="1"/>
        <pt x="284" y="-14" on="0"/>
        <pt x="172" y="102" on="1"/>
        <pt x="60" y="217" on="0"/>
        <pt x="60" y="380" on="1"/>
        <pt x="60" y="543" on="0"/>
        <pt x="172" y="658" on="1"/>
        <pt x="284" y="773" on="0"/>
        <pt x="442" y="773" on="1"/>
        <pt x="600" y="773" on="0"/>
        <pt x="712" y="658" on="1"/>
        <pt x="824" y="543" on="0"/>
      </contour>
      <contour>
        <pt x="671" y="378" on="1"/>
        <pt x="671" y="475" on="0"/>
        <pt x="604" y="544" on="1"/>
        <pt x="537" y="612" on="0"/>
        <pt x="442" y="612" on="1"/>
        <pt x="347" y="612" on="0"/>
        <pt x="280" y="544" on="1"/>
        <pt x="213" y="475" on="0"/>
        <pt x="213" y="378" on="1"/>
        <pt x="213" y="280" on="0"/>
        <pt x="280" y="212" on="1"/>
        <pt x="347" y="143" on="0"/>
        <pt x="442" y="143" on="1"/>
        <pt x="537" y="143" on="0"/>
        <pt x="604" y="212" on="1"/>
        <pt x="671" y="280" on="0"/>
      </contour>
    </TTGlyph>
    <TTGlyph name="O.1" xMin="150" yMin="-14" xMax="914" yMax="773">
      <component glyphName="O.0" x="90" y="0" flags="0x4"/>
    </TTGlyph>
    <TTGlyph name="O.2" xMin="150" yMin="-14" xMax="914" yMax="773">
      <component glyphName="O.0" x="90" y="0" flags="0x4"/>
    </TTGlyph>
    <TTGlyph name="Oacute" xMin="50" yMin="-14" xMax="814" yMax="1122">
      <component glyphName="acutecomb" x="469" y="317" flags="0x4"/>
      <component glyphName="O" x="0" y="0" flags="0x204"/>
    </TTGlyph>
    <TTGlyph name="Oacute.0" xMin="60" yMin="-14" xMax="824" yMax="1122">
      <contour>
        <pt x="452" y="833" on="1"/>
        <pt x="344" y="940" on="1"/>
        <pt x="526" y="1122" on="1"/>
        <pt x="634" y="1015" on="1"/>
      </contour>
      <contour>
        <pt x="824" y="380" on="1"/>
        <pt x="824" y="217" on="0"/>
        <pt x="712" y="102" on="1"/>
        <pt x="600" y="-14" on="0"/>
        <pt x="442" y="-14" on="1"/>
        <pt x="284" y="-14" on="0"/>
        <pt x="172" y="102" on="1"/>
        <pt x="60" y="217" on="0"/>
        <pt x="60" y="380" on="1"/>
        <pt x="60" y="543" on="0"/>
        <pt x="172" y="658" on="1"/>
        <pt x="284" y="773" on="0"/>
        <pt x="442" y="773" on="1"/>
        <pt x="600" y="773" on="0"/>
        <pt x="712" y="658" on="1"/>
        <pt x="824" y="543" on="0"/>
      </contour>
      <contour>
        <pt x="671" y="378" on="1"/>
        <pt x="671" y="475" on="0"/>
        <pt x="604" y="544" on="1"/>
        <pt x="537" y="612" on="0"/>
        <pt x="442" y="612" on="1"/>
        <pt x="347" y="612" on="0"/>
        <pt x="280" y="544" on="1"/>
        <pt x="213" y="475" on="0"/>
        <pt x="213" y="378" on="1"/>
        <pt x="213" y="280" on="0"/>
        <pt x="280" y="212" on="1"/>
        <pt x="347" y="143" on="0"/>
        <pt x="442" y="143" on="1"/>
        <pt x="537" y="143" on="0"/>
        <pt x="604" y="212" on="1"/>
        <pt x="671" y="280" on="0"/>
      </contour>
    </TTGlyph>
    <TTGlyph name="Oacute.1" xMin="150" yMin="-14" xMax="914" yMax="1122">
      <contour>
        <pt x="632" y="833" on="1"/>
        <pt x="524" y="940" on="1"/>
        <pt x="706" y="1122" on="1"/>
        <pt x="814" y="1015" on="1"/>
      </contour>
      <contour>
        <pt x="914" y="380" on="1"/>
        <pt x="914" y="217" on="0"/>
        <pt x="802" y="102" on="1"/>
        <pt x="690" y="-14" on="0"/>
        <pt x="532" y="-14" on="1"/>
        <pt x="374" y="-14" on="0"/>
        <pt x="262" y="102" on="1"/>
        <pt x="150" y="217" on="0"/>
        <pt x="150" y="380" on="1"/>
        <pt x="150" y="543" on="0"/>
        <pt x="262" y="658" on="1"/>
        <pt x="374" y="773" on="0"/>
        <pt x="532" y="773" on="1"/>
        <pt x="690" y="773" on="0"/>
        <pt x="802" y="658" on="1"/>
        <pt x="914" y="543" on="0"/>
      </contour>
      <contour>
        <pt x="761" y="378" on="1"/>
        <pt x="761" y="475" on="0"/>
        <pt x="694" y="544" on="1"/>
        <pt x="627" y="612" on="0"/>
        <pt x="532" y="612" on="1"/>
        <pt x="437" y="612" on="0"/>
        <pt x="370" y="544" on="1"/>
        <pt x="303" y="475" on="0"/>
        <pt x="303" y="378" on="1"/>
        <pt x="303" y="280" on="0"/>
        <pt x="370" y="212" on="1"/>
        <pt x="437" y="143" on="0"/>
        <pt x="532" y="143" on="1"/>
        <pt x="627" y="143" on="0"/>
        <pt x="694" y="212" on="1"/>
        <pt x="761" y="280" on="0"/>
      </contour>
    </TTGlyph>
    <TTGlyph name="Obreve" xMin="50" yMin="-14" xMax="814" yMax="1060">
      <component glyphName="uni0306" x="432" y="25" flags="0x4"/>
      <component glyphName="O" x="0" y="0" flags="0x204"/>
    </TTGlyph>
    <TTGlyph name="Obreve.0" xMin="60" yMin="-14" xMax="824" yMax="1060">
      <contour>
        <pt x="269" y="1024" on="1"/>
        <pt x="269" y="974" on="0"/>
        <pt x="325" y="930" on="1"/>
        <pt x="380" y="885" on="0"/>
        <pt x="452" y="885" on="1"/>
        <pt x="525" y="885" on="0"/>
        <pt x="581" y="930" on="1"/>
        <pt x="636" y="974" on="0"/>
        <pt x="636" y="1024" on="1"/>
        <pt x="645" y="1060" on="1"/>
        <pt x="648" y="1043" on="0"/>
        <pt x="648" y="1024" on="1"/>
        <pt x="648" y="945" on="0"/>
        <pt x="591" y="889" on="1"/>
        <pt x="533" y="833" on="0"/>
        <pt x="451" y="833" on="1"/>
        <pt x="370" y="833" on="0"/>
        <pt x="313" y="889" on="1"/>
        <pt x="255" y="945" on="0"/>
        <pt x="255" y="1024" on="1"/>
        <pt x="255" y="1043" on="0"/>
        <pt x="258" y="1060" on="1"/>
      </contour>
      <contour>
        <pt x="824" y="380" on="1"/>
        <pt x="824" y="217" on="0"/>
        <pt x="712" y="102" on="1"/>
        <pt x="600" y="-14" on="0"/>
        <pt x="442" y="-14" on="1"/>
        <pt x="284" y="-14" on="0"/>
        <pt x="172" y="102" on="1"/>
        <pt x="60" y="217" on="0"/>
        <pt x="60" y="380" on="1"/>
        <pt x="60" y="543" on="0"/>
        <pt x="172" y="658" on="1"/>
        <pt x="284" y="773" on="0"/>
        <pt x="442" y="773" on="1"/>
        <pt x="600" y="773" on="0"/>
        <pt x="712" y="658" on="1"/>
        <pt x="824" y="543" on="0"/>
      </contour>
      <contour>
        <pt x="671" y="378" on="1"/>
        <pt x="671" y="475" on="0"/>
        <pt x="604" y="544" on="1"/>
        <pt x="537" y="612" on="0"/>
        <pt x="442" y="612" on="1"/>
        <pt x="347" y="612" on="0"/>
        <pt x="280" y="544" on="1"/>
        <pt x="213" y="475" on="0"/>
        <pt x="213" y="378" on="1"/>
        <pt x="213" y="280" on="0"/>
        <pt x="280" y="212" on="1"/>
        <pt x="347" y="143" on="0"/>
        <pt x="442" y="143" on="1"/>
        <pt x="537" y="143" on="0"/>
        <pt x="604" y="212" on="1"/>
        <pt x="671" y="280" on="0"/>
      </contour>
    </TTGlyph>
    <TTGlyph name="Obreve.1" xMin="150" yMin="-14" xMax="914" yMax="1060">
      <contour>
        <pt x="449" y="1024" on="1"/>
        <pt x="449" y="974" on="0"/>
        <pt x="505" y="930" on="1"/>
        <pt x="560" y="885" on="0"/>
        <pt x="632" y="885" on="1"/>
        <pt x="705" y="885" on="0"/>
        <pt x="761" y="930" on="1"/>
        <pt x="816" y="974" on="0"/>
        <pt x="816" y="1024" on="1"/>
        <pt x="825" y="1060" on="1"/>
        <pt x="828" y="1043" on="0"/>
        <pt x="828" y="1024" on="1"/>
        <pt x="828" y="945" on="0"/>
        <pt x="771" y="889" on="1"/>
        <pt x="713" y="833" on="0"/>
        <pt x="631" y="833" on="1"/>
        <pt x="550" y="833" on="0"/>
        <pt x="493" y="889" on="1"/>
        <pt x="435" y="945" on="0"/>
        <pt x="435" y="1024" on="1"/>
        <pt x="435" y="1043" on="0"/>
        <pt x="438" y="1060" on="1"/>
      </contour>
      <contour>
        <pt x="914" y="380" on="1"/>
        <pt x="914" y="217" on="0"/>
        <pt x="802" y="102" on="1"/>
        <pt x="690" y="-14" on="0"/>
        <pt x="532" y="-14" on="1"/>
        <pt x="374" y="-14" on="0"/>
        <pt x="262" y="102" on="1"/>
        <pt x="150" y="217" on="0"/>
        <pt x="150" y="380" on="1"/>
        <pt x="150" y="543" on="0"/>
        <pt x="262" y="658" on="1"/>
        <pt x="374" y="773" on="0"/>
        <pt x="532" y="773" on="1"/>
        <pt x="690" y="773" on="0"/>
        <pt x="802" y="658" on="1"/>
        <pt x="914" y="543" on="0"/>
      </contour>
      <contour>
        <pt x="761" y="378" on="1"/>
        <pt x="761" y="475" on="0"/>
        <pt x="694" y="544" on="1"/>
        <pt x="627" y="612" on="0"/>
        <pt x="532" y="612" on="1"/>
        <pt x="437" y="612" on="0"/>
        <pt x="370" y="544" on="1"/>
        <pt x="303" y="475" on="0"/>
        <pt x="303" y="378" on="1"/>
        <pt x="303" y="280" on="0"/>
        <pt x="370" y="212" on="1"/>
        <pt x="437" y="143" on="0"/>
        <pt x="532" y="143" on="1"/>
        <pt x="627" y="143" on="0"/>
        <pt x="694" y="212" on="1"/>
        <pt x="761" y="280" on="0"/>
      </contour>
    </TTGlyph>
    <TTGlyph name="Ocircumflex" xMin="50" yMin="-14" xMax="814" yMax="1000">
      <component glyphName="uni0302" x="432" y="66" flags="0x4"/>
      <component glyphName="O" x="0" y="0" flags="0x204"/>
    </TTGlyph>
    <TTGlyph name="Ocircumflex.0" xMin="60" yMin="-14" xMax="824" yMax="1000">
      <contour>
        <pt x="352" y="832" on="1"/>
        <pt x="423" y="1000" on="1"/>
        <pt x="424" y="1000" on="1"/>
        <pt x="499" y="1000" on="1"/>
        <pt x="500" y="1000" on="1"/>
        <pt x="552" y="832" on="1"/>
        <pt x="476" y="832" on="1"/>
        <pt x="456" y="940" on="1"/>
        <pt x="428" y="832" on="1"/>
      </contour>
      <contour>
        <pt x="824" y="380" on="1"/>
        <pt x="824" y="217" on="0"/>
        <pt x="712" y="102" on="1"/>
        <pt x="600" y="-14" on="0"/>
        <pt x="442" y="-14" on="1"/>
        <pt x="284" y="-14" on="0"/>
        <pt x="172" y="102" on="1"/>
        <pt x="60" y="217" on="0"/>
        <pt x="60" y="380" on="1"/>
        <pt x="60" y="543" on="0"/>
        <pt x="172" y="658" on="1"/>
        <pt x="284" y="773" on="0"/>
        <pt x="442" y="773" on="1"/>
        <pt x="600" y="773" on="0"/>
        <pt x="712" y="658" on="1"/>
        <pt x="824" y="543" on="0"/>
      </contour>
      <contour>
        <pt x="671" y="378" on="1"/>
        <pt x="671" y="475" on="0"/>
        <pt x="604" y="544" on="1"/>
        <pt x="537" y="612" on="0"/>
        <pt x="442" y="612" on="1"/>
        <pt x="347" y="612" on="0"/>
        <pt x="280" y="544" on="1"/>
        <pt x="213" y="475" on="0"/>
        <pt x="213" y="378" on="1"/>
        <pt x="213" y="280" on="0"/>
        <pt x="280" y="212" on="1"/>
        <pt x="347" y="143" on="0"/>
        <pt x="442" y="143" on="1"/>
        <pt x="537" y="143" on="0"/>
        <pt x="604" y="212" on="1"/>
        <pt x="671" y="280" on="0"/>
      </contour>
    </TTGlyph>
    <TTGlyph name="Ocircumflex.1" xMin="150" yMin="-14" xMax="914" yMax="1000">
      <contour>
        <pt x="532" y="832" on="1"/>
        <pt x="603" y="1000" on="1"/>
        <pt x="604" y="1000" on="1"/>
        <pt x="679" y="1000" on="1"/>
        <pt x="680" y="1000" on="1"/>
        <pt x="732" y="832" on="1"/>
        <pt x="656" y="832" on="1"/>
        <pt x="636" y="940" on="1"/>
        <pt x="608" y="832" on="1"/>
      </contour>
      <contour>
        <pt x="914" y="380" on="1"/>
        <pt x="914" y="217" on="0"/>
        <pt x="802" y="102" on="1"/>
        <pt x="690" y="-14" on="0"/>
        <pt x="532" y="-14" on="1"/>
        <pt x="374" y="-14" on="0"/>
        <pt x="262" y="102" on="1"/>
        <pt x="150" y="217" on="0"/>
        <pt x="150" y="380" on="1"/>
        <pt x="150" y="543" on="0"/>
        <pt x="262" y="658" on="1"/>
        <pt x="374" y="773" on="0"/>
        <pt x="532" y="773" on="1"/>
        <pt x="690" y="773" on="0"/>
        <pt x="802" y="658" on="1"/>
        <pt x="914" y="543" on="0"/>
      </contour>
      <contour>
        <pt x="761" y="378" on="1"/>
        <pt x="761" y="475" on="0"/>
        <pt x="694" y="544" on="1"/>
        <pt x="627" y="612" on="0"/>
        <pt x="532" y="612" on="1"/>
        <pt x="437" y="612" on="0"/>
        <pt x="370" y="544" on="1"/>
        <pt x="303" y="475" on="0"/>
        <pt x="303" y="378" on="1"/>
        <pt x="303" y="280" on="0"/>
        <pt x="370" y="212" on="1"/>
        <pt x="437" y="143" on="0"/>
        <pt x="532" y="143" on="1"/>
        <pt x="627" y="143" on="0"/>
        <pt x="694" y="212" on="1"/>
        <pt x="761" y="280" on="0"/>
      </contour>
    </TTGlyph>
    <TTGlyph name="Odieresis" xMin="50" yMin="-14" xMax="814" yMax="975">
      <component glyphName="uni0308" x="432" y="335" flags="0x4"/>
      <component glyphName="O" x="0" y="0" flags="0x204"/>
    </TTGlyph>
    <TTGlyph name="Odieresis.0" xMin="60" yMin="-14" xMax="824" yMax="975">
      <contour>
        <pt x="476" y="833" on="1"/>
        <pt x="476" y="975" on="1"/>
        <pt x="628" y="975" on="1"/>
        <pt x="628" y="833" on="1"/>
      </contour>
      <contour>
        <pt x="276" y="833" on="1"/>
        <pt x="276" y="975" on="1"/>
        <pt x="428" y="975" on="1"/>
        <pt x="428" y="833" on="1"/>
      </contour>
      <contour>
        <pt x="824" y="380" on="1"/>
        <pt x="824" y="217" on="0"/>
        <pt x="712" y="102" on="1"/>
        <pt x="600" y="-14" on="0"/>
        <pt x="442" y="-14" on="1"/>
        <pt x="284" y="-14" on="0"/>
        <pt x="172" y="102" on="1"/>
        <pt x="60" y="217" on="0"/>
        <pt x="60" y="380" on="1"/>
        <pt x="60" y="543" on="0"/>
        <pt x="172" y="658" on="1"/>
        <pt x="284" y="773" on="0"/>
        <pt x="442" y="773" on="1"/>
        <pt x="600" y="773" on="0"/>
        <pt x="712" y="658" on="1"/>
        <pt x="824" y="543" on="0"/>
      </contour>
      <contour>
        <pt x="671" y="378" on="1"/>
        <pt x="671" y="475" on="0"/>
        <pt x="604" y="544" on="1"/>
        <pt x="537" y="612" on="0"/>
        <pt x="442" y="612" on="1"/>
        <pt x="347" y="612" on="0"/>
        <pt x="280" y="544" on="1"/>
        <pt x="213" y="475" on="0"/>
        <pt x="213" y="378" on="1"/>
        <pt x="213" y="280" on="0"/>
        <pt x="280" y="212" on="1"/>
        <pt x="347" y="143" on="0"/>
        <pt x="442" y="143" on="1"/>
        <pt x="537" y="143" on="0"/>
        <pt x="604" y="212" on="1"/>
        <pt x="671" y="280" on="0"/>
      </contour>
    </TTGlyph>
    <TTGlyph name="Odieresis.1" xMin="150" yMin="-14" xMax="914" yMax="975">
      <contour>
        <pt x="656" y="833" on="1"/>
        <pt x="656" y="975" on="1"/>
        <pt x="808" y="975" on="1"/>
        <pt x="808" y="833" on="1"/>
      </contour>
      <contour>
        <pt x="456" y="833" on="1"/>
        <pt x="456" y="975" on="1"/>
        <pt x="608" y="975" on="1"/>
        <pt x="608" y="833" on="1"/>
      </contour>
      <contour>
        <pt x="914" y="380" on="1"/>
        <pt x="914" y="217" on="0"/>
        <pt x="802" y="102" on="1"/>
        <pt x="690" y="-14" on="0"/>
        <pt x="532" y="-14" on="1"/>
        <pt x="374" y="-14" on="0"/>
        <pt x="262" y="102" on="1"/>
        <pt x="150" y="217" on="0"/>
        <pt x="150" y="380" on="1"/>
        <pt x="150" y="543" on="0"/>
        <pt x="262" y="658" on="1"/>
        <pt x="374" y="773" on="0"/>
        <pt x="532" y="773" on="1"/>
        <pt x="690" y="773" on="0"/>
        <pt x="802" y="658" on="1"/>
        <pt x="914" y="543" on="0"/>
      </contour>
      <contour>
        <pt x="761" y="378" on="1"/>
        <pt x="761" y="475" on="0"/>
        <pt x="694" y="544" on="1"/>
        <pt x="627" y="612" on="0"/>
        <pt x="532" y="612" on="1"/>
        <pt x="437" y="612" on="0"/>
        <pt x="370" y="544" on="1"/>
        <pt x="303" y="475" on="0"/>
        <pt x="303" y="378" on="1"/>
        <pt x="303" y="280" on="0"/>
        <pt x="370" y="212" on="1"/>
        <pt x="437" y="143" on="0"/>
        <pt x="532" y="143" on="1"/>
        <pt x="627" y="143" on="0"/>
        <pt x="694" y="212" on="1"/>
        <pt x="761" y="280" on="0"/>
      </contour>
    </TTGlyph>
    <TTGlyph name="Ograve" xMin="50" yMin="-14" xMax="814" yMax="1122">
      <component glyphName="gravecomb" x="395" y="317" flags="0x4"/>
      <component glyphName="O" x="0" y="0" flags="0x204"/>
    </TTGlyph>
    <TTGlyph name="Ograve.0" xMin="60" yMin="-14" xMax="824" yMax="1122">
      <contour>
        <pt x="452" y="833" on="1"/>
        <pt x="270" y="1015" on="1"/>
        <pt x="378" y="1122" on="1"/>
        <pt x="560" y="940" on="1"/>
      </contour>
      <contour>
        <pt x="824" y="380" on="1"/>
        <pt x="824" y="217" on="0"/>
        <pt x="712" y="102" on="1"/>
        <pt x="600" y="-14" on="0"/>
        <pt x="442" y="-14" on="1"/>
        <pt x="284" y="-14" on="0"/>
        <pt x="172" y="102" on="1"/>
        <pt x="60" y="217" on="0"/>
        <pt x="60" y="380" on="1"/>
        <pt x="60" y="543" on="0"/>
        <pt x="172" y="658" on="1"/>
        <pt x="284" y="773" on="0"/>
        <pt x="442" y="773" on="1"/>
        <pt x="600" y="773" on="0"/>
        <pt x="712" y="658" on="1"/>
        <pt x="824" y="543" on="0"/>
      </contour>
      <contour>
        <pt x="671" y="378" on="1"/>
        <pt x="671" y="475" on="0"/>
        <pt x="604" y="544" on="1"/>
        <pt x="537" y="612" on="0"/>
        <pt x="442" y="612" on="1"/>
        <pt x="347" y="612" on="0"/>
        <pt x="280" y="544" on="1"/>
        <pt x="213" y="475" on="0"/>
        <pt x="213" y="378" on="1"/>
        <pt x="213" y="280" on="0"/>
        <pt x="280" y="212" on="1"/>
        <pt x="347" y="143" on="0"/>
        <pt x="442" y="143" on="1"/>
        <pt x="537" y="143" on="0"/>
        <pt x="604" y="212" on="1"/>
        <pt x="671" y="280" on="0"/>
      </contour>
    </TTGlyph>
    <TTGlyph name="Ograve.1" xMin="150" yMin="-14" xMax="914" yMax="1122">
      <contour>
        <pt x="632" y="833" on="1"/>
        <pt x="450" y="1015" on="1"/>
        <pt x="558" y="1122" on="1"/>
        <pt x="740" y="940" on="1"/>
      </contour>
      <contour>
        <pt x="914" y="380" on="1"/>
        <pt x="914" y="217" on="0"/>
        <pt x="802" y="102" on="1"/>
        <pt x="690" y="-14" on="0"/>
        <pt x="532" y="-14" on="1"/>
        <pt x="374" y="-14" on="0"/>
        <pt x="262" y="102" on="1"/>
        <pt x="150" y="217" on="0"/>
        <pt x="150" y="380" on="1"/>
        <pt x="150" y="543" on="0"/>
        <pt x="262" y="658" on="1"/>
        <pt x="374" y="773" on="0"/>
        <pt x="532" y="773" on="1"/>
        <pt x="690" y="773" on="0"/>
        <pt x="802" y="658" on="1"/>
        <pt x="914" y="543" on="0"/>
      </contour>
      <contour>
        <pt x="761" y="378" on="1"/>
        <pt x="761" y="475" on="0"/>
        <pt x="694" y="544" on="1"/>
        <pt x="627" y="612" on="0"/>
        <pt x="532" y="612" on="1"/>
        <pt x="437" y="612" on="0"/>
        <pt x="370" y="544" on="1"/>
        <pt x="303" y="475" on="0"/>
        <pt x="303" y="378" on="1"/>
        <pt x="303" y="280" on="0"/>
        <pt x="370" y="212" on="1"/>
        <pt x="437" y="143" on="0"/>
        <pt x="532" y="143" on="1"/>
        <pt x="627" y="143" on="0"/>
        <pt x="694" y="212" on="1"/>
        <pt x="761" y="280" on="0"/>
      </contour>
    </TTGlyph>
    <TTGlyph name="Ohungarumlaut" xMin="50" yMin="-14" xMax="814" yMax="1124">
      <component glyphName="uni030B" x="469" y="319" flags="0x4"/>
      <component glyphName="O" x="0" y="0" flags="0x204"/>
    </TTGlyph>
    <TTGlyph name="Ohungarumlaut.0" xMin="60" yMin="-14" xMax="824" yMax="1124">
      <contour>
        <pt x="595" y="833" on="1"/>
        <pt x="487" y="940" on="1"/>
        <pt x="669" y="1122" on="1"/>
        <pt x="777" y="1015" on="1"/>
      </contour>
      <contour>
        <pt x="309" y="835" on="1"/>
        <pt x="201" y="942" on="1"/>
        <pt x="383" y="1124" on="1"/>
        <pt x="491" y="1017" on="1"/>
      </contour>
      <contour>
        <pt x="824" y="380" on="1"/>
        <pt x="824" y="217" on="0"/>
        <pt x="712" y="102" on="1"/>
        <pt x="600" y="-14" on="0"/>
        <pt x="442" y="-14" on="1"/>
        <pt x="284" y="-14" on="0"/>
        <pt x="172" y="102" on="1"/>
        <pt x="60" y="217" on="0"/>
        <pt x="60" y="380" on="1"/>
        <pt x="60" y="543" on="0"/>
        <pt x="172" y="658" on="1"/>
        <pt x="284" y="773" on="0"/>
        <pt x="442" y="773" on="1"/>
        <pt x="600" y="773" on="0"/>
        <pt x="712" y="658" on="1"/>
        <pt x="824" y="543" on="0"/>
      </contour>
      <contour>
        <pt x="671" y="378" on="1"/>
        <pt x="671" y="475" on="0"/>
        <pt x="604" y="544" on="1"/>
        <pt x="537" y="612" on="0"/>
        <pt x="442" y="612" on="1"/>
        <pt x="347" y="612" on="0"/>
        <pt x="280" y="544" on="1"/>
        <pt x="213" y="475" on="0"/>
        <pt x="213" y="378" on="1"/>
        <pt x="213" y="280" on="0"/>
        <pt x="280" y="212" on="1"/>
        <pt x="347" y="143" on="0"/>
        <pt x="442" y="143" on="1"/>
        <pt x="537" y="143" on="0"/>
        <pt x="604" y="212" on="1"/>
        <pt x="671" y="280" on="0"/>
      </contour>
    </TTGlyph>
    <TTGlyph name="Ohungarumlaut.1" xMin="150" yMin="-14" xMax="957" yMax="1124">
      <contour>
        <pt x="775" y="833" on="1"/>
        <pt x="667" y="940" on="1"/>
        <pt x="849" y="1122" on="1"/>
        <pt x="957" y="1015" on="1"/>
      </contour>
      <contour>
        <pt x="489" y="835" on="1"/>
        <pt x="381" y="942" on="1"/>
        <pt x="563" y="1124" on="1"/>
        <pt x="671" y="1017" on="1"/>
      </contour>
      <contour>
        <pt x="914" y="380" on="1"/>
        <pt x="914" y="217" on="0"/>
        <pt x="802" y="102" on="1"/>
        <pt x="690" y="-14" on="0"/>
        <pt x="532" y="-14" on="1"/>
        <pt x="374" y="-14" on="0"/>
        <pt x="262" y="102" on="1"/>
        <pt x="150" y="217" on="0"/>
        <pt x="150" y="380" on="1"/>
        <pt x="150" y="543" on="0"/>
        <pt x="262" y="658" on="1"/>
        <pt x="374" y="773" on="0"/>
        <pt x="532" y="773" on="1"/>
        <pt x="690" y="773" on="0"/>
        <pt x="802" y="658" on="1"/>
        <pt x="914" y="543" on="0"/>
      </contour>
      <contour>
        <pt x="761" y="378" on="1"/>
        <pt x="761" y="475" on="0"/>
        <pt x="694" y="544" on="1"/>
        <pt x="627" y="612" on="0"/>
        <pt x="532" y="612" on="1"/>
        <pt x="437" y="612" on="0"/>
        <pt x="370" y="544" on="1"/>
        <pt x="303" y="475" on="0"/>
        <pt x="303" y="378" on="1"/>
        <pt x="303" y="280" on="0"/>
        <pt x="370" y="212" on="1"/>
        <pt x="437" y="143" on="0"/>
        <pt x="532" y="143" on="1"/>
        <pt x="627" y="143" on="0"/>
        <pt x="694" y="212" on="1"/>
        <pt x="761" y="280" on="0"/>
      </contour>
    </TTGlyph>
    <TTGlyph name="Omacron" xMin="50" yMin="-14" xMax="814" yMax="909">
      <component glyphName="uni0304" x="432" y="51" flags="0x4"/>
      <component glyphName="O" x="0" y="0" flags="0x204"/>
    </TTGlyph>
    <TTGlyph name="Omacron.0" xMin="60" yMin="-14" xMax="824" yMax="909">
      <contour>
        <pt x="588" y="909" on="1"/>
        <pt x="588" y="833" on="1"/>
        <pt x="316" y="833" on="1"/>
        <pt x="316" y="909" on="1"/>
      </contour>
      <contour>
        <pt x="824" y="380" on="1"/>
        <pt x="824" y="217" on="0"/>
        <pt x="712" y="102" on="1"/>
        <pt x="600" y="-14" on="0"/>
        <pt x="442" y="-14" on="1"/>
        <pt x="284" y="-14" on="0"/>
        <pt x="172" y="102" on="1"/>
        <pt x="60" y="217" on="0"/>
        <pt x="60" y="380" on="1"/>
        <pt x="60" y="543" on="0"/>
        <pt x="172" y="658" on="1"/>
        <pt x="284" y="773" on="0"/>
        <pt x="442" y="773" on="1"/>
        <pt x="600" y="773" on="0"/>
        <pt x="712" y="658" on="1"/>
        <pt x="824" y="543" on="0"/>
      </contour>
      <contour>
        <pt x="671" y="378" on="1"/>
        <pt x="671" y="475" on="0"/>
        <pt x="604" y="544" on="1"/>
        <pt x="537" y="612" on="0"/>
        <pt x="442" y="612" on="1"/>
        <pt x="347" y="612" on="0"/>
        <pt x="280" y="544" on="1"/>
        <pt x="213" y="475" on="0"/>
        <pt x="213" y="378" on="1"/>
        <pt x="213" y="280" on="0"/>
        <pt x="280" y="212" on="1"/>
        <pt x="347" y="143" on="0"/>
        <pt x="442" y="143" on="1"/>
        <pt x="537" y="143" on="0"/>
        <pt x="604" y="212" on="1"/>
        <pt x="671" y="280" on="0"/>
      </contour>
    </TTGlyph>
    <TTGlyph name="Omacron.1" xMin="150" yMin="-14" xMax="914" yMax="909">
      <contour>
        <pt x="768" y="909" on="1"/>
        <pt x="768" y="833" on="1"/>
        <pt x="496" y="833" on="1"/>
        <pt x="496" y="909" on="1"/>
      </contour>
      <contour>
        <pt x="914" y="380" on="1"/>
        <pt x="914" y="217" on="0"/>
        <pt x="802" y="102" on="1"/>
        <pt x="690" y="-14" on="0"/>
        <pt x="532" y="-14" on="1"/>
        <pt x="374" y="-14" on="0"/>
        <pt x="262" y="102" on="1"/>
        <pt x="150" y="217" on="0"/>
        <pt x="150" y="380" on="1"/>
        <pt x="150" y="543" on="0"/>
        <pt x="262" y="658" on="1"/>
        <pt x="374" y="773" on="0"/>
        <pt x="532" y="773" on="1"/>
        <pt x="690" y="773" on="0"/>
        <pt x="802" y="658" on="1"/>
        <pt x="914" y="543" on="0"/>
      </contour>
      <contour>
        <pt x="761" y="378" on="1"/>
        <pt x="761" y="475" on="0"/>
        <pt x="694" y="544" on="1"/>
        <pt x="627" y="612" on="0"/>
        <pt x="532" y="612" on="1"/>
        <pt x="437" y="612" on="0"/>
        <pt x="370" y="544" on="1"/>
        <pt x="303" y="475" on="0"/>
        <pt x="303" y="378" on="1"/>
        <pt x="303" y="280" on="0"/>
        <pt x="370" y="212" on="1"/>
        <pt x="437" y="143" on="0"/>
        <pt x="532" y="143" on="1"/>
        <pt x="627" y="143" on="0"/>
        <pt x="694" y="212" on="1"/>
        <pt x="761" y="280" on="0"/>
      </contour>
    </TTGlyph>
    <TTGlyph name="Otilde" xMin="50" yMin="-14" xMax="814" yMax="950">
      <component glyphName="tildecomb" x="432" y="31" flags="0x4"/>
      <component glyphName="O" x="0" y="0" flags="0x204"/>
    </TTGlyph>
    <TTGlyph name="Otilde.0" xMin="60" yMin="-14" xMax="824" yMax="950">
      <contour>
        <pt x="577" y="950" on="1"/>
        <pt x="577" y="874" on="1"/>
        <pt x="576" y="872" on="0"/>
        <pt x="569" y="863" on="1"/>
        <pt x="561" y="854" on="0"/>
        <pt x="545" y="844" on="1"/>
        <pt x="529" y="833" on="0"/>
        <pt x="513" y="833" on="1"/>
        <pt x="463" y="833" on="1"/>
        <pt x="447" y="833" on="0"/>
        <pt x="425" y="847" on="1"/>
        <pt x="402" y="861" on="0"/>
        <pt x="386" y="861" on="1"/>
        <pt x="375" y="861" on="0"/>
        <pt x="360" y="854" on="1"/>
        <pt x="345" y="847" on="0"/>
        <pt x="336" y="840" on="1"/>
        <pt x="327" y="833" on="1"/>
        <pt x="327" y="909" on="1"/>
        <pt x="359" y="937" on="0"/>
        <pt x="384" y="937" on="1"/>
        <pt x="401" y="937" on="0"/>
        <pt x="425" y="924" on="1"/>
        <pt x="448" y="910" on="0"/>
        <pt x="464" y="910" on="1"/>
        <pt x="487" y="910" on="0"/>
        <pt x="509" y="910" on="1"/>
        <pt x="524" y="910" on="0"/>
        <pt x="541" y="920" on="1"/>
        <pt x="558" y="930" on="0"/>
        <pt x="567" y="940" on="1"/>
      </contour>
      <contour>
        <pt x="824" y="380" on="1"/>
        <pt x="824" y="217" on="0"/>
        <pt x="712" y="102" on="1"/>
        <pt x="600" y="-14" on="0"/>
        <pt x="442" y="-14" on="1"/>
        <pt x="284" y="-14" on="0"/>
        <pt x="172" y="102" on="1"/>
        <pt x="60" y="217" on="0"/>
        <pt x="60" y="380" on="1"/>
        <pt x="60" y="543" on="0"/>
        <pt x="172" y="658" on="1"/>
        <pt x="284" y="773" on="0"/>
        <pt x="442" y="773" on="1"/>
        <pt x="600" y="773" on="0"/>
        <pt x="712" y="658" on="1"/>
        <pt x="824" y="543" on="0"/>
      </contour>
      <contour>
        <pt x="671" y="378" on="1"/>
        <pt x="671" y="475" on="0"/>
        <pt x="604" y="544" on="1"/>
        <pt x="537" y="612" on="0"/>
        <pt x="442" y="612" on="1"/>
        <pt x="347" y="612" on="0"/>
        <pt x="280" y="544" on="1"/>
        <pt x="213" y="475" on="0"/>
        <pt x="213" y="378" on="1"/>
        <pt x="213" y="280" on="0"/>
        <pt x="280" y="212" on="1"/>
        <pt x="347" y="143" on="0"/>
        <pt x="442" y="143" on="1"/>
        <pt x="537" y="143" on="0"/>
        <pt x="604" y="212" on="1"/>
        <pt x="671" y="280" on="0"/>
      </contour>
    </TTGlyph>
    <TTGlyph name="Otilde.1" xMin="150" yMin="-14" xMax="914" yMax="950">
      <contour>
        <pt x="757" y="950" on="1"/>
        <pt x="757" y="874" on="1"/>
        <pt x="756" y="872" on="0"/>
        <pt x="749" y="863" on="1"/>
        <pt x="741" y="854" on="0"/>
        <pt x="725" y="844" on="1"/>
        <pt x="709" y="833" on="0"/>
        <pt x="693" y="833" on="1"/>
        <pt x="643" y="833" on="1"/>
        <pt x="627" y="833" on="0"/>
        <pt x="605" y="847" on="1"/>
        <pt x="582" y="861" on="0"/>
        <pt x="566" y="861" on="1"/>
        <pt x="555" y="861" on="0"/>
        <pt x="540" y="854" on="1"/>
        <pt x="525" y="847" on="0"/>
        <pt x="516" y="840" on="1"/>
        <pt x="507" y="833" on="1"/>
        <pt x="507" y="909" on="1"/>
        <pt x="539" y="937" on="0"/>
        <pt x="564" y="937" on="1"/>
        <pt x="581" y="937" on="0"/>
        <pt x="605" y="924" on="1"/>
        <pt x="628" y="910" on="0"/>
        <pt x="644" y="910" on="1"/>
        <pt x="667" y="910" on="0"/>
        <pt x="689" y="910" on="1"/>
        <pt x="704" y="910" on="0"/>
        <pt x="721" y="920" on="1"/>
        <pt x="738" y="930" on="0"/>
        <pt x="747" y="940" on="1"/>
      </contour>
      <contour>
        <pt x="914" y="380" on="1"/>
        <pt x="914" y="217" on="0"/>
        <pt x="802" y="102" on="1"/>
        <pt x="690" y="-14" on="0"/>
        <pt x="532" y="-14" on="1"/>
        <pt x="374" y="-14" on="0"/>
        <pt x="262" y="102" on="1"/>
        <pt x="150" y="217" on="0"/>
        <pt x="150" y="380" on="1"/>
        <pt x="150" y="543" on="0"/>
        <pt x="262" y="658" on="1"/>
        <pt x="374" y="773" on="0"/>
        <pt x="532" y="773" on="1"/>
        <pt x="690" y="773" on="0"/>
        <pt x="802" y="658" on="1"/>
        <pt x="914" y="543" on="0"/>
      </contour>
      <contour>
        <pt x="761" y="378" on="1"/>
        <pt x="761" y="475" on="0"/>
        <pt x="694" y="544" on="1"/>
        <pt x="627" y="612" on="0"/>
        <pt x="532" y="612" on="1"/>
        <pt x="437" y="612" on="0"/>
        <pt x="370" y="544" on="1"/>
        <pt x="303" y="475" on="0"/>
        <pt x="303" y="378" on="1"/>
        <pt x="303" y="280" on="0"/>
        <pt x="370" y="212" on="1"/>
        <pt x="437" y="143" on="0"/>
        <pt x="532" y="143" on="1"/>
        <pt x="627" y="143" on="0"/>
        <pt x="694" y="212" on="1"/>
        <pt x="761" y="280" on="0"/>
      </contour>
    </TTGlyph>
    <TTGlyph name="P" xMin="50" yMin="3" xMax="484" yMax="780">
      <contour>
        <pt x="202" y="3" on="1"/>
        <pt x="202" y="266" on="1"/>
        <pt x="210" y="265" on="0"/>
        <pt x="226" y="265" on="1"/>
        <pt x="333" y="265" on="0"/>
        <pt x="484" y="416" on="0"/>
        <pt x="484" y="630" on="0"/>
        <pt x="333" y="780" on="0"/>
        <pt x="226" y="780" on="1"/>
        <pt x="210" y="780" on="0"/>
        <pt x="202" y="779" on="1"/>
        <pt x="50" y="779" on="1"/>
        <pt x="50" y="3" on="1"/>
      </contour>
      <contour>
        <pt x="202" y="626" on="1"/>
        <pt x="214" y="629" on="0"/>
        <pt x="226" y="629" on="1"/>
        <pt x="271" y="629" on="0"/>
        <pt x="333" y="567" on="0"/>
        <pt x="333" y="523" on="1"/>
        <pt x="333" y="478" on="0"/>
        <pt x="271" y="416" on="0"/>
        <pt x="226" y="416" on="1"/>
        <pt x="214" y="416" on="0"/>
        <pt x="202" y="419" on="1"/>
      </contour>
    </TTGlyph>
    <TTGlyph name="P.0" xMin="60" yMin="3" xMax="494" yMax="780">
      <contour>
        <pt x="212" y="3" on="1"/>
        <pt x="60" y="3" on="1"/>
        <pt x="60" y="779" on="1"/>
        <pt x="212" y="779" on="1"/>
        <pt x="220" y="780" on="0"/>
        <pt x="236" y="780" on="1"/>
        <pt x="343" y="780" on="0"/>
        <pt x="419" y="705" on="1"/>
        <pt x="494" y="630" on="0"/>
        <pt x="494" y="523" on="1"/>
        <pt x="494" y="416" on="0"/>
        <pt x="419" y="341" on="1"/>
        <pt x="343" y="265" on="0"/>
        <pt x="236" y="265" on="1"/>
        <pt x="220" y="265" on="0"/>
        <pt x="212" y="266" on="1"/>
      </contour>
      <contour>
        <pt x="212" y="626" on="1"/>
        <pt x="212" y="419" on="1"/>
        <pt x="224" y="416" on="0"/>
        <pt x="236" y="416" on="1"/>
        <pt x="281" y="416" on="0"/>
        <pt x="312" y="447" on="1"/>
        <pt x="343" y="478" on="0"/>
        <pt x="343" y="523" on="1"/>
        <pt x="343" y="567" on="0"/>
        <pt x="312" y="598" on="1"/>
        <pt x="281" y="629" on="0"/>
        <pt x="236" y="629" on="1"/>
        <pt x="224" y="629" on="0"/>
      </contour>
    </TTGlyph>
    <TTGlyph name="P.1" xMin="150" yMin="3" xMax="584" yMax="780">
      <component glyphName="P.0" x="90" y="0" flags="0x4"/>
    </TTGlyph>
    <TTGlyph name="P.2" xMin="150" yMin="3" xMax="584" yMax="780">
      <component glyphName="P.0" x="90" y="0" flags="0x4"/>
    </TTGlyph>
    <TTGlyph name="Q" xMin="50" yMin="-191" xMax="822" yMax="773">
      <contour>
        <pt x="661" y="378" on="1"/>
        <pt x="661" y="280" on="0"/>
        <pt x="527" y="143" on="0"/>
        <pt x="337" y="143" on="0"/>
        <pt x="203" y="280" on="0"/>
        <pt x="203" y="378" on="1"/>
        <pt x="203" y="475" on="0"/>
        <pt x="337" y="612" on="0"/>
        <pt x="527" y="612" on="0"/>
        <pt x="661" y="475" on="0"/>
      </contour>
      <contour>
        <pt x="814" y="380" on="1"/>
        <pt x="814" y="543" on="0"/>
        <pt x="590" y="773" on="0"/>
        <pt x="274" y="773" on="0"/>
        <pt x="50" y="543" on="0"/>
        <pt x="50" y="217" on="0"/>
        <pt x="274" y="-14" on="0"/>
        <pt x="432" y="-14" on="1"/>
        <pt x="467" y="-14" on="0"/>
        <pt x="501" y="-8" on="1"/>
        <pt x="684" y="-191" on="1"/>
        <pt x="822" y="-52" on="1"/>
        <pt x="685" y="85" on="1"/>
        <pt x="746" y="140" on="0"/>
        <pt x="814" y="293" on="0"/>
      </contour>
    </TTGlyph>
    <TTGlyph name="Q.0" xMin="60" yMin="-191" xMax="832" yMax="773">
      <contour>
        <pt x="671" y="378" on="1"/>
        <pt x="671" y="475" on="0"/>
        <pt x="604" y="544" on="1"/>
        <pt x="537" y="612" on="0"/>
        <pt x="442" y="612" on="1"/>
        <pt x="347" y="612" on="0"/>
        <pt x="280" y="544" on="1"/>
        <pt x="213" y="475" on="0"/>
        <pt x="213" y="378" on="1"/>
        <pt x="213" y="280" on="0"/>
        <pt x="280" y="212" on="1"/>
        <pt x="347" y="143" on="0"/>
        <pt x="442" y="143" on="1"/>
        <pt x="537" y="143" on="0"/>
        <pt x="604" y="212" on="1"/>
        <pt x="671" y="280" on="0"/>
      </contour>
      <contour>
        <pt x="824" y="380" on="1"/>
        <pt x="824" y="293" on="0"/>
        <pt x="790" y="217" on="1"/>
        <pt x="756" y="140" on="0"/>
        <pt x="695" y="85" on="1"/>
        <pt x="832" y="-52" on="1"/>
        <pt x="694" y="-191" on="1"/>
        <pt x="511" y="-8" on="1"/>
        <pt x="477" y="-14" on="0"/>
        <pt x="442" y="-14" on="1"/>
        <pt x="284" y="-14" on="0"/>
        <pt x="172" y="102" on="1"/>
        <pt x="60" y="217" on="0"/>
        <pt x="60" y="380" on="1"/>
        <pt x="60" y="543" on="0"/>
        <pt x="172" y="658" on="1"/>
        <pt x="284" y="773" on="0"/>
        <pt x="442" y="773" on="1"/>
        <pt x="600" y="773" on="0"/>
        <pt x="712" y="658" on="1"/>
        <pt x="824" y="543" on="0"/>
      </contour>
    </TTGlyph>
    <TTGlyph name="Q.1" xMin="150" yMin="-191" xMax="922" yMax="773">
      <component glyphName="Q.0" x="90" y="0" flags="0x4"/>
    </TTGlyph>
    <TTGlyph name="Q.2" xMin="150" yMin="-191" xMax="922" yMax="773">
      <component glyphName="Q.0" x="90" y="0" flags="0x4"/>
    </TTGlyph>
    <TTGlyph name="R" xMin="50" yMin="-3" xMax="512" yMax="780">
      <contour>
        <pt x="202" y="626" on="1"/>
        <pt x="214" y="629" on="0"/>
        <pt x="226" y="629" on="1"/>
        <pt x="271" y="629" on="0"/>
        <pt x="333" y="567" on="0"/>
        <pt x="333" y="523" on="1"/>
        <pt x="333" y="478" on="0"/>
        <pt x="271" y="416" on="0"/>
        <pt x="226" y="416" on="1"/>
        <pt x="214" y="416" on="0"/>
        <pt x="202" y="419" on="1"/>
      </contour>
      <contour>
        <pt x="202" y="3" on="1"/>
        <pt x="202" y="266" on="1"/>
        <pt x="204" y="266" on="0"/>
        <pt x="207" y="266" on="1"/>
        <pt x="372" y="-3" on="1"/>
        <pt x="512" y="-3" on="1"/>
        <pt x="313" y="280" on="1"/>
        <pt x="389" y="307" on="0"/>
        <pt x="484" y="440" on="0"/>
        <pt x="484" y="523" on="1"/>
        <pt x="484" y="630" on="0"/>
        <pt x="333" y="780" on="0"/>
        <pt x="226" y="780" on="1"/>
        <pt x="210" y="780" on="0"/>
        <pt x="202" y="779" on="1"/>
        <pt x="50" y="779" on="1"/>
        <pt x="50" y="3" on="1"/>
      </contour>
    </TTGlyph>
    <TTGlyph name="R.0" xMin="60" yMin="-3" xMax="522" yMax="780">
      <contour>
        <pt x="212" y="626" on="1"/>
        <pt x="212" y="419" on="1"/>
        <pt x="224" y="416" on="0"/>
        <pt x="236" y="416" on="1"/>
        <pt x="281" y="416" on="0"/>
        <pt x="312" y="447" on="1"/>
        <pt x="343" y="478" on="0"/>
        <pt x="343" y="523" on="1"/>
        <pt x="343" y="567" on="0"/>
        <pt x="312" y="598" on="1"/>
        <pt x="281" y="629" on="0"/>
        <pt x="236" y="629" on="1"/>
        <pt x="224" y="629" on="0"/>
      </contour>
      <contour>
        <pt x="212" y="3" on="1"/>
        <pt x="60" y="3" on="1"/>
        <pt x="60" y="779" on="1"/>
        <pt x="212" y="779" on="1"/>
        <pt x="220" y="780" on="0"/>
        <pt x="236" y="780" on="1"/>
        <pt x="343" y="780" on="0"/>
        <pt x="419" y="705" on="1"/>
        <pt x="494" y="630" on="0"/>
        <pt x="494" y="523" on="1"/>
        <pt x="494" y="440" on="0"/>
        <pt x="447" y="374" on="1"/>
        <pt x="399" y="307" on="0"/>
        <pt x="323" y="280" on="1"/>
        <pt x="522" y="-3" on="1"/>
        <pt x="382" y="-3" on="1"/>
        <pt x="217" y="266" on="1"/>
        <pt x="214" y="266" on="0"/>
        <pt x="212" y="266" on="1"/>
      </contour>
    </TTGlyph>
    <TTGlyph name="R.1" xMin="150" yMin="-3" xMax="612" yMax="780">
      <component glyphName="R.0" x="90" y="0" flags="0x4"/>
    </TTGlyph>
    <TTGlyph name="R.2" xMin="150" yMin="-3" xMax="612" yMax="780">
      <component glyphName="R.0" x="90" y="0" flags="0x4"/>
    </TTGlyph>
    <TTGlyph name="Racute" xMin="50" yMin="-3" xMax="512" yMax="1129">
      <component glyphName="acutecomb" x="263" y="324" flags="0x4"/>
      <component glyphName="R" x="0" y="0" flags="0x204"/>
    </TTGlyph>
    <TTGlyph name="Racute.0" xMin="60" yMin="-3" xMax="522" yMax="1129">
      <contour>
        <pt x="246" y="840" on="1"/>
        <pt x="138" y="947" on="1"/>
        <pt x="320" y="1129" on="1"/>
        <pt x="428" y="1022" on="1"/>
      </contour>
      <contour>
        <pt x="212" y="626" on="1"/>
        <pt x="212" y="419" on="1"/>
        <pt x="224" y="416" on="0"/>
        <pt x="236" y="416" on="1"/>
        <pt x="281" y="416" on="0"/>
        <pt x="312" y="447" on="1"/>
        <pt x="343" y="478" on="0"/>
        <pt x="343" y="523" on="1"/>
        <pt x="343" y="567" on="0"/>
        <pt x="312" y="598" on="1"/>
        <pt x="281" y="629" on="0"/>
        <pt x="236" y="629" on="1"/>
        <pt x="224" y="629" on="0"/>
      </contour>
      <contour>
        <pt x="212" y="3" on="1"/>
        <pt x="60" y="3" on="1"/>
        <pt x="60" y="779" on="1"/>
        <pt x="212" y="779" on="1"/>
        <pt x="220" y="780" on="0"/>
        <pt x="236" y="780" on="1"/>
        <pt x="343" y="780" on="0"/>
        <pt x="419" y="705" on="1"/>
        <pt x="494" y="630" on="0"/>
        <pt x="494" y="523" on="1"/>
        <pt x="494" y="440" on="0"/>
        <pt x="447" y="374" on="1"/>
        <pt x="399" y="307" on="0"/>
        <pt x="323" y="280" on="1"/>
        <pt x="522" y="-3" on="1"/>
        <pt x="382" y="-3" on="1"/>
        <pt x="217" y="266" on="1"/>
        <pt x="214" y="266" on="0"/>
        <pt x="212" y="266" on="1"/>
      </contour>
    </TTGlyph>
    <TTGlyph name="Racute.1" xMin="150" yMin="-3" xMax="612" yMax="1129">
      <contour>
        <pt x="426" y="840" on="1"/>
        <pt x="318" y="947" on="1"/>
        <pt x="500" y="1129" on="1"/>
        <pt x="608" y="1022" on="1"/>
      </contour>
      <contour>
        <pt x="302" y="626" on="1"/>
        <pt x="302" y="419" on="1"/>
        <pt x="314" y="416" on="0"/>
        <pt x="326" y="416" on="1"/>
        <pt x="371" y="416" on="0"/>
        <pt x="402" y="447" on="1"/>
        <pt x="433" y="478" on="0"/>
        <pt x="433" y="523" on="1"/>
        <pt x="433" y="567" on="0"/>
        <pt x="402" y="598" on="1"/>
        <pt x="371" y="629" on="0"/>
        <pt x="326" y="629" on="1"/>
        <pt x="314" y="629" on="0"/>
      </contour>
      <contour>
        <pt x="302" y="3" on="1"/>
        <pt x="150" y="3" on="1"/>
        <pt x="150" y="779" on="1"/>
        <pt x="302" y="779" on="1"/>
        <pt x="310" y="780" on="0"/>
        <pt x="326" y="780" on="1"/>
        <pt x="433" y="780" on="0"/>
        <pt x="509" y="705" on="1"/>
        <pt x="584" y="630" on="0"/>
        <pt x="584" y="523" on="1"/>
        <pt x="584" y="440" on="0"/>
        <pt x="537" y="374" on="1"/>
        <pt x="489" y="307" on="0"/>
        <pt x="413" y="280" on="1"/>
        <pt x="612" y="-3" on="1"/>
        <pt x="472" y="-3" on="1"/>
        <pt x="307" y="266" on="1"/>
        <pt x="304" y="266" on="0"/>
        <pt x="302" y="266" on="1"/>
      </contour>
    </TTGlyph>
    <TTGlyph name="Rcaron" xMin="50" yMin="-3" xMax="512" yMax="1008">
      <component glyphName="uni030C" x="226" y="74" flags="0x4"/>
      <component glyphName="R" x="0" y="0" flags="0x204"/>
    </TTGlyph>
    <TTGlyph name="Rcaron.0" xMin="60" yMin="-3" xMax="522" yMax="1008">
      <contour>
        <pt x="146" y="1008" on="1"/>
        <pt x="222" y="1008" on="1"/>
        <pt x="250" y="900" on="1"/>
        <pt x="270" y="1008" on="1"/>
        <pt x="346" y="1008" on="1"/>
        <pt x="294" y="840" on="1"/>
        <pt x="293" y="840" on="1"/>
        <pt x="218" y="840" on="1"/>
        <pt x="217" y="840" on="1"/>
      </contour>
      <contour>
        <pt x="212" y="626" on="1"/>
        <pt x="212" y="419" on="1"/>
        <pt x="224" y="416" on="0"/>
        <pt x="236" y="416" on="1"/>
        <pt x="281" y="416" on="0"/>
        <pt x="312" y="447" on="1"/>
        <pt x="343" y="478" on="0"/>
        <pt x="343" y="523" on="1"/>
        <pt x="343" y="567" on="0"/>
        <pt x="312" y="598" on="1"/>
        <pt x="281" y="629" on="0"/>
        <pt x="236" y="629" on="1"/>
        <pt x="224" y="629" on="0"/>
      </contour>
      <contour>
        <pt x="212" y="3" on="1"/>
        <pt x="60" y="3" on="1"/>
        <pt x="60" y="779" on="1"/>
        <pt x="212" y="779" on="1"/>
        <pt x="220" y="780" on="0"/>
        <pt x="236" y="780" on="1"/>
        <pt x="343" y="780" on="0"/>
        <pt x="419" y="705" on="1"/>
        <pt x="494" y="630" on="0"/>
        <pt x="494" y="523" on="1"/>
        <pt x="494" y="440" on="0"/>
        <pt x="447" y="374" on="1"/>
        <pt x="399" y="307" on="0"/>
        <pt x="323" y="280" on="1"/>
        <pt x="522" y="-3" on="1"/>
        <pt x="382" y="-3" on="1"/>
        <pt x="217" y="266" on="1"/>
        <pt x="214" y="266" on="0"/>
        <pt x="212" y="266" on="1"/>
      </contour>
    </TTGlyph>
    <TTGlyph name="Rcaron.1" xMin="150" yMin="-3" xMax="612" yMax="1008">
      <contour>
        <pt x="326" y="1008" on="1"/>
        <pt x="402" y="1008" on="1"/>
        <pt x="430" y="900" on="1"/>
        <pt x="450" y="1008" on="1"/>
        <pt x="526" y="1008" on="1"/>
        <pt x="474" y="840" on="1"/>
        <pt x="473" y="840" on="1"/>
        <pt x="398" y="840" on="1"/>
        <pt x="397" y="840" on="1"/>
      </contour>
      <contour>
        <pt x="302" y="626" on="1"/>
        <pt x="302" y="419" on="1"/>
        <pt x="314" y="416" on="0"/>
        <pt x="326" y="416" on="1"/>
        <pt x="371" y="416" on="0"/>
        <pt x="402" y="447" on="1"/>
        <pt x="433" y="478" on="0"/>
        <pt x="433" y="523" on="1"/>
        <pt x="433" y="567" on="0"/>
        <pt x="402" y="598" on="1"/>
        <pt x="371" y="629" on="0"/>
        <pt x="326" y="629" on="1"/>
        <pt x="314" y="629" on="0"/>
      </contour>
      <contour>
        <pt x="302" y="3" on="1"/>
        <pt x="150" y="3" on="1"/>
        <pt x="150" y="779" on="1"/>
        <pt x="302" y="779" on="1"/>
        <pt x="310" y="780" on="0"/>
        <pt x="326" y="780" on="1"/>
        <pt x="433" y="780" on="0"/>
        <pt x="509" y="705" on="1"/>
        <pt x="584" y="630" on="0"/>
        <pt x="584" y="523" on="1"/>
        <pt x="584" y="440" on="0"/>
        <pt x="537" y="374" on="1"/>
        <pt x="489" y="307" on="0"/>
        <pt x="413" y="280" on="1"/>
        <pt x="612" y="-3" on="1"/>
        <pt x="472" y="-3" on="1"/>
        <pt x="307" y="266" on="1"/>
        <pt x="304" y="266" on="0"/>
        <pt x="302" y="266" on="1"/>
      </contour>
    </TTGlyph>
    <TTGlyph name="S" xMin="55" yMin="-9" xMax="474" yMax="777">
      <contour>
        <pt x="55" y="57" on="1"/>
        <pt x="58" y="54" on="0"/>
        <pt x="73" y="45" on="0"/>
        <pt x="76" y="42" on="1"/>
        <pt x="170" y="-9" on="0"/>
        <pt x="375" y="42" on="0"/>
        <pt x="427" y="130" on="1"/>
        <pt x="458" y="180" on="0"/>
        <pt x="461" y="268" on="0"/>
        <pt x="412" y="339" on="0"/>
        <pt x="345" y="392" on="0"/>
        <pt x="296" y="418" on="1"/>
        <pt x="248" y="426" on="0"/>
        <pt x="207" y="524" on="0"/>
        <pt x="232" y="565" on="1"/>
        <pt x="254" y="602" on="0"/>
        <pt x="339" y="623" on="0"/>
        <pt x="377" y="602" on="1"/>
        <pt x="387" y="597" on="0"/>
        <pt x="399" y="587" on="1"/>
        <pt x="474" y="712" on="1"/>
        <pt x="471" y="715" on="0"/>
        <pt x="456" y="724" on="0"/>
        <pt x="453" y="727" on="1"/>
        <pt x="359" y="777" on="0"/>
        <pt x="153" y="726" on="0"/>
        <pt x="101" y="639" on="1"/>
        <pt x="58" y="570" on="0"/>
        <pt x="79" y="445" on="0"/>
        <pt x="160" y="351" on="0"/>
        <pt x="227" y="315" on="1"/>
        <pt x="270" y="308" on="0"/>
        <pt x="319" y="241" on="0"/>
        <pt x="297" y="202" on="1"/>
        <pt x="274" y="166" on="0"/>
        <pt x="190" y="145" on="0"/>
        <pt x="152" y="167" on="1"/>
        <pt x="142" y="172" on="0"/>
        <pt x="130" y="182" on="1"/>
      </contour>
    </TTGlyph>
    <TTGlyph name="S.0" xMin="65" yMin="-9" xMax="484" yMax="777">
      <contour>
        <pt x="65" y="57" on="1"/>
        <pt x="140" y="182" on="1"/>
        <pt x="152" y="172" on="0"/>
        <pt x="162" y="167" on="1"/>
        <pt x="200" y="145" on="0"/>
        <pt x="242" y="156" on="1"/>
        <pt x="284" y="166" on="0"/>
        <pt x="307" y="202" on="1"/>
        <pt x="329" y="241" on="0"/>
        <pt x="305" y="275" on="1"/>
        <pt x="280" y="308" on="0"/>
        <pt x="237" y="315" on="1"/>
        <pt x="170" y="351" on="0"/>
        <pt x="130" y="398" on="1"/>
        <pt x="89" y="445" on="0"/>
        <pt x="79" y="508" on="1"/>
        <pt x="68" y="570" on="0"/>
        <pt x="111" y="639" on="1"/>
        <pt x="163" y="726" on="0"/>
        <pt x="266" y="752" on="1"/>
        <pt x="369" y="777" on="0"/>
        <pt x="463" y="727" on="1"/>
        <pt x="466" y="724" on="0"/>
        <pt x="474" y="720" on="1"/>
        <pt x="481" y="715" on="0"/>
        <pt x="484" y="712" on="1"/>
        <pt x="409" y="587" on="1"/>
        <pt x="397" y="597" on="0"/>
        <pt x="387" y="602" on="1"/>
        <pt x="349" y="623" on="0"/>
        <pt x="307" y="613" on="1"/>
        <pt x="264" y="602" on="0"/>
        <pt x="242" y="565" on="1"/>
        <pt x="217" y="524" on="0"/>
        <pt x="238" y="475" on="1"/>
        <pt x="258" y="426" on="0"/>
        <pt x="306" y="418" on="1"/>
        <pt x="355" y="392" on="0"/>
        <pt x="389" y="366" on="1"/>
        <pt x="422" y="339" on="0"/>
        <pt x="447" y="304" on="1"/>
        <pt x="471" y="268" on="0"/>
        <pt x="470" y="224" on="1"/>
        <pt x="468" y="180" on="0"/>
        <pt x="437" y="130" on="1"/>
        <pt x="385" y="42" on="0"/>
        <pt x="283" y="17" on="1"/>
        <pt x="180" y="-9" on="0"/>
        <pt x="86" y="42" on="1"/>
        <pt x="83" y="45" on="0"/>
        <pt x="76" y="50" on="1"/>
        <pt x="68" y="54" on="0"/>
      </contour>
    </TTGlyph>
    <TTGlyph name="S.1" xMin="155" yMin="-9" xMax="574" yMax="777">
      <component glyphName="S.0" x="90" y="0" flags="0x4"/>
    </TTGlyph>
    <TTGlyph name="S.2" xMin="155" yMin="-9" xMax="574" yMax="777">
      <component glyphName="S.0" x="90" y="0" flags="0x4"/>
    </TTGlyph>
    <TTGlyph name="Sacute" xMin="55" yMin="-9" xMax="505" yMax="1122">
      <component glyphName="acutecomb" x="360" y="317" flags="0x4"/>
      <component glyphName="S" x="0" y="0" flags="0x204"/>
    </TTGlyph>
    <TTGlyph name="Sacute.0" xMin="65" yMin="-9" xMax="525" yMax="1122">
      <contour>
        <pt x="343" y="833" on="1"/>
        <pt x="235" y="940" on="1"/>
        <pt x="417" y="1122" on="1"/>
        <pt x="525" y="1015" on="1"/>
      </contour>
      <contour>
        <pt x="65" y="57" on="1"/>
        <pt x="140" y="182" on="1"/>
        <pt x="152" y="172" on="0"/>
        <pt x="162" y="167" on="1"/>
        <pt x="200" y="145" on="0"/>
        <pt x="242" y="156" on="1"/>
        <pt x="284" y="166" on="0"/>
        <pt x="307" y="202" on="1"/>
        <pt x="329" y="241" on="0"/>
        <pt x="305" y="275" on="1"/>
        <pt x="280" y="308" on="0"/>
        <pt x="237" y="315" on="1"/>
        <pt x="170" y="351" on="0"/>
        <pt x="130" y="398" on="1"/>
        <pt x="89" y="445" on="0"/>
        <pt x="79" y="508" on="1"/>
        <pt x="68" y="570" on="0"/>
        <pt x="111" y="639" on="1"/>
        <pt x="163" y="726" on="0"/>
        <pt x="266" y="752" on="1"/>
        <pt x="369" y="777" on="0"/>
        <pt x="463" y="727" on="1"/>
        <pt x="466" y="724" on="0"/>
        <pt x="474" y="720" on="1"/>
        <pt x="481" y="715" on="0"/>
        <pt x="484" y="712" on="1"/>
        <pt x="409" y="587" on="1"/>
        <pt x="397" y="597" on="0"/>
        <pt x="387" y="602" on="1"/>
        <pt x="349" y="623" on="0"/>
        <pt x="307" y="613" on="1"/>
        <pt x="264" y="602" on="0"/>
        <pt x="242" y="565" on="1"/>
        <pt x="217" y="524" on="0"/>
        <pt x="238" y="475" on="1"/>
        <pt x="258" y="426" on="0"/>
        <pt x="306" y="418" on="1"/>
        <pt x="355" y="392" on="0"/>
        <pt x="389" y="366" on="1"/>
        <pt x="422" y="339" on="0"/>
        <pt x="447" y="304" on="1"/>
        <pt x="471" y="268" on="0"/>
        <pt x="470" y="224" on="1"/>
        <pt x="468" y="180" on="0"/>
        <pt x="437" y="130" on="1"/>
        <pt x="385" y="42" on="0"/>
        <pt x="283" y="17" on="1"/>
        <pt x="180" y="-9" on="0"/>
        <pt x="86" y="42" on="1"/>
        <pt x="83" y="45" on="0"/>
        <pt x="76" y="50" on="1"/>
        <pt x="68" y="54" on="0"/>
      </contour>
    </TTGlyph>
    <TTGlyph name="Sacute.1" xMin="155" yMin="-9" xMax="705" yMax="1122">
      <contour>
        <pt x="523" y="833" on="1"/>
        <pt x="415" y="940" on="1"/>
        <pt x="597" y="1122" on="1"/>
        <pt x="705" y="1015" on="1"/>
      </contour>
      <contour>
        <pt x="155" y="57" on="1"/>
        <pt x="230" y="182" on="1"/>
        <pt x="242" y="172" on="0"/>
        <pt x="252" y="167" on="1"/>
        <pt x="290" y="145" on="0"/>
        <pt x="332" y="156" on="1"/>
        <pt x="374" y="166" on="0"/>
        <pt x="397" y="202" on="1"/>
        <pt x="419" y="241" on="0"/>
        <pt x="395" y="275" on="1"/>
        <pt x="370" y="308" on="0"/>
        <pt x="327" y="315" on="1"/>
        <pt x="260" y="351" on="0"/>
        <pt x="220" y="398" on="1"/>
        <pt x="179" y="445" on="0"/>
        <pt x="169" y="508" on="1"/>
        <pt x="158" y="570" on="0"/>
        <pt x="201" y="639" on="1"/>
        <pt x="253" y="726" on="0"/>
        <pt x="356" y="752" on="1"/>
        <pt x="459" y="777" on="0"/>
        <pt x="553" y="727" on="1"/>
        <pt x="556" y="724" on="0"/>
        <pt x="564" y="720" on="1"/>
        <pt x="571" y="715" on="0"/>
        <pt x="574" y="712" on="1"/>
        <pt x="499" y="587" on="1"/>
        <pt x="487" y="597" on="0"/>
        <pt x="477" y="602" on="1"/>
        <pt x="439" y="623" on="0"/>
        <pt x="397" y="613" on="1"/>
        <pt x="354" y="602" on="0"/>
        <pt x="332" y="565" on="1"/>
        <pt x="307" y="524" on="0"/>
        <pt x="328" y="475" on="1"/>
        <pt x="348" y="426" on="0"/>
        <pt x="396" y="418" on="1"/>
        <pt x="445" y="392" on="0"/>
        <pt x="479" y="366" on="1"/>
        <pt x="512" y="339" on="0"/>
        <pt x="537" y="304" on="1"/>
        <pt x="561" y="268" on="0"/>
        <pt x="560" y="224" on="1"/>
        <pt x="558" y="180" on="0"/>
        <pt x="527" y="130" on="1"/>
        <pt x="475" y="42" on="0"/>
        <pt x="373" y="17" on="1"/>
        <pt x="270" y="-9" on="0"/>
        <pt x="176" y="42" on="1"/>
        <pt x="173" y="45" on="0"/>
        <pt x="166" y="50" on="1"/>
        <pt x="158" y="54" on="0"/>
      </contour>
    </TTGlyph>
    <TTGlyph name="Scaron" xMin="55" yMin="-9" xMax="474" yMax="1001">
      <component glyphName="uni030C" x="323" y="67" flags="0x4"/>
      <component glyphName="S" x="0" y="0" flags="0x204"/>
    </TTGlyph>
    <TTGlyph name="Scaron.0" xMin="65" yMin="-9" xMax="484" yMax="1001">
      <contour>
        <pt x="243" y="1001" on="1"/>
        <pt x="319" y="1001" on="1"/>
        <pt x="347" y="893" on="1"/>
        <pt x="367" y="1001" on="1"/>
        <pt x="443" y="1001" on="1"/>
        <pt x="391" y="833" on="1"/>
        <pt x="390" y="833" on="1"/>
        <pt x="315" y="833" on="1"/>
        <pt x="314" y="833" on="1"/>
      </contour>
      <contour>
        <pt x="65" y="57" on="1"/>
        <pt x="140" y="182" on="1"/>
        <pt x="152" y="172" on="0"/>
        <pt x="162" y="167" on="1"/>
        <pt x="200" y="145" on="0"/>
        <pt x="242" y="156" on="1"/>
        <pt x="284" y="166" on="0"/>
        <pt x="307" y="202" on="1"/>
        <pt x="329" y="241" on="0"/>
        <pt x="305" y="275" on="1"/>
        <pt x="280" y="308" on="0"/>
        <pt x="237" y="315" on="1"/>
        <pt x="170" y="351" on="0"/>
        <pt x="130" y="398" on="1"/>
        <pt x="89" y="445" on="0"/>
        <pt x="79" y="508" on="1"/>
        <pt x="68" y="570" on="0"/>
        <pt x="111" y="639" on="1"/>
        <pt x="163" y="726" on="0"/>
        <pt x="266" y="752" on="1"/>
        <pt x="369" y="777" on="0"/>
        <pt x="463" y="727" on="1"/>
        <pt x="466" y="724" on="0"/>
        <pt x="474" y="720" on="1"/>
        <pt x="481" y="715" on="0"/>
        <pt x="484" y="712" on="1"/>
        <pt x="409" y="587" on="1"/>
        <pt x="397" y="597" on="0"/>
        <pt x="387" y="602" on="1"/>
        <pt x="349" y="623" on="0"/>
        <pt x="307" y="613" on="1"/>
        <pt x="264" y="602" on="0"/>
        <pt x="242" y="565" on="1"/>
        <pt x="217" y="524" on="0"/>
        <pt x="238" y="475" on="1"/>
        <pt x="258" y="426" on="0"/>
        <pt x="306" y="418" on="1"/>
        <pt x="355" y="392" on="0"/>
        <pt x="389" y="366" on="1"/>
        <pt x="422" y="339" on="0"/>
        <pt x="447" y="304" on="1"/>
        <pt x="471" y="268" on="0"/>
        <pt x="470" y="224" on="1"/>
        <pt x="468" y="180" on="0"/>
        <pt x="437" y="130" on="1"/>
        <pt x="385" y="42" on="0"/>
        <pt x="283" y="17" on="1"/>
        <pt x="180" y="-9" on="0"/>
        <pt x="86" y="42" on="1"/>
        <pt x="83" y="45" on="0"/>
        <pt x="76" y="50" on="1"/>
        <pt x="68" y="54" on="0"/>
      </contour>
    </TTGlyph>
    <TTGlyph name="Scaron.1" xMin="155" yMin="-9" xMax="623" yMax="1001">
      <contour>
        <pt x="423" y="1001" on="1"/>
        <pt x="499" y="1001" on="1"/>
        <pt x="527" y="893" on="1"/>
        <pt x="547" y="1001" on="1"/>
        <pt x="623" y="1001" on="1"/>
        <pt x="571" y="833" on="1"/>
        <pt x="570" y="833" on="1"/>
        <pt x="495" y="833" on="1"/>
        <pt x="494" y="833" on="1"/>
      </contour>
      <contour>
        <pt x="155" y="57" on="1"/>
        <pt x="230" y="182" on="1"/>
        <pt x="242" y="172" on="0"/>
        <pt x="252" y="167" on="1"/>
        <pt x="290" y="145" on="0"/>
        <pt x="332" y="156" on="1"/>
        <pt x="374" y="166" on="0"/>
        <pt x="397" y="202" on="1"/>
        <pt x="419" y="241" on="0"/>
        <pt x="395" y="275" on="1"/>
        <pt x="370" y="308" on="0"/>
        <pt x="327" y="315" on="1"/>
        <pt x="260" y="351" on="0"/>
        <pt x="220" y="398" on="1"/>
        <pt x="179" y="445" on="0"/>
        <pt x="169" y="508" on="1"/>
        <pt x="158" y="570" on="0"/>
        <pt x="201" y="639" on="1"/>
        <pt x="253" y="726" on="0"/>
        <pt x="356" y="752" on="1"/>
        <pt x="459" y="777" on="0"/>
        <pt x="553" y="727" on="1"/>
        <pt x="556" y="724" on="0"/>
        <pt x="564" y="720" on="1"/>
        <pt x="571" y="715" on="0"/>
        <pt x="574" y="712" on="1"/>
        <pt x="499" y="587" on="1"/>
        <pt x="487" y="597" on="0"/>
        <pt x="477" y="602" on="1"/>
        <pt x="439" y="623" on="0"/>
        <pt x="397" y="613" on="1"/>
        <pt x="354" y="602" on="0"/>
        <pt x="332" y="565" on="1"/>
        <pt x="307" y="524" on="0"/>
        <pt x="328" y="475" on="1"/>
        <pt x="348" y="426" on="0"/>
        <pt x="396" y="418" on="1"/>
        <pt x="445" y="392" on="0"/>
        <pt x="479" y="366" on="1"/>
        <pt x="512" y="339" on="0"/>
        <pt x="537" y="304" on="1"/>
        <pt x="561" y="268" on="0"/>
        <pt x="560" y="224" on="1"/>
        <pt x="558" y="180" on="0"/>
        <pt x="527" y="130" on="1"/>
        <pt x="475" y="42" on="0"/>
        <pt x="373" y="17" on="1"/>
        <pt x="270" y="-9" on="0"/>
        <pt x="176" y="42" on="1"/>
        <pt x="173" y="45" on="0"/>
        <pt x="166" y="50" on="1"/>
        <pt x="158" y="54" on="0"/>
      </contour>
    </TTGlyph>
    <TTGlyph name="Scedilla" xMin="55" yMin="-240" xMax="474" yMax="777">
      <component glyphName="uni0327" x="140" y="-172" flags="0x4"/>
      <component glyphName="S" x="0" y="0" flags="0x204"/>
    </TTGlyph>
    <TTGlyph name="Scedilla.0" xMin="65" yMin="-240" xMax="484" yMax="777">
      <contour>
        <pt x="89" y="-240" on="1"/>
        <pt x="89" y="-163" on="1"/>
        <pt x="97" y="-165" on="0"/>
        <pt x="102" y="-165" on="1"/>
        <pt x="125" y="-165" on="0"/>
        <pt x="141" y="-149" on="1"/>
        <pt x="156" y="-134" on="0"/>
        <pt x="156" y="-112" on="1"/>
        <pt x="156" y="-90" on="0"/>
        <pt x="140" y="-74" on="1"/>
        <pt x="124" y="-58" on="0"/>
        <pt x="102" y="-58" on="1"/>
        <pt x="97" y="-58" on="0"/>
        <pt x="89" y="-60" on="1"/>
        <pt x="89" y="17" on="1"/>
        <pt x="102" y="17" on="1"/>
        <pt x="156" y="17" on="0"/>
        <pt x="194" y="-20" on="1"/>
        <pt x="231" y="-58" on="0"/>
        <pt x="231" y="-112" on="1"/>
        <pt x="231" y="-165" on="0"/>
        <pt x="194" y="-202" on="1"/>
        <pt x="156" y="-240" on="0"/>
        <pt x="102" y="-240" on="1"/>
      </contour>
      <contour>
        <pt x="65" y="57" on="1"/>
        <pt x="140" y="182" on="1"/>
        <pt x="152" y="172" on="0"/>
        <pt x="162" y="167" on="1"/>
        <pt x="200" y="145" on="0"/>
        <pt x="242" y="156" on="1"/>
        <pt x="284" y="166" on="0"/>
        <pt x="307" y="202" on="1"/>
        <pt x="329" y="241" on="0"/>
        <pt x="305" y="275" on="1"/>
        <pt x="280" y="308" on="0"/>
        <pt x="237" y="315" on="1"/>
        <pt x="170" y="351" on="0"/>
        <pt x="130" y="398" on="1"/>
        <pt x="89" y="445" on="0"/>
        <pt x="79" y="508" on="1"/>
        <pt x="68" y="570" on="0"/>
        <pt x="111" y="639" on="1"/>
        <pt x="163" y="726" on="0"/>
        <pt x="266" y="752" on="1"/>
        <pt x="369" y="777" on="0"/>
        <pt x="463" y="727" on="1"/>
        <pt x="466" y="724" on="0"/>
        <pt x="474" y="720" on="1"/>
        <pt x="481" y="715" on="0"/>
        <pt x="484" y="712" on="1"/>
        <pt x="409" y="587" on="1"/>
        <pt x="397" y="597" on="0"/>
        <pt x="387" y="602" on="1"/>
        <pt x="349" y="623" on="0"/>
        <pt x="307" y="613" on="1"/>
        <pt x="264" y="602" on="0"/>
        <pt x="242" y="565" on="1"/>
        <pt x="217" y="524" on="0"/>
        <pt x="238" y="475" on="1"/>
        <pt x="258" y="426" on="0"/>
        <pt x="306" y="418" on="1"/>
        <pt x="355" y="392" on="0"/>
        <pt x="389" y="366" on="1"/>
        <pt x="422" y="339" on="0"/>
        <pt x="447" y="304" on="1"/>
        <pt x="471" y="268" on="0"/>
        <pt x="470" y="224" on="1"/>
        <pt x="468" y="180" on="0"/>
        <pt x="437" y="130" on="1"/>
        <pt x="385" y="42" on="0"/>
        <pt x="283" y="17" on="1"/>
        <pt x="180" y="-9" on="0"/>
        <pt x="86" y="42" on="1"/>
        <pt x="83" y="45" on="0"/>
        <pt x="76" y="50" on="1"/>
        <pt x="68" y="54" on="0"/>
      </contour>
    </TTGlyph>
</ttFont>
